<?xml version="1.0" encoding="iso-8859-1"?>
<!-- Generator: Adobe Illustrator 27.3.1, SVG Export Plug-In . SVG Version: 6.00 Build 0)  -->
<svg version="1.1" xmlns="http://www.w3.org/2000/svg" xmlns:xlink="http://www.w3.org/1999/xlink" x="0px" y="0px"
	 viewBox="0 0 750 500" style="enable-background:new 0 0 750 500;" xml:space="preserve">
<g id="Background_Simple">
	<g>
		<path style="fill:#F13434;" d="M733.124,155.704c-9.018-45.075-28.135-85.22-63.258-109.491
			C622.934,13.781,560.817,8.409,502.034,26.163c-33.53,10.127-65.205,28.997-96.183,48.326
			c-27.534,17.18-72.898,21.943-105.091,20.078c-41.664-2.413-108.371-41.041-182.628-27.789
			C43.874,80.031,2.917,182.824,7.567,249.044c4.65,66.22,72.194,71.284,86.284,126.449c14.09,55.165,93.224,106.973,207.624,84.967
			c114.4-22.005,174.102-35.173,226.632-6.533c52.53,28.64,129.966,41.504,176.609-58.514
			c18.672-40.039,30.281-83.128,33.542-125.723C741.115,232.366,740.466,192.401,733.124,155.704z"/>
		<path style="opacity:0.8;fill:#FFFFFF;" d="M733.124,155.704c-9.018-45.075-28.135-85.22-63.258-109.491
			C622.934,13.781,560.817,8.409,502.034,26.163c-33.53,10.127-65.205,28.997-96.183,48.326
			c-27.534,17.18-67.211,20.92-105.091,20.078c-41.728-0.928-108.371-41.041-182.628-27.789
			C43.874,80.031,2.917,182.824,7.567,249.044c4.65,66.22,72.194,71.284,86.284,126.449c14.09,55.165,93.224,106.973,207.624,84.967
			c114.4-22.005,174.102-35.173,226.632-6.533c52.53,28.64,129.966,41.504,176.609-58.514
			c18.672-40.039,30.281-83.128,33.542-125.723C741.115,232.366,740.466,192.401,733.124,155.704z"/>
	</g>
</g>
<g id="Board">
	<g>
		
			<rect x="78.609" y="56.23" style="fill:#F13434;stroke:#263238;stroke-linecap:round;stroke-linejoin:round;stroke-miterlimit:10;" width="600.274" height="368.721"/>
		<g>
			<rect x="88.628" y="69.135" style="fill:#263238;" width="580.237" height="342.911"/>
			<rect x="88.628" y="69.135" style="opacity:0.51;fill:#FFFFFF;" width="580.237" height="342.911"/>
			<polygon style="fill:#263238;" points="88.628,69.135 88.628,73.056 664.664,73.056 664.664,412.046 668.865,412.046 
				668.865,69.135 			"/>
		</g>
	</g>
</g>
<g id="Pictures_00000137120750741014040260000005938489913600521385_">
	<g>
		<rect x="513.575" y="98.121" style="fill:#FFFFFF;stroke:#263238;stroke-miterlimit:10;" width="105.839" height="90.271"/>
		<rect x="516.246" y="101.211" style="fill:#B5B5B5;stroke:#263238;stroke-miterlimit:10;" width="100.499" height="83.877"/>
		<line style="fill:none;stroke:#263238;stroke-miterlimit:10;" x1="516.179" y1="161.55" x2="617.054" y2="161.55"/>
		<g>
			<path style="fill:#263238;stroke:#263238;stroke-linecap:round;stroke-linejoin:round;stroke-miterlimit:10;" d="
				M564.725,144.002l-0.422-0.872c-1.101-2.273-3.404-3.716-5.929-3.716h-42.195v16.738h31.761c0.534,0,1.066-0.065,1.585-0.193
				l10.857-2.691C564.444,152.262,566.55,147.77,564.725,144.002z"/>
			<g>
				<path style="fill:#263238;stroke:#263238;stroke-linecap:round;stroke-linejoin:round;stroke-miterlimit:10;" d="
					M558.439,142.276h-4.002v0.784c-3.873,1.58-6.603,5.381-6.603,9.822c0,4.441,2.73,8.242,6.603,9.822v0.784h4.002
					c5.857,0,10.605-4.748,10.605-10.605C569.045,147.024,564.297,142.276,558.439,142.276z"/>
				
					<ellipse transform="matrix(0.9043 -0.4269 0.4269 0.9043 -12.2003 251.3456)" style="fill:#878787;stroke:#263238;stroke-linecap:round;stroke-linejoin:round;stroke-miterlimit:10;" cx="554.437" cy="152.881" rx="10.605" ry="10.605"/>
				
					<ellipse transform="matrix(0.2055 -0.9787 0.9787 0.2055 290.8654 664.0595)" style="fill:#FFFFFF;stroke:#263238;stroke-linecap:round;stroke-linejoin:round;stroke-miterlimit:10;" cx="554.437" cy="152.881" rx="7.723" ry="7.723"/>
			</g>
			<path style="fill:#263238;stroke:#263238;stroke-linecap:round;stroke-linejoin:round;stroke-miterlimit:10;" d="
				M592.474,142.276h-4.002c-5.857,0-10.605,4.748-10.605,10.605c0,5.857,4.748,10.605,10.605,10.605h4.002
				c5.857,0,10.605-4.748,10.605-10.605C603.079,147.024,598.331,142.276,592.474,142.276z"/>
			<path style="fill:#263238;stroke:#263238;stroke-linecap:round;stroke-linejoin:round;stroke-miterlimit:10;" d="
				M526.277,142.276h-4.002c-2.271,0-4.371,0.72-6.096,1.936v17.339c1.726,1.216,3.825,1.936,6.096,1.936h4.002
				c5.857,0,10.605-4.748,10.605-10.605C536.882,147.024,532.134,142.276,526.277,142.276z"/>
			<g>
				<polygon style="fill:#FFFFFF;stroke:#263238;stroke-linecap:round;stroke-linejoin:round;stroke-miterlimit:10;" points="
					575.9,128.454 572.745,131.219 572.745,132.316 577.086,132.316 				"/>
				<path style="fill:#FFFFFF;stroke:#263238;stroke-linecap:round;stroke-linejoin:round;stroke-miterlimit:10;" d="
					M577.847,132.345h4.218c1.075,0,1.947-0.872,1.947-1.947v-1.184c0-1.075-0.872-1.947-1.947-1.947h-4.218
					c-1.075,0-1.947,0.872-1.947,1.947v1.185C575.9,131.474,576.772,132.345,577.847,132.345z"/>
			</g>
			<path style="fill:#FFFFFF;stroke:#263238;stroke-linecap:round;stroke-linejoin:round;stroke-miterlimit:10;" d="
				M579.412,132.233l-12.751-10.457c-3.462-2.84-7.802-4.391-12.279-4.391h-33.775l21.943,14.848H579.412z"/>
			<g>
				<path style="fill:#263238;stroke:#263238;stroke-linecap:round;stroke-linejoin:round;stroke-miterlimit:10;" d="
					M567.685,123.093c-3.462-2.84-7.802-4.391-12.279-4.391h-27.783c2.811,1.093,5.36,2.838,7.416,5.135l7.512,8.396h36.28
					L567.685,123.093z"/>
				<polygon style="fill:#FFFFFF;stroke:#263238;stroke-linecap:round;stroke-linejoin:round;stroke-miterlimit:10;" points="
					542.55,132.233 541.641,132.242 543.574,133.55 548.231,133.55 				"/>
			</g>
			<polygon style="fill:#FFFFFF;stroke:#263238;stroke-linecap:round;stroke-linejoin:round;stroke-miterlimit:10;" points="
				616.809,147.715 613.862,139.071 602.506,138.137 584.525,138.137 572.052,139.071 576.11,150.977 576.864,156.264 
				616.809,156.264 			"/>
			<path style="fill:#263238;stroke:#263238;stroke-linecap:round;stroke-linejoin:round;stroke-miterlimit:10;" d="
				M616.809,148.254h-36.898c-0.688,0-1.173,0.677-0.951,1.328l1.338,3.924c0.284,0.832,1.065,1.391,1.944,1.391h34.567V148.254z"/>
			<g>
				<polygon style="fill:#FFFFFF;stroke:#263238;stroke-linecap:round;stroke-linejoin:round;stroke-miterlimit:10;" points="
					615.247,145.848 612.985,139.685 606.909,139.401 609.107,145.848 				"/>
				<polygon style="fill:#FFFFFF;stroke:#263238;stroke-linecap:round;stroke-linejoin:round;stroke-miterlimit:10;" points="
					587.249,145.848 585.052,139.401 575.475,140.518 577.233,145.848 				"/>
				<polygon style="fill:#263238;stroke:#263238;stroke-linecap:round;stroke-linejoin:round;stroke-miterlimit:10;" points="
					606.592,145.848 604.394,139.401 587.567,139.401 589.765,145.848 				"/>
			</g>
			<path style="fill:#FFFFFF;stroke:#263238;stroke-linecap:round;stroke-linejoin:round;stroke-miterlimit:10;" d="M516.179,132.49
				l26.371-0.257l-7.512-8.396c-3.673-4.106-8.922-6.452-14.431-6.452h-4.428V132.49z"/>
			<path style="fill:#263238;stroke:#263238;stroke-linecap:round;stroke-linejoin:round;stroke-miterlimit:10;" d="
				M516.179,132.533l23.951-0.25l-6.415-7.676c-3.137-3.754-7.619-5.899-12.323-5.899h-5.212V132.533z"/>
			<polygon style="fill:#FFFFFF;stroke:#263238;stroke-linecap:round;stroke-linejoin:round;stroke-miterlimit:10;" points="
				579.412,132.233 613.862,139.071 602.506,138.137 584.525,138.137 572.052,139.071 542.55,132.233 			"/>
			<g>
				<g>
					<path style="fill:#878787;stroke:#263238;stroke-linecap:round;stroke-linejoin:round;stroke-miterlimit:10;" d="
						M516.179,118.708v4.822c0.667-1.786,1.583-3.482,2.868-4.822H516.179z"/>
				</g>
				<polygon style="fill:#878787;stroke:#263238;stroke-linecap:round;stroke-linejoin:round;stroke-miterlimit:10;" points="
					534.194,132.345 540.129,132.283 535.055,126.212 				"/>
			</g>
			<g>
				<polygon style="fill:#263238;stroke:#263238;stroke-linecap:round;stroke-linejoin:round;stroke-miterlimit:10;" points="
					534.194,128.454 537.349,131.219 537.349,132.316 533.008,132.316 				"/>
				<path style="fill:#FFFFFF;stroke:#263238;stroke-linecap:round;stroke-linejoin:round;stroke-miterlimit:10;" d="
					M532.247,132.345h-4.218c-1.075,0-1.947-0.872-1.947-1.947v-1.185c0-1.075,0.872-1.947,1.947-1.947h4.218
					c1.075,0,1.947,0.872,1.947,1.947v1.185C534.194,131.474,533.323,132.345,532.247,132.345z"/>
			</g>
			<path style="fill:#FFFFFF;stroke:#263238;stroke-linecap:round;stroke-linejoin:round;stroke-miterlimit:10;" d="M576.11,150.977
				l-4.059-11.905l-29.502-6.838l-26.371,0.257v24.947h28.532c-1.511-2.137-2.53-4.609-2.53-7.023c0-2.973,0.642-9.826,9.767-9.826
				c6.908,0,9.043,9.826,9.043,9.826s0.534,4.269,1.734,6.003c0.308,0.445,0.536,0.774,0.706,1.02h1.561l11.873-1.172
				L576.11,150.977z"/>
			<polygon style="fill:#FFFFFF;stroke:#263238;stroke-linecap:round;stroke-linejoin:round;stroke-miterlimit:10;" points="
				577.233,145.848 580.839,145.848 579.044,140.102 575.475,140.518 			"/>
			<polygon style="fill:#FFFFFF;stroke:#263238;stroke-linecap:round;stroke-linejoin:round;stroke-miterlimit:10;" points="
				613.337,145.848 615.247,145.848 612.985,139.685 611.028,139.593 			"/>
			<path style="fill:none;stroke:#263238;stroke-linecap:round;stroke-linejoin:round;stroke-miterlimit:10;" d="M539.865,153.645
				c0.186,0.744,0.415,1.41,0.693,1.966"/>
			<path style="fill:none;stroke:#263238;stroke-linecap:round;stroke-linejoin:round;stroke-miterlimit:10;" d="M541.671,133.667
				c0,0-1.431,1.272-1.908,3.657c-0.387,1.934-1.087,9.826-0.152,15.116"/>
			<path style="fill:none;stroke:#263238;stroke-linecap:round;stroke-linejoin:round;stroke-miterlimit:10;" d="M546.644,140.028
				c1.792-1.373,4.642-2.778,8.226-1.909c5.247,1.272,6.042,7.633,6.201,9.541"/>
			<path style="fill:none;stroke:#263238;stroke-linecap:round;stroke-linejoin:round;stroke-miterlimit:10;" d="M544.534,142.095
				c0,0,0.406-0.553,1.16-1.261"/>
		</g>
	</g>
	<g>
		<g>
			<polygon style="fill:#FFFFFF;stroke:#263238;stroke-miterlimit:10;" points="322.549,383.678 218.838,387.467 215.52,307.828 
				319.231,304.039 			"/>
			
				<rect x="219.84" y="309.172" transform="matrix(0.9993 -0.0365 0.0365 0.9993 -12.4373 10.0458)" style="fill:#F13434;stroke:#263238;stroke-linecap:round;stroke-linejoin:round;stroke-miterlimit:10;" width="98.077" height="72.872"/>
		</g>
		<g>
			<path style="fill:#263238;stroke:#263238;stroke-miterlimit:10;" d="M304.693,323.739c0,0-2.348-8.884-2.596-9.787
				c-0.248-0.903-0.42-1.208-1.099-1.11c-0.679,0.098-0.679,0.098-0.679,0.098l-1.121-1.192l-1.805,0.495l-0.013,1.239
				l-59.489,16.316l-1.016-1.133l-2.626,0.72l0.428,1.559c0,0-1.149,0.315-1.036,0.725l1.734,7.288c0,0-1.088,1.181-0.049,2.395
				c1.039,1.215,2.225,0.713,2.963,0.511c0.738-0.203,1.915-2.025,4.256,2.009c2.342,4.034,0.924,9.804,0.272,12.895
				c-0.652,3.09-2.781,12.056-2.723,16.451c0.059,4.395,0.575,5.312,1.575,5.744c1.001,0.431,3.269,0.339,3.269,0.339l0.888,0.021
				l-1.042,1.83l14.729-4.04c0,0,0.608-0.034,0.451-0.609c-0.158-0.574-0.54-1.969-0.54-1.969s2.191-1.66,2.198-2.279
				c0.007-0.619-1.288-3.088-1.201-4.7c0.087-1.612,2.092-3.309,1.972-4.07c-0.12-0.761-1.314-0.61-0.796-3.223
				c0.519-2.613,1.637-3.36,1.553-4.308c-0.083-0.948-0.225-0.82-0.563-2.051c-0.338-1.231-0.192-3.918,0.135-4.978
				c0.327-1.06,2.714-1.362,3.67-1.095c0.956,0.267,7.058-0.965,10.012-1.776c2.954-0.81,7.094-2.122,7.033-2.987
				c-0.061-0.866-1.309-2.2-1.692-3.594c-0.383-1.395-1.55-3.722-0.739-5.267c0.811-1.546,2.258-2.384,3.817-2.811
				c1.559-0.428,18.977-5.117,19.58-5.811C305.008,324.888,304.693,323.739,304.693,323.739z M279.637,341.11
				c-0.235,2.359-1.384,2.674-2.301,3.19c-0.917,0.516-7.623,2.444-9.84,2.081c-2.217-0.362-2.95-1.749-3.751-3.383
				c-0.801-1.633,0.095-1.261,0.095-1.261s1.858,0.02,2.381,0.318c0.523,0.298,1.285,1.147,2.376,1.907
				c1.091,0.76,3.151,1.518,3.158,0.898c0.007-0.619-1.322-0.961-1.322-0.961s-1.24-0.983-1.959-2.639
				c-0.719-1.656-0.826-3.655-0.319-4.059c0.507-0.404,5.361-2.97,6.996-2.801c1.635,0.169,3.114,1.704,3.114,1.704
				S279.872,338.751,279.637,341.11z"/>
			<path style="fill:none;stroke:#878787;stroke-miterlimit:10;" d="M261.493,323.853l0.247,0.903l-5.457,1.497
				c-0.566,0.155-0.9,0.741-0.744,1.307l0,0c0.155,0.566,0.74,0.9,1.307,0.744l6.605-1.812l1.926,0.266l6.04-1.657
				c1.286-0.353,2.043-1.681,1.69-2.968l-0.329-1.199"/>
			<line style="fill:none;stroke:#878787;stroke-miterlimit:10;" x1="261.741" y1="324.755" x2="262.214" y2="326.479"/>
			<line style="fill:none;stroke:#878787;stroke-miterlimit:10;" x1="236.419" y1="338.582" x2="302.143" y2="320.556"/>
			<line style="fill:none;stroke:#878787;stroke-miterlimit:10;" x1="238.102" y1="330.886" x2="239.745" y2="336.876"/>
			<line style="fill:none;stroke:#878787;stroke-miterlimit:10;" x1="240.153" y1="330.323" x2="241.796" y2="336.313"/>
			<line style="fill:none;stroke:#878787;stroke-miterlimit:10;" x1="242.204" y1="329.761" x2="243.847" y2="335.751"/>
			<line style="fill:none;stroke:#878787;stroke-miterlimit:10;" x1="244.256" y1="329.198" x2="245.898" y2="335.188"/>
			<line style="fill:none;stroke:#878787;stroke-miterlimit:10;" x1="246.307" y1="328.636" x2="247.95" y2="334.625"/>
			<line style="fill:none;stroke:#878787;stroke-miterlimit:10;" x1="248.358" y1="328.073" x2="250.001" y2="334.063"/>
			<line style="fill:none;stroke:#878787;stroke-miterlimit:10;" x1="250.41" y1="327.51" x2="252.053" y2="333.5"/>
			<path style="fill:none;stroke:#878787;stroke-miterlimit:10;" d="M244.844,343.723c0,0,1.739,0.605,1.001,7.593
				c-0.739,6.988-4.274,18.48-4.484,22.373c-0.211,3.893,1.936,4.189,1.936,4.189l14.816-4.064c0,0,1.446-1.183,0.919-3.104
				c-0.527-1.921-2.002-4.073-0.764-5.297c1.238-1.224,2.609-1.601,2.217-2.673c-0.392-1.073-1.908-1.935-1.328-3.766
				c0.58-1.831,2.159-2.166,2.016-3.405c-0.143-1.239-1.258-1.72-1.186-3.608c0.072-1.888,1.008-10.307,2.237-11.922
				c1.229-1.615,3.241-2.167,3.241-2.167"/>
			<line style="fill:none;stroke:#878787;stroke-miterlimit:10;" x1="284.154" y1="326.058" x2="285.232" y2="329.991"/>
			<polygon style="fill:#263238;stroke:#263238;stroke-miterlimit:10;" points="302.097,313.952 303.078,314.511 303.897,317.496 
				303.198,317.688 			"/>
		</g>
	</g>
	<g>
		<g>
			<path style="fill:#263238;" d="M118.268,265.812l-1.837,54.796c0,0,52.039-2.143,59.998-2.143c7.959,0,29.999,1.224,29.999,1.224
				l-2.233-11.837L118.268,265.812z"/>
			<rect x="118.3" y="249.837" style="fill:#FFFFFF;stroke:#263238;stroke-miterlimit:10;" width="86.765" height="67.114"/>
			<rect x="121.199" y="252.93" style="fill:#B5B5B5;stroke:#263238;stroke-miterlimit:10;" width="80.966" height="60.625"/>
		</g>
		<path style="fill:#263238;" d="M135.501,300.206l-4.363,0.156c0,0-7.479-6.389-8.259-5.454c-0.779,0.935-0.156,2.026,0.935,4.675
			c1.091,2.649,2.182,6.077,2.805,6.389c0.623,0.312,1.87,0.467,2.649,0.156c0.779-0.312,12.543-1.865,12.543-1.865L135.501,300.206
			z"/>
		<path style="fill:#263238;" d="M139.708,313.14c0,0-3.584-6.389-1.87-6.7c1.714-0.312,5.921,3.272,6.233,3.896
			c0.312,0.623,2.181,0.779,2.181,0.779l1.714,2.337L139.708,313.14z"/>
		<path style="fill:#FFFFFF;stroke:#263238;stroke-miterlimit:10;" d="M193.759,276.623c0,0-14.319-5.661-16.65-5.661
			s-8.991,2.331-11.988,3.996c-2.997,1.665-9.99,6.993-9.99,6.993l-7.326,2.997l-5.994,1.665c0,0-5.661,5.994-6.66,6.66
			c-0.999,0.666-4.329,2.997-4.329,2.997s9.657,6.993,10.989,7.992s3.996,5.328,3.996,5.328l2.16,3.861h6.7l20.101,0.156
			l12.664-9.677l10.323-6.327l4.484-2.493v-11.655L193.759,276.623z"/>
		<path style="fill:#FFFFFF;stroke:#263238;stroke-miterlimit:10;" d="M165.787,289.944c0,0,6.993,3.33,8.658,4.662
			c1.665,1.332,10.656,2.664,10.656,2.664"/>
		<path style="fill:#FFFFFF;stroke:#263238;stroke-miterlimit:10;" d="M153.799,290.609c0,0,5.994,0.666,7.326,1.332
			c1.332,0.666,7.992,6.66,7.992,6.66"/>
		<path style="fill:#FFFFFF;stroke:#263238;stroke-miterlimit:10;" d="M187.099,277.289c0,0-5.328-0.333-7.659,0.666
			c-2.331,0.999-6.993,1.665-6.993,1.665"/>
		<g>
			<polygon style="fill:#F13434;stroke:#263238;stroke-linecap:round;stroke-linejoin:round;stroke-miterlimit:10;" points="
				137.189,268.206 134.782,278.271 142.221,280.678 144.628,270.613 			"/>
			<polygon style="fill:#F13434;stroke:#263238;stroke-linecap:round;stroke-linejoin:round;stroke-miterlimit:10;" points="
				144.628,270.722 147.254,277.723 143.534,276.848 			"/>
		</g>
		<g>
			<polygon style="fill:#F13434;stroke:#263238;stroke-linecap:round;stroke-linejoin:round;stroke-miterlimit:10;" points="
				187.734,258.586 185.327,268.651 192.767,271.058 195.173,260.993 			"/>
			<polygon style="fill:#F13434;stroke:#263238;stroke-linecap:round;stroke-linejoin:round;stroke-miterlimit:10;" points="
				195.173,261.102 197.799,268.103 194.079,267.228 			"/>
		</g>
		<line style="fill:#FFFFFF;stroke:#263238;stroke-miterlimit:10;" x1="123.87" y1="262.231" x2="182.788" y2="262.231"/>
	</g>
	<g>
		<g>
			<path style="fill:#263238;" d="M406.182,248.628l5.967,59.931c0,0,30.469-4.722,35.376-5.217
				c4.907-0.495,18.388-0.382,18.388-0.382l-2.274-16.84L406.182,248.628z"/>
			<polygon style="fill:#FFFFFF;stroke:#263238;stroke-miterlimit:10;" points="465.201,301.401 413.128,306.875 406.537,241.58 
				458.61,236.106 			"/>
			<polygon style="fill:#B5B5B5;stroke:#263238;stroke-miterlimit:10;" points="462.603,299.093 414.716,304.196 408.627,243.878 
				456.514,238.775 			"/>
		</g>
		<g>
			<g>
				<g>
					<path style="fill:#F13434;stroke:#263238;stroke-linecap:round;stroke-linejoin:round;stroke-miterlimit:10;" d="
						M460.614,287.896c-0.084-0.07-0.161-0.129-0.229-0.173c-2.228-1.448-11.048-2.854-11.048-2.854s-20.894,1.901-28.419,4.889
						c0,0-3.379,1.381-6.846,3.268l1.092,10.817l46.586-4.703L460.614,287.896z"/>
					<path style="fill:#263238;stroke:#263238;stroke-linecap:round;stroke-linejoin:round;stroke-miterlimit:10;" d="
						M417.007,291.576l-2.928,1.518l0.351,3.477c0.818,1.88,1.924,4.434,3.032,7.04l3.475-0.351
						C419.032,297.431,417.007,291.576,417.007,291.576z"/>
					<path style="fill:#263238;stroke:#263238;stroke-linecap:round;stroke-linejoin:round;stroke-miterlimit:10;" d="
						M460.727,289.017c-0.211-0.796-0.342-1.294-0.342-1.294l-5.473-1.735c0,0,2.511,6.869,4.883,13.349l1.954-0.197
						L460.727,289.017z"/>
				</g>
			</g>
			<path style="fill:#F13434;stroke:#263238;stroke-linecap:round;stroke-linejoin:round;stroke-miterlimit:10;" d="
				M443.259,300.915c0.036,0.029,0.068,0.053,0.104,0.081l4.105-0.414c0.878-3.631,3.847-14.84,3.7-15.769
				c-0.17-1.074-4.005-4.456-6.632-5.416c-2.627-0.96-10.367-2.076-13.595-0.741c0,0-4.498,1.123-7.711,3.418
				c-3.213,2.295-5.904,6.159-5.465,7.19C418.202,290.295,440.73,298.839,443.259,300.915z"/>
			<path style="fill:#CCCCCC;stroke:#263238;stroke-linecap:round;stroke-linejoin:round;stroke-miterlimit:10;" d="
				M428.208,271.799l2.486,12.26c0,0,10.431,10.317,11.702,10.529c1.271,0.212,0.832-16.497,0.832-16.497L428.208,271.799z"/>
			<g>
				<path style="fill:#263238;stroke:#263238;stroke-linecap:round;stroke-linejoin:round;stroke-miterlimit:10;" d="
					M440.315,240.581l-25.556,2.58c-0.172,0.088-0.363,0.137-0.583,0.124c-1.045-0.065-2.969,2.308-2.573,4.084
					c0.396,1.777,1.517,1.6,1.452,2.644c-0.065,1.045-2.65,2.143-2.815,4.008c-0.165,1.865,4.887,4.745,7.39,4.58
					c2.502-0.165,4.592-0.036,4.592-0.036c1.104-0.289,2.196-1.381,2.845-3.093c0.649-1.712,0.885-3.128,4.155-5.714
					c3.27-2.585,11.586-1.6,12.359-2.527c0.773-0.927,1.021-3.724,0.307-5.336C441.508,241.043,440.867,240.751,440.315,240.581z"/>
				<g>
					<path style="fill:#CCCCCC;stroke:#263238;stroke-linecap:round;stroke-linejoin:round;stroke-miterlimit:10;" d="
						M424.647,245.538c0,0-4.12,3.754-4.308,8.381c-0.189,4.627,6.735,17.901,8.028,19.536c1.293,1.635,9.096,5.919,11.575,6.332
						c2.479,0.413,4.692-0.856,5.879-2.078c1.186-1.222,1.776-6.947,1.935-10.305c0.159-3.358-2.745-13.014-3.595-16.213
						c-0.85-3.199-3.205-7.195-6.853-8.458C433.659,241.471,427.249,242.369,424.647,245.538z"/>
					<path style="fill:#263238;stroke:#263238;stroke-linecap:round;stroke-linejoin:round;stroke-miterlimit:10;" d="
						M443.977,250.761c0.024,0.023,0.048,0.03,0.072,0.05c-0.93-3.128-3.237-6.863-6.742-8.077
						c-3.648-1.263-10.057-0.365-12.66,2.804c0,0-4.12,3.754-4.308,8.381c-0.088,2.149,1.359,6.161,3.062,10.007
						c0.463-0.522,2.759-3.204,2.775-5.067c0.018-2.072,1.148-8.243,6.421-11.014C438.54,244.723,442.088,248.99,443.977,250.761z"
						/>
					<path style="fill:#263238;" d="M436.441,264.07c0.133,0.84-0.14,1.581-0.609,1.655c-0.469,0.074-0.957-0.547-1.089-1.387
						c-0.133-0.84,0.14-1.581,0.609-1.655C435.82,262.609,436.308,263.23,436.441,264.07z"/>
					<path style="fill:#263238;" d="M444.591,261.928c0.133,0.84-0.14,1.581-0.609,1.655s-0.957-0.547-1.09-1.387
						c-0.133-0.84,0.14-1.581,0.609-1.655C443.971,260.467,444.458,261.088,444.591,261.928z"/>
					<path style="fill:none;stroke:#263238;stroke-linecap:round;stroke-linejoin:round;stroke-miterlimit:10;" d="M441.492,259.774
						c0,0-0.466,2.143,0.083,3.435"/>
					<path style="fill:none;stroke:#263238;stroke-linecap:round;stroke-linejoin:round;stroke-miterlimit:10;" d="M443.7,267.931
						c0,0,0.496,0.956-1.228,1.688c-1.723,0.732-3.293,0.98-3.453-0.029"/>
					<path style="fill:none;stroke:#263238;stroke-linecap:round;stroke-linejoin:round;stroke-miterlimit:10;" d="M443.948,271.684
						c0,0-3.518,3.199-6.634,0.933"/>
					<path style="fill:none;stroke:#263238;stroke-linecap:round;stroke-linejoin:round;stroke-miterlimit:10;" d="M431.671,262.359
						c0,0,1.717-2.225,4.704-2.237"/>
					<path style="fill:none;stroke:#263238;stroke-linecap:round;stroke-linejoin:round;stroke-miterlimit:10;" d="M442.118,258.641
						c0,0,1.505-1.387,3.346-0.644"/>
					<path style="fill:#CCCCCC;stroke:#263238;stroke-linecap:round;stroke-linejoin:round;stroke-miterlimit:10;" d="
						M423.792,264.868c0,0-1.653-1.003-2.561,0.52c-0.909,1.523,0.225,4.332,1.582,4.922c1.358,0.59,3.937,0.183,3.937,0.183
						L423.792,264.868z"/>
				</g>
			</g>
		</g>
	</g>
	<g>
		<polygon style="fill:#263238;stroke:#263238;stroke-miterlimit:10;" points="123.435,145.86 124.783,216.858 199.826,212.814 		
			"/>
		
			<rect x="123.479" y="103.564" transform="matrix(0.9994 -0.0354 0.0354 0.9994 -5.5047 5.8773)" style="fill:#FFFFFF;stroke:#263238;stroke-miterlimit:10;" width="79.951" height="110.086"/>
		
			<rect x="128.139" y="108.369" transform="matrix(0.9994 -0.0354 0.0354 0.9994 -5.4893 5.8765)" style="fill:#FFFFFF;stroke:#263238;stroke-miterlimit:10;" width="70.602" height="99.607"/>
		<g>
			<polygon style="fill:#F13434;stroke:#263238;stroke-linecap:round;stroke-linejoin:round;stroke-miterlimit:10;" points="
				129.045,182.371 129.95,207.949 135.402,178.993 			"/>
			<polygon style="fill:#F13434;stroke:#263238;stroke-linecap:round;stroke-linejoin:round;stroke-miterlimit:10;" points="
				198.908,176.383 174.162,168.106 147.739,173.15 129.065,182.924 129.989,209.045 199.976,206.57 			"/>
			<path style="fill:#263238;stroke:#263238;stroke-linecap:round;stroke-linejoin:round;stroke-miterlimit:10;" d="
				M157.585,188.589c0.337,0.376-0.042,8.419-0.738,19.506l6.595-0.233l-1.529-19.209l7.384-5.235l-9.146-7.895l-8.35,8.514
				C151.801,184.036,156.459,187.332,157.585,188.589z"/>
			<path style="fill:#D1D1D1;stroke:#263238;stroke-linecap:round;stroke-linejoin:round;stroke-miterlimit:10;" d="
				M147.877,158.669l0.643,10.994l11.841,14.276l14.69-17.943l-1.532-7.713c0,0-6.509,5.898-10.058,6.443
				C159.911,165.272,147.877,158.669,147.877,158.669z"/>
			<polygon style="fill:#263238;stroke:#263238;stroke-miterlimit:10;" points="163.46,164.726 148.52,169.663 148.464,156.96 			
				"/>
			<g>
				<path style="fill:#D1D1D1;stroke:#263238;stroke-linecap:round;stroke-linejoin:round;stroke-miterlimit:10;" d="
					M150.263,116.281c0,0-5.752,2.146-7.486,8.035c-1.734,5.889-0.067,16.406-0.067,16.406s2.928,15.653,5.167,17.948
					c2.24,2.295,9.998,8.064,13.663,7.934c3.664-0.13,12.482-7.132,13.669-10.196c1.187-3.064,1.586-22.287,0.102-27.631
					c-1.484-5.343-3.853-11.303-10.62-13.438C157.924,113.204,150.263,116.281,150.263,116.281z"/>
				<path style="fill:#263238;" d="M154.052,138.378c0.032,0.915-0.446,1.675-1.068,1.697s-1.153-0.702-1.185-1.617
					c-0.032-0.915,0.446-1.675,1.068-1.697C153.489,136.739,154.02,137.463,154.052,138.378z"/>
				<path style="fill:#263238;" d="M168.567,137.864c0.032,0.915-0.446,1.675-1.068,1.697c-0.622,0.022-1.153-0.702-1.185-1.617
					c-0.032-0.915,0.446-1.675,1.068-1.697C168.004,136.225,168.534,136.949,168.567,137.864z"/>
				<path style="fill:none;stroke:#263238;stroke-miterlimit:10;" d="M156.882,147.103c0,0,4.293,1.308,5.349,1.138
					c1.056-0.17,3.134-1.438,3.523-1.717"/>
				<path style="fill:none;stroke:#263238;stroke-miterlimit:10;" d="M153.969,151.055c0.161,1.396,10.421,3.941,14.837-0.79"/>
				<path style="fill:none;stroke:#263238;stroke-miterlimit:10;" d="M148.265,136.127c0,0,2.69-2.75,8.039-1.612"/>
				<path style="fill:none;stroke:#263238;stroke-miterlimit:10;" d="M164.376,133.832c0,0,2.695-2.617,7.158-0.253"/>
				<path style="fill:#D1D1D1;stroke:#263238;stroke-miterlimit:10;" d="M142.709,140.722c0,0-1.839-3.537-3.213-1.099
					c-1.374,2.438-0.433,6.519,1.521,9.236c1.954,2.718,3.985,3.841,3.985,3.841L142.709,140.722z"/>
				<path style="fill:#D1D1D1;stroke:#263238;stroke-miterlimit:10;" d="M176.319,137.524c0,0,1.762-2.717,2.656,0.039
					c0.894,2.756-2.646,11.508-2.646,11.508L176.319,137.524z"/>
				<path style="fill:#263238;stroke:#263238;stroke-miterlimit:10;" d="M173.993,128.05c0.43,3.084,1.516,5.516,2.072,6.56
					c-0.154-2.462-0.399-4.552-0.755-5.833c-1.484-5.343-3.853-11.303-10.62-13.438c-6.766-2.135-14.428,0.942-14.428,0.942
					s-5.752,2.146-7.486,8.035c-1.352,4.591-0.638,11.974-0.257,15.015c0.341-1.087,1.447-4.695,1.411-5.705
					c-0.042-1.193-0.035-8.493-0.035-8.493s-0.373-3.04,10.066-4.338c10.439-1.298,17.288,0.981,17.288,0.981
					S173.459,124.22,173.993,128.05z"/>
			</g>
			<polygon style="fill:#F13434;stroke:#263238;stroke-linecap:round;stroke-linejoin:round;stroke-miterlimit:10;" points="
				148.52,169.663 143.249,174.606 147.655,195.213 157.318,181.029 			"/>
			<polygon style="fill:#F13434;stroke:#263238;stroke-linecap:round;stroke-linejoin:round;stroke-miterlimit:10;" points="
				163.551,179.944 173.453,190.84 180.696,169.389 175.051,165.996 			"/>
			<polygon style="fill:#263238;stroke:#263238;stroke-miterlimit:10;" points="198.865,175.165 183.265,168.649 181.289,173.91 
				199.051,180.429 			"/>
			<polygon style="fill:#263238;stroke:#263238;stroke-miterlimit:10;" points="128.964,180.07 129.077,183.263 141.597,176.827 
				142.764,173.11 			"/>
			<path style="fill:#FFFFFF;stroke:#263238;stroke-linecap:round;stroke-linejoin:round;stroke-miterlimit:10;" d="
				M185.018,207.099l3.458-0.122c1.575-1.929,3.798-5.301,4.461-9.581l-6.373-3.978l-7.26,3.736c0,0,0.527,2.59,1.777,5.155
				C181.806,203.798,183.621,205.734,185.018,207.099z"/>
		</g>
	</g>
	<g>
		<g>
			<g>
				<g>
					<path style="fill:#263238;" d="M341.485,337.625l-1.138,54.667c0,0,32.247-2.143,37.179-2.143c4.932,0,18.59,1.224,18.59,1.224
						l0.19-9.975L341.485,337.625z"/>
					<rect x="341.578" y="321.605" style="fill:#FFFFFF;stroke:#263238;stroke-miterlimit:10;" width="56.438" height="67.03"/>
					<rect x="344.711" y="324.743" style="fill:#B5B5B5;stroke:#263238;stroke-miterlimit:10;" width="50.173" height="60.625"/>
				</g>
			</g>
			<g id="y2rlJ5_00000003801783783383761070000002278926954361704591_">
				<g>
					<path style="fill:#263238;stroke:#263238;stroke-linecap:round;stroke-linejoin:round;stroke-miterlimit:10;" d="
						M394.901,384.389V373.92c-0.043-0.029-0.086-0.059-0.129-0.087c-1.12-0.728-2.267-1.415-3.41-2.107
						c-0.557-0.337-1.125-0.656-1.702-0.956c-0.337-0.175-0.696-0.311-1.055-0.437c-1.176-0.413-2.356-0.81-3.533-1.22
						c-0.261-0.091-0.521-0.192-0.768-0.314c-1.479-0.728-2.94-1.495-4.437-2.185c-0.872-0.402-1.298-1.067-1.474-1.954
						c-0.191-0.964-0.377-1.929-0.558-2.895c-0.043-0.23-0.078-0.466-0.077-0.699c0-0.108,0.098-0.215,0.145-0.324
						c0.12-0.28,0.254-0.557,0.349-0.845c0.058-0.175,0.046-0.372,0.08-0.556c0.072-0.387,0.144-0.775,0.235-1.158
						c0.13-0.549,0.25-1.096,0.258-1.666c0.004-0.252,0.064-0.503,0.104-0.789c0.496,0.042,0.923-0.086,1.289-0.399
						c0.411-0.351,0.712-0.755,0.758-1.325c0.024-0.294,0.164-0.579,0.189-0.874c0.044-0.51,0.073-1.025,0.047-1.535
						c-0.04-0.811-0.151-1.618-0.189-2.429c-0.014-0.291,0.085-0.589,0.151-0.88c0.097-0.427,0.219-0.849,0.316-1.277
						c0.12-0.531-0.239-0.928-0.787-0.885c-0.288,0.023-0.395-0.072-0.36-0.351c0.068-0.545,0.154-1.086,0.181-1.638
						c0.013-0.278,0.178-0.548,0.269-0.823c0.365-1.111,0.391-2.247,0.248-3.395c-0.09-0.721-0.139-1.451-0.288-2.159
						c-0.223-1.064-0.806-1.972-1.383-2.876c-0.165-0.259-0.27-0.56-0.449-0.807c-0.386-0.532-0.797-1.046-1.21-1.559
						c-0.528-0.656-1.061-1.307-1.603-1.95c-0.318-0.377-0.639-0.758-0.998-1.094c-0.442-0.414-0.987-0.663-1.554-0.878
						c-0.299-0.114-0.559-0.332-0.833-0.509c-0.123-0.079-0.227-0.193-0.356-0.257c-0.382-0.188-0.797-0.321-1.153-0.548
						c-0.377-0.241-0.776-0.2-1.169-0.196c-0.321,0.003-0.613,0.016-0.93-0.122c-0.5-0.217-1.028-0.148-1.526,0.073
						c-0.191,0.085-0.344,0.122-0.564,0.011c-0.177-0.089-0.453-0.079-0.648-0.01c-0.28,0.098-0.562,0.252-0.78,0.451
						c-0.288,0.263-0.637,0.181-0.954,0.266c-0.321,0.085-0.643,0.175-0.97,0.22c-0.177,0.024-0.37-0.078-0.549-0.06
						c-0.404,0.042-0.807,0.104-1.201,0.199c-0.131,0.031-0.23,0.189-0.347,0.284c-0.113,0.092-0.22,0.227-0.348,0.256
						c-0.373,0.083-0.631,0.291-0.872,0.579c-0.313,0.375-0.656,0.728-1.183,0.821c-0.169,0.03-0.356,0.121-0.474,0.243
						c-0.687,0.711-1.406,1.401-2.012,2.177c-0.376,0.482-0.595,1.096-0.841,1.669c-0.236,0.549-0.439,1.096-0.863,1.553
						c-0.441,0.474-0.76,1.032-0.867,1.707c-0.096,0.605-0.308,1.192-0.441,1.793c-0.104,0.473-0.164,0.957-0.246,1.435
						c-0.014,0.083-0.029,0.171-0.065,0.245c-0.346,0.7-0.347,1.424-0.133,2.155c0.215,0.732,0.443,1.461,0.684,2.185
						c0.12,0.359,0.189,0.916,0.108,1.26c0.227-0.09,0.329-0.019,0.294,0.217c-0.02,0.137-0.086,0.274,0.132,0.311
						c0.022,0.004,0.037,0.112,0.038,0.172c0.004,0.265,0.002,0.53,0.002,0.814c-0.055,0.002-0.118,0.016-0.177,0.006
						c-0.677-0.122-1.105,0.206-1.065,0.894c0.022,0.375,0.15,0.753,0.284,1.109c0.557,1.474,1.047,2.963,1.253,4.535
						c0.062,0.473,0.17,0.943,0.282,1.408c0.156,0.651,0.998,1.217,1.675,1.145c0.074-0.008,0.148-0.009,0.266-0.016
						c0.053,0.237,0.09,0.477,0.163,0.706c0.086,0.269,0.213,0.525,0.302,0.793c0.036,0.108,0.001,0.239,0.031,0.351
						c0.046,0.173,0.12,0.339,0.182,0.508c0.111,0.306,0.214,0.615,0.335,0.917c0.099,0.249,0.221,0.488,0.329,0.733
						c0.053,0.121,0.108,0.243,0.145,0.37c0.129,0.444,0.27,0.882,0.608,1.218c0.226,0.225,0.311,0.49,0.316,0.806
						c0.017,0.98,0.056,1.959,0.076,2.939c0.01,0.509-0.159,0.915-0.609,1.229c-1.086,0.758-2.256,1.356-3.465,1.88
						c-0.256,0.111-0.567,0.089-0.848,0.152c-0.809,0.18-1.495,0.6-2.163,1.079c-0.528,0.378-1.105,0.689-1.666,1.021
						c-1.546,0.915-3.01,1.944-4.427,3.047c-0.554,0.432-1.144,0.817-1.733,1.204v8.367H394.901z"/>
				</g>
			</g>
		</g>
		<g>
			<path style="fill:#FFFFFF;stroke:#263238;stroke-miterlimit:10;" d="M364.449,348.179c2.294-1.714,4.034-4.351,4.034-6.987
				c0-1.186-0.396-1.556-1.081-1.556c-0.659,0-1.055,0.422-1.055,1.186c0,0.58,0.132,1.002,0.343,1.477l-4.245,1.002
				c-0.316-0.923-0.475-1.688-0.475-2.689c0-3.19,1.978-4.983,5.563-4.983c3.612,0,5.616,1.925,5.616,5.353
				c0,3.059-1.477,5.906-4.403,8.042v2.584h-4.298V348.179z M364.317,352.872h4.588v4.43h-4.588V352.872z"/>
		</g>
	</g>
</g>
<g id="Map">
	<g>
		<g>
			<rect x="216.877" y="83.183" style="fill:#FFFFFF;stroke:#263238;stroke-miterlimit:10;" width="215.243" height="131.105"/>
			<path style="fill:#F13434;" d="M254.013,108.6l-23.81-21.8h17.96C250.273,91.82,252.483,98.91,254.013,108.6z"/>
			<path style="fill:#B5B5B5;" d="M302.273,86.8h-48.13c2.16,5.15,4.44,12.5,5.97,22.59c0.29,1.91,0.52,3.72,0.7,5.44l25.11,22.99
				l35.45-24.04L302.273,86.8z M285.173,130.34l-19.82-18.33c-0.75-11.59-5.24-20.57-5.24-20.57h37.03L285.173,130.34z
				 M300.503,95.18l9.73,13.09l-17.21,11.97L300.503,95.18z"/>
			<polygon style="fill:#B5B5B5;" points="361.163,86.8 327.883,109.36 311.923,86.8 			"/>
			<path style="fill:#B5B5B5;" d="M270.683,210.67h-49.54V106.73l33.58,33.77c-0.19,2.94-0.38,6.02-0.47,9.42l-23.68-24.07v77.79
				h34.7C267.053,206.35,268.903,208.69,270.683,210.67z"/>
			<path style="fill:#B5B5B5;" d="M358.243,165.84l-76.06,2.27l-21.81-21.93c-0.14,2.99-0.23,6.2-0.2,9.76l15.28,15.54v32.16h-4.2
				c1.78,2.71,3.63,5.05,5.41,7.03h87.83c1.49-7.02,3.79-16.31,7.08-25.99c0-0.01,0-0.01,0-0.01L358.243,165.84z M325.193,203.64
				h-44.88v-26.93h44.88V203.64z M360.173,203.64h-29.37v-26.93h29.37V203.64z"/>
			<path style="fill:#B5B5B5;" d="M389.983,210.67h-20.06c1.32-5.88,3.14-13.01,5.55-20.49L389.983,210.67z"/>
			<path style="fill:#B5B5B5;" d="M413.043,210.67h-13.49l-20.89-29.54c2.08-5.48,4.5-10.97,7.29-16.11l20.38-0.61
				C407.233,178.3,409.123,195.25,413.043,210.67z"/>
			<path style="fill:#B5B5B5;" d="M427.853,120.14v34.1l-16.04,0.68c-0.65-8.56-1-15.79-1.18-20.31
				C416.533,129.13,422.543,124.21,427.853,120.14z"/>
			<path style="fill:#B5B5B5;" d="M427.853,163.77v46.9h-7.9c-3.69-13.72-5.97-31.22-7.36-46.44L427.853,163.77z"/>
			<path style="fill:#F13434;" d="M427.853,86.8v27.08c-12.02,8.79-29.97,23.42-41.32,39.64c-0.58,0.83-1.15,1.69-1.71,2.55
				l-23.2,0.99l-28.2-39.86l44.87-30.4H427.853z"/>
			<path style="fill:#FFFFFF;" d="M427.853,113.88c-12.02,8.79-29.97,23.42-41.32,39.64c-0.58,0.83-1.15,1.69-1.71,2.55l-23.2,0.99
				l-28.2-39.86l44.87-30.4h-17.13l-33.28,22.56l-15.96-22.56h-9.65l19.1,26.98l-35.45,24.04l-25.11-22.99
				c-0.18-1.72-0.41-3.53-0.7-5.44c-1.53-10.09-3.81-17.44-5.97-22.59h-5.98c2.11,5.02,4.32,12.11,5.85,21.8l-23.81-21.8h-9.06
				v19.93l33.58,33.77c-0.19,2.94-0.38,6.02-0.47,9.42v0.01c-0.19,6.58-0.05,14.34,1,24.54c1.28,12.57,5.41,22.14,10.02,29.17
				c1.78,2.71,3.63,5.05,5.41,7.03h5.98c-1.78-1.98-3.63-4.32-5.41-7.03c-4.61-7.03-8.74-16.6-10.02-29.17
				c-0.74-7.26-1.03-13.28-1.06-18.53c-0.03-3.56,0.06-6.77,0.2-9.76l21.81,21.93l76.06-2.27l13.33,18.83c0,0,0,0,0,0.01
				c-3.29,9.68-5.59,18.97-7.08,25.99h5.43c1.32-5.88,3.14-13.01,5.55-20.49l14.51,20.49h9.57l-20.89-29.54
				c2.08-5.48,4.5-10.97,7.29-16.11l20.38-0.61c0.9,13.89,2.79,30.84,6.71,46.26h6.91c-3.69-13.72-5.97-31.22-7.36-46.44l15.26-0.46
				v-9.53l-16.04,0.68c-0.65-8.56-1-15.79-1.18-20.31c5.9-5.48,11.91-10.4,17.22-14.47V113.88z M312.853,159.13l-18.7-15.33
				l32.77-22.2l25.38,35.85L312.853,159.13z M374.863,175.77l-7.22-10.21l11.98-0.35C377.893,168.64,376.303,172.19,374.863,175.77z
				 M391.653,155.78c4.01-5.68,8.83-11.16,13.9-16.26c-0.02,3.43,0.02,8.91,0.3,15.66L391.653,155.78z"/>
			<path style="fill:#F13434;" d="M405.853,155.18l-14.2,0.6c4.01-5.68,8.83-11.16,13.9-16.26
				C405.533,142.95,405.573,148.43,405.853,155.18z"/>
			<path style="fill:#F13434;" d="M379.623,165.21c-1.73,3.43-3.32,6.98-4.76,10.56l-7.22-10.21L379.623,165.21z"/>
			<path style="fill:#B5B5B5;" d="M326.923,121.6l-32.77,22.2l18.7,15.33l39.45-1.68L326.923,121.6z M307.613,144.55l17.21-11.22
				l15.33,16.45l-22.81,3.74L307.613,144.55z"/>
			<circle style="fill:#FFFFFF;" cx="384.099" cy="120.425" r="13.651"/>
			<rect x="280.313" y="176.71" style="fill:#F13434;" width="44.88" height="26.93"/>
			<path style="fill:#F13434;" d="M265.273,203.64h-34.7v-77.79l23.68,24.07v0.01c-0.19,6.58-0.05,14.34,1,24.54
				C256.533,187.04,260.663,196.61,265.273,203.64z"/>
			<path style="fill:#F13434;" d="M275.453,171.48v32.16h-4.2c-4.61-7.03-8.74-16.6-10.02-29.17c-0.74-7.26-1.03-13.28-1.06-18.53
				L275.453,171.48z"/>
			<rect x="330.803" y="176.71" style="fill:#F13434;" width="29.37" height="26.93"/>
			<polygon style="fill:#B5B5B5;" points="427.853,86.8 427.853,107.66 410.093,119.12 388.403,95.55 400.003,86.8 			"/>
			<polygon style="fill:#F13434;" points="340.153,149.78 317.343,153.52 307.613,144.55 324.823,133.33 			"/>
			<path style="fill:#F13434;" d="M297.143,91.44l-11.97,38.9l-19.82-18.33c-0.75-11.59-5.24-20.57-5.24-20.57H297.143z"/>
			<polygon style="fill:#F13434;" points="310.233,108.27 293.023,120.24 300.503,95.18 			"/>
			<g>
				<path style="fill:#F13434;" d="M271.511,144.19c-0.991,0-1.984-0.366-2.758-1.104l-42.01-40.01
					c-1.6-1.524-1.661-4.056-0.138-5.655c1.524-1.6,4.056-1.661,5.655-0.138l42.01,40.01c1.6,1.523,1.661,4.056,0.138,5.655
					C273.622,143.774,272.568,144.19,271.511,144.19z"/>
			</g>
		</g>
		<path style="fill:#263238;stroke:#263238;stroke-miterlimit:10;" d="M343.695,98.514c-5.8,0-10.502,4.702-10.502,10.502
			s10.502,16.17,10.502,16.17s10.502-10.37,10.502-16.17S349.495,98.514,343.695,98.514z M343.695,112.76
			c-2.067,0-3.743-1.676-3.743-3.743c0-2.067,1.676-3.743,3.743-3.743c2.067,0,3.743,1.676,3.743,3.743
			C347.438,111.084,345.762,112.76,343.695,112.76z"/>
		<path style="fill:#263238;stroke:#263238;stroke-miterlimit:10;" d="M255.12,175.198c-4.205,0-7.614,3.409-7.614,7.614
			c0,4.205,7.614,11.724,7.614,11.724s7.614-7.518,7.614-11.724C262.735,178.607,259.326,175.198,255.12,175.198z M255.12,185.526
			c-1.499,0-2.714-1.215-2.714-2.714s1.215-2.714,2.714-2.714c1.499,0,2.714,1.215,2.714,2.714S256.619,185.526,255.12,185.526z"/>
		<g>
			<g>
				<path style="fill:#263238;" d="M256.507,172.53c-0.497,0-0.927-0.37-0.991-0.875c0,0-0.069-0.549-0.168-1.51
					c-0.057-0.55,0.343-1.041,0.892-1.098c0.547-0.048,1.041,0.343,1.097,0.893c0.096,0.928,0.162,1.459,0.163,1.465
					c0.069,0.548-0.319,1.048-0.868,1.117C256.591,172.527,256.549,172.53,256.507,172.53z"/>
			</g>
			<g>
				<path style="fill:#263238;" d="M256.09,168.322c-0.515,0-0.952-0.395-0.996-0.917c-0.069-0.828-0.138-1.752-0.202-2.748
					c-0.035-0.552,0.383-1.027,0.934-1.062c0.547-0.018,1.026,0.383,1.062,0.934c0.063,0.982,0.131,1.895,0.199,2.711
					c0.046,0.551-0.363,1.034-0.914,1.079C256.145,168.321,256.117,168.322,256.09,168.322z M255.739,162.859
					c-0.531,0-0.974-0.419-0.998-0.955c-0.04-0.889-0.072-1.812-0.094-2.758c-0.013-0.552,0.424-1.01,0.977-1.023
					c0.549-0.024,1.01,0.424,1.023,0.978c0.021,0.93,0.054,1.838,0.093,2.713c0.025,0.552-0.402,1.02-0.954,1.044
					C255.77,162.859,255.755,162.859,255.739,162.859z M255.615,157.387c-0.001,0-0.001,0-0.001,0
					c-0.552-0.001-0.999-0.449-0.999-1.001c0.001-0.916,0.014-1.841,0.042-2.766c0.017-0.551,0.488-0.952,1.029-0.97
					c0.552,0.017,0.986,0.477,0.97,1.03c-0.027,0.905-0.04,1.811-0.041,2.707C256.615,156.94,256.167,157.387,255.615,157.387z
					 M255.784,151.916c-0.022,0-0.044-0.001-0.066-0.002c-0.551-0.036-0.969-0.512-0.933-1.063c0.061-0.937,0.14-1.863,0.24-2.771
					c0.061-0.549,0.568-0.939,1.104-0.885c0.549,0.061,0.945,0.555,0.884,1.104c-0.097,0.878-0.173,1.775-0.232,2.683
					C256.747,151.51,256.307,151.916,255.784,151.916z M256.399,146.478c-0.056,0-0.113-0.005-0.171-0.015
					c-0.545-0.094-0.909-0.611-0.816-1.155c0.169-0.984,0.369-1.913,0.593-2.762c0.141-0.533,0.688-0.852,1.222-0.711
					c0.534,0.141,0.852,0.688,0.711,1.223c-0.209,0.791-0.396,1.663-0.556,2.59C257.299,146.135,256.877,146.478,256.399,146.478z"
					/>
			</g>
			<g>
				<path style="fill:#263238;" d="M257.845,141.2c-0.13,0-0.262-0.025-0.39-0.079c-0.509-0.216-0.746-0.803-0.531-1.311
					c0.222-0.523,0.464-1.013,0.719-1.453c0.153-0.266,0.419-0.445,0.722-0.489c0.304-0.051,0.609,0.053,0.832,0.264l1.088,1.032
					c0.4,0.38,0.417,1.014,0.037,1.414c-0.38,0.4-1.013,0.417-1.414,0.037l-0.108-0.104c-0.011,0.026-0.022,0.053-0.034,0.08
					C258.605,140.971,258.234,141.2,257.845,141.2z"/>
			</g>
			<g>
				<path style="fill:#263238;" d="M281.26,161.441c-0.248,0-0.495-0.091-0.689-0.274l-2.167-2.056
					c-0.4-0.38-0.417-1.014-0.037-1.414c0.381-0.401,1.013-0.417,1.414-0.037l2.167,2.056c0.4,0.38,0.417,1.014,0.037,1.414
					C281.789,161.337,281.525,161.441,281.26,161.441z M276.928,157.331c-0.248,0-0.495-0.091-0.688-0.274l-2.167-2.056
					c-0.4-0.38-0.417-1.014-0.037-1.414c0.38-0.4,1.013-0.417,1.414-0.037l2.167,2.056c0.4,0.38,0.417,1.014,0.037,1.414
					C277.457,157.226,277.193,157.331,276.928,157.331z M272.595,153.221c-0.247,0-0.495-0.091-0.688-0.274l-2.166-2.056
					c-0.4-0.381-0.417-1.014-0.037-1.414c0.381-0.4,1.014-0.417,1.414-0.037l2.166,2.056c0.4,0.381,0.417,1.014,0.037,1.414
					C273.124,153.116,272.859,153.221,272.595,153.221z M268.262,149.11c-0.247,0-0.495-0.091-0.688-0.274l-2.167-2.056
					c-0.4-0.38-0.417-1.014-0.037-1.414c0.381-0.4,1.013-0.417,1.414-0.037l2.167,2.056c0.4,0.38,0.417,1.014,0.037,1.414
					C268.791,149.006,268.527,149.11,268.262,149.11z M263.93,145c-0.247,0-0.495-0.091-0.689-0.274l-2.167-2.056
					c-0.4-0.38-0.417-1.014-0.037-1.414c0.38-0.401,1.013-0.417,1.414-0.037l2.166,2.056c0.4,0.38,0.417,1.014,0.037,1.414
					C264.459,144.895,264.194,145,263.93,145z"/>
			</g>
			<g>
				<path style="fill:#263238;" d="M284.515,164.528c-0.256,0-0.502-0.098-0.688-0.274l-1.088-1.032
					c-0.401-0.38-0.418-1.013-0.038-1.414c0.38-0.399,1.014-0.417,1.414-0.037l0.788,0.747l1.086-0.028
					c0.54,0.011,1.011,0.422,1.025,0.974c0.015,0.553-0.421,1.012-0.974,1.026l-1.499,0.039
					C284.532,164.528,284.524,164.528,284.515,164.528z"/>
			</g>
			<g>
				<path style="fill:#263238;" d="M288.908,164.412c-0.54,0-0.985-0.431-0.999-0.974c-0.015-0.552,0.421-1.012,0.973-1.026
					l2.894-0.077c0.577-0.019,1.012,0.422,1.026,0.974c0.015,0.552-0.421,1.012-0.973,1.026l-2.894,0.077
					C288.926,164.412,288.917,164.412,288.908,164.412z M294.696,164.259c-0.54,0-0.985-0.431-0.999-0.974
					c-0.015-0.552,0.421-1.012,0.973-1.026l2.894-0.077c0.582,0.013,1.012,0.422,1.026,0.974c0.015,0.552-0.421,1.012-0.973,1.026
					l-2.894,0.077C294.714,164.259,294.705,164.259,294.696,164.259z M300.484,164.104c-0.54,0-0.985-0.431-0.999-0.974
					c-0.015-0.552,0.421-1.012,0.973-1.026l2.894-0.076c0.525-0.017,1.012,0.422,1.026,0.974c0.015,0.552-0.421,1.012-0.973,1.026
					l-2.894,0.076C300.502,164.104,300.493,164.104,300.484,164.104z M306.272,163.951c-0.54,0-0.985-0.431-0.999-0.974
					c-0.015-0.552,0.421-1.012,0.973-1.026l2.894-0.077c0.561,0.016,1.012,0.422,1.026,0.974c0.015,0.552-0.421,1.012-0.973,1.026
					l-2.894,0.077C306.29,163.951,306.281,163.951,306.272,163.951z M312.06,163.798c-0.54,0-0.985-0.431-0.999-0.974
					c-0.015-0.552,0.421-1.012,0.973-1.026l2.894-0.077c0.567-0.014,1.012,0.422,1.026,0.974c0.015,0.552-0.421,1.012-0.973,1.026
					l-2.894,0.077C312.078,163.798,312.069,163.798,312.06,163.798z M317.848,163.643c-0.54,0-0.985-0.431-0.999-0.974
					c-0.015-0.552,0.421-1.012,0.973-1.026l2.894-0.076c0.541,0.018,1.011,0.421,1.026,0.974c0.015,0.552-0.421,1.012-0.973,1.026
					l-2.894,0.076C317.866,163.643,317.857,163.643,317.848,163.643z M323.636,163.49c-0.54,0-0.985-0.431-0.999-0.974
					c-0.015-0.552,0.421-1.012,0.973-1.026l2.895-0.077c0.577-0.011,1.012,0.422,1.026,0.974c0.015,0.552-0.421,1.012-0.973,1.026
					l-2.895,0.077C323.654,163.49,323.645,163.49,323.636,163.49z M329.425,163.336c-0.54,0-0.985-0.431-0.999-0.974
					c-0.015-0.552,0.421-1.012,0.973-1.026l2.894-0.076c0.551,0.021,1.011,0.421,1.026,0.974c0.015,0.552-0.421,1.012-0.973,1.026
					l-2.894,0.076C329.443,163.336,329.434,163.336,329.425,163.336z M335.213,163.182c-0.54,0-0.985-0.431-0.999-0.974
					c-0.015-0.552,0.421-1.012,0.973-1.026l2.894-0.077c0.556-0.009,1.012,0.422,1.026,0.974c0.015,0.552-0.421,1.012-0.973,1.026
					l-2.894,0.077C335.231,163.182,335.222,163.182,335.213,163.182z M341.001,163.029c-0.54,0-0.985-0.431-0.999-0.974
					c-0.015-0.552,0.421-1.012,0.973-1.026l2.894-0.077c0.561-0.038,1.012,0.421,1.026,0.974c0.015,0.552-0.421,1.012-0.973,1.026
					l-2.894,0.077C341.019,163.029,341.01,163.029,341.001,163.029z M346.789,162.875c-0.54,0-0.985-0.431-0.999-0.974
					c-0.015-0.552,0.421-1.012,0.973-1.026l2.894-0.076c0.535-0.007,1.011,0.422,1.026,0.974c0.015,0.552-0.421,1.012-0.973,1.026
					l-2.894,0.076C346.807,162.875,346.798,162.875,346.789,162.875z M352.577,162.721c-0.54,0-0.985-0.431-0.999-0.974
					c-0.015-0.552,0.421-1.012,0.973-1.026l2.894-0.077c0.571-0.035,1.012,0.421,1.026,0.974c0.015,0.552-0.421,1.012-0.973,1.026
					l-2.894,0.077C352.595,162.721,352.586,162.721,352.577,162.721z"/>
			</g>
			<g>
				<path style="fill:#263238;" d="M358.365,162.568c-0.54,0-0.985-0.431-0.999-0.974c-0.012-0.446,0.271-0.832,0.672-0.972
					c-0.133-0.402,0.003-0.861,0.366-1.123c0.449-0.321,1.074-0.22,1.396,0.227l0.877,1.217c0.217,0.301,0.25,0.696,0.085,1.028
					c-0.164,0.332-0.499,0.547-0.869,0.557l-1.499,0.04C358.383,162.568,358.374,162.568,358.365,162.568z"/>
			</g>
			<g>
				<path style="fill:#263238;" d="M357.171,158.787c-0.311,0-0.617-0.145-0.812-0.415l-1.819-2.524
					c-0.323-0.448-0.221-1.073,0.227-1.396c0.45-0.321,1.073-0.22,1.396,0.227l1.819,2.524c0.323,0.448,0.221,1.073-0.227,1.396
					C357.577,158.725,357.373,158.787,357.171,158.787z M353.533,153.739c-0.311,0-0.617-0.145-0.812-0.415l-1.819-2.524
					c-0.323-0.448-0.221-1.073,0.227-1.396c0.449-0.321,1.073-0.22,1.396,0.227l1.819,2.524c0.323,0.448,0.221,1.073-0.227,1.396
					C353.94,153.678,353.735,153.739,353.533,153.739z M349.895,148.69c-0.31,0-0.617-0.145-0.812-0.415l-1.819-2.523
					c-0.323-0.448-0.222-1.073,0.226-1.396c0.45-0.321,1.074-0.22,1.396,0.227l1.819,2.523c0.323,0.448,0.222,1.073-0.226,1.396
					C350.302,148.629,350.098,148.69,349.895,148.69z M346.257,143.642c-0.31,0-0.617-0.145-0.812-0.415l-1.819-2.525
					c-0.323-0.448-0.221-1.073,0.227-1.396c0.449-0.321,1.073-0.22,1.396,0.227l1.819,2.524c0.323,0.448,0.221,1.073-0.227,1.396
					C346.664,143.581,346.46,143.642,346.257,143.642z M342.62,138.594c-0.311,0-0.617-0.145-0.812-0.415l-1.819-2.524
					c-0.323-0.448-0.221-1.073,0.227-1.396c0.449-0.321,1.073-0.22,1.396,0.227l1.819,2.524c0.323,0.448,0.221,1.073-0.227,1.396
					C343.026,138.533,342.822,138.594,342.62,138.594z M338.982,133.546c-0.311,0-0.617-0.145-0.812-0.415l-1.819-2.524
					c-0.323-0.448-0.222-1.073,0.226-1.396c0.45-0.321,1.074-0.22,1.396,0.227l1.819,2.523c0.323,0.448,0.222,1.073-0.226,1.396
					C339.389,133.484,339.185,133.546,338.982,133.546z M335.344,128.498c-0.311,0-0.617-0.145-0.812-0.415l-1.819-2.524
					c-0.323-0.448-0.221-1.073,0.227-1.396c0.449-0.321,1.074-0.22,1.396,0.227l1.819,2.524c0.323,0.448,0.221,1.073-0.227,1.396
					C335.751,128.436,335.547,128.498,335.344,128.498z M331.707,123.45c-0.311,0-0.617-0.145-0.812-0.415l-1.819-2.524
					c-0.323-0.448-0.221-1.073,0.227-1.396c0.45-0.321,1.073-0.22,1.396,0.227l1.819,2.524c0.323,0.448,0.221,1.073-0.227,1.396
					C332.113,123.388,331.909,123.45,331.707,123.45z"/>
			</g>
			<g>
				<path style="fill:#263238;" d="M328.069,118.401c-0.311,0-0.617-0.145-0.812-0.415l-0.877-1.217
					c-0.161-0.224-0.223-0.503-0.171-0.773c0.052-0.271,0.213-0.507,0.445-0.655l1.266-0.806c0.466-0.295,1.083-0.16,1.381,0.307
					c0.296,0.466,0.159,1.084-0.307,1.381l-0.372,0.236l0.257,0.357c0.323,0.448,0.222,1.073-0.227,1.396
					C328.476,118.34,328.271,118.401,328.069,118.401z"/>
			</g>
			<g>
				<path style="fill:#263238;" d="M329.594,115.656c-0.331,0-0.654-0.163-0.845-0.463c-0.296-0.466-0.159-1.084,0.307-1.381
					l1.266-0.806c0.466-0.295,1.084-0.159,1.381,0.307c0.296,0.466,0.159,1.084-0.307,1.381l-1.266,0.806
					C329.964,115.605,329.777,115.656,329.594,115.656z"/>
			</g>
		</g>
	</g>
</g>
<g id="Letter">
	<g>
		<g>
			<path style="fill:#263238;stroke:#263238;stroke-miterlimit:10;" d="M412.77,214.429l0.286,5.714c0,0,52.566-1.714,58.566-1.143
				c5.999,0.571,31.14,3.428,31.14,3.428l-2.857-7.428L412.77,214.429z"/>
			<polygon style="fill:#FFFFFF;stroke:#263238;stroke-miterlimit:10;" points="502.321,122.511 409.397,121.521 411.334,154.901 
				408.634,186.975 409.712,217.234 505.317,219.061 503.207,191.521 502.61,152.335 			"/>
			<line style="fill:none;stroke:#263238;stroke-miterlimit:10;" x1="415.716" y1="153.527" x2="498.873" y2="155.243"/>
			<line style="fill:none;stroke:#263238;stroke-miterlimit:10;" x1="412.811" y1="189.313" x2="499.282" y2="191.496"/>
		</g>
		<path style="fill:none;stroke:#263238;stroke-miterlimit:10;" d="M423.943,145.715c0,0,3.828-6.38,4.083-4.339
			c0.255,2.042,0,4.339,1.531,2.807c1.531-1.531,5.359-3.828,4.083-1.531c-1.276,2.297,0.255,3.318,1.021,2.297
			c0.766-1.021,2.042-1.531,2.042-1.531l2.297,0.51l1.786-0.255h5.104l2.042,0.255"/>
		<path style="fill:none;stroke:#263238;stroke-miterlimit:10;" d="M459.162,204.413c0,0,3.828-6.38,4.083-4.339
			c0.255,2.042,0,4.339,1.531,2.807c1.531-1.531,5.359-3.828,4.083-1.531c-1.276,2.297,0.255,3.318,1.021,2.297
			c0.766-1.021,2.042-1.531,2.042-1.531l2.297,0.51l1.786-0.255h5.104l2.042,0.255"/>
		<path style="fill:none;stroke:#263238;stroke-miterlimit:10;" d="M452.016,144.439c0,0,1.531,0.51,3.573-0.51
			c2.042-1.021,4.849-3.062,5.615-2.042c0.766,1.021-3.573,1.531,0.766,1.021c4.339-0.51,5.87-1.276,5.87,0.51
			s0.255,5.359-2.042,4.849c-2.297-0.51,3.573-5.87,5.87-5.104c2.297,0.766,4.849,3.318,4.849,3.318s3.318-3.318,4.339-2.297
			c1.021,1.021,1.021-0.51,3.062-0.255c2.042,0.255,3.828-0.51,3.828-0.51l2.807,0.51c0,0,2.297,2.297,0,3.318
			c-2.297,1.021,0-5.87,2.807-5.615"/>
		<path style="fill:none;stroke:#263238;stroke-miterlimit:10;" d="M415.011,201.606c0,0,1.531,0.51,3.573-0.51
			c2.042-1.021,4.849-3.063,5.615-2.042c0.766,1.021-3.573,1.531,0.766,1.021c4.339-0.51,5.87-1.276,5.87,0.51
			c0,1.786,0.255,5.359-2.042,4.849c-2.297-0.51,3.573-5.87,5.87-5.104c2.297,0.766,4.849,3.318,4.849,3.318
			s3.318-3.318,4.339-2.297c1.021,1.021,1.021-0.51,3.062-0.255c2.042,0.255,3.828-0.51,3.828-0.51l2.807,0.51
			c0,0,2.297,2.297,0,3.318c-2.297,1.021,0-5.87,2.807-5.615"/>
		<path style="fill:none;stroke:#263238;stroke-miterlimit:10;" d="M415.266,167.408l6.125-1.021l3.063,0.255
			c0,0,5.87,1.276,3.828,3.062c-2.042,1.786-7.656,2.807-4.083-0.255c3.573-3.062,9.953-6.891,12.505-5.104s2.042,4.849,2.042,4.849
			l-0.51,2.297l4.083-0.766c3.062,0.766,5.359-0.766,6.125,0l5.104,0.255c0,0,3.573,2.807,5.87-0.51
			c2.297-3.318,6.125-15.057,2.552-9.188c-3.573,5.87-0.766,11.995,1.786,10.719c2.552-1.276,2.042-2.042,3.828-2.042
			c1.786,0,3.062,0,3.062,0c3.062,1.021,5.104-0.51,5.104-0.51s-0.255-0.766,1.786,0.255c2.042,1.021,2.042,4.339,5.615,2.552
			c3.573-1.786,1.276-8.422,1.531-4.083c0.255,4.339,4.339,2.807,6.38,2.042c2.042-0.766,2.297-1.786,3.318-0.766"/>
		<path style="fill:none;stroke:#263238;stroke-miterlimit:10;" d="M416.287,183.996l3.828-3.062l5.615,2.297
			c0,0,1.276,1.786-1.021,1.786s-4.594-5.104,2.552-4.849c7.146,0.255,8.422,3.063,8.422,3.063s2.042,0.51,3.318,0.51
			c1.276,0,2.042,2.552,3.062,0c1.021-2.552,1.276-4.849-0.255-3.062c-1.531,1.786-1.021,3.318,4.083,2.807
			c5.104-0.51,8.422-1.786,8.422-1.786s3.828-0.255,4.083,1.531c0.255,1.786,8.422-2.042,7.656-0.51
			c-0.766,1.531,7.146-3.573,6.635-1.021c-0.51,2.552,5.104-3.318,4.594,0.51c-0.51,3.828-7.401,10.719-5.359,6.635
			c2.042-4.083,8.422-7.911,9.698-6.891c1.276,1.021,3.062,3.573,0.766,5.359c-2.297,1.786-0.766-5.104,3.828-6.125
			c4.594-1.021,7.656,1.276,7.656,1.276"/>
	</g>
</g>
<g id="Newspapers">
	<g>
		<path style="fill:#263238;" d="M589.327,286.431l-0.631,38.797c0,0-31.952-10.471-38.686-9.336
			c-6.734,1.135-58.458,4.733-58.458,4.733l-17.911,1.433l3.396-16.385L589.327,286.431z"/>
		<path style="fill:#FFFFFF;stroke:#263238;stroke-miterlimit:10;" d="M583.807,225.227c0,0-7.695-0.647-12.834-0.833
			c-5.139-0.186-24.334,2.058-29.119,2.252c-4.785,0.194-38.57-0.664-41.506-0.771c-2.937-0.107-20.136-2.201-20.136-2.201
			s-1.9,21.985-2.347,24.174c-0.447,2.189-0.839,23.126-0.932,25.695c-0.093,2.57-2.001,14.63-2.001,14.63l0.162,15.811
			l-0.873,13.936c0,0,36.814-1.605,43.775-0.985c6.961,0.62,32.016-1.044,32.016-1.044l18.942,4.73l19.822,0.719l2.202,0.08
			l-0.108-17.279c0,0-1.537-18.434-1.483-19.902c0.053-1.468,0.759-20.923,0.759-20.923l-0.321-11.406l-1.029-12.167l1.461-9.871
			l0.173-4.772L583.807,225.227z"/>
		<polygon style="fill:#263238;stroke:#263238;stroke-miterlimit:10;" points="523.919,275.033 483.217,275.033 483.992,254.488 
			525.082,254.488 		"/>
		<polygon style="fill:#263238;stroke:#263238;stroke-miterlimit:10;" points="582.214,233.577 581.001,246.766 517.208,247.438 
			485.369,245.944 486.175,233.844 543.423,234.054 		"/>
		<line style="fill:none;stroke:#263238;stroke-miterlimit:10;" x1="524.386" y1="282.617" x2="504.891" y2="283.012"/>
		<line style="fill:none;stroke:#263238;stroke-miterlimit:10;" x1="524.133" y1="289.591" x2="504.637" y2="289.987"/>
		<line style="fill:none;stroke:#263238;stroke-miterlimit:10;" x1="523.88" y1="296.566" x2="504.384" y2="296.961"/>
		<line style="fill:none;stroke:#263238;stroke-miterlimit:10;" x1="523.626" y1="303.54" x2="504.132" y2="303.936"/>
		<line style="fill:none;stroke:#263238;stroke-miterlimit:10;" x1="500.853" y1="282.866" x2="481.358" y2="283.261"/>
		<line style="fill:none;stroke:#263238;stroke-miterlimit:10;" x1="500.6" y1="289.84" x2="481.105" y2="290.236"/>
		<line style="fill:none;stroke:#263238;stroke-miterlimit:10;" x1="500.347" y1="296.815" x2="480.852" y2="297.21"/>
		<line style="fill:none;stroke:#263238;stroke-miterlimit:10;" x1="500.094" y1="303.789" x2="480.599" y2="304.185"/>
		<g>
			<polygon style="fill:#F13434;stroke:#263238;stroke-linecap:round;stroke-linejoin:round;stroke-miterlimit:10;" points="
				582.047,253.466 580.274,282.071 581.885,308.594 547.393,306.975 529.8,305.602 532.045,253.857 			"/>
			<polygon style="fill:#FFFFFF;stroke:#263238;stroke-miterlimit:10;" points="529.8,305.602 531.458,267.391 545.95,285.972 
				558.67,279.817 581.885,308.594 547.393,306.975 			"/>
			<path style="fill:#FFFFFF;stroke:#263238;stroke-miterlimit:10;" d="M562.453,266.722c-0.132,3.649,2.719,6.715,6.368,6.847
				c3.649,0.132,6.715-2.719,6.847-6.368c0.132-3.649-2.719-6.715-6.368-6.847C565.651,260.222,562.586,263.073,562.453,266.722z"/>
		</g>
	</g>
	<g>
		<path style="fill:#263238;" d="M270.372,256.945l0.631,38.797c0,0,31.952-10.471,38.686-9.336
			c6.734,1.135,44.269,5.236,44.269,5.236l29.019,2.523l-0.315-17.979L270.372,256.945z"/>
		<path style="fill:#FFFFFF;stroke:#263238;stroke-miterlimit:10;" d="M275.893,195.741c0,0,7.695-0.647,12.834-0.833
			s24.334,2.058,29.119,2.252c4.785,0.194,38.57-0.664,41.506-0.771c2.937-0.106,20.136-2.201,20.136-2.201s1.9,21.985,2.347,24.174
			c0.447,2.189,0.839,23.126,0.932,25.695c0.093,2.569,2.001,14.63,2.001,14.63l-0.162,15.811l0.873,13.936
			c0,0-36.814-1.605-43.775-0.985c-6.961,0.62-32.016-1.044-32.016-1.044l-18.941,4.73l-19.822,0.719l-2.203,0.08l0.108-17.279
			c0,0,1.537-18.434,1.483-19.902c-0.053-1.468-0.759-20.924-0.759-20.924l0.321-11.406l1.029-12.167l-1.461-9.871l-0.173-4.772
			L275.893,195.741z"/>
		<polygon style="fill:#263238;stroke:#263238;stroke-miterlimit:10;" points="288.34,204.479 289.553,217.667 342.492,217.952 
			362.314,217.233 361.508,205.133 316.277,204.568 		"/>
		<line style="fill:none;stroke:#263238;stroke-miterlimit:10;" x1="334.302" y1="225.233" x2="353.797" y2="225.628"/>
		<line style="fill:none;stroke:#263238;stroke-miterlimit:10;" x1="334.555" y1="232.207" x2="354.05" y2="232.603"/>
		<line style="fill:none;stroke:#263238;stroke-miterlimit:10;" x1="334.808" y1="239.182" x2="354.303" y2="239.577"/>
		<line style="fill:none;stroke:#263238;stroke-miterlimit:10;" x1="335.061" y1="246.156" x2="354.556" y2="246.551"/>
		<line style="fill:none;stroke:#263238;stroke-miterlimit:10;" x1="335.314" y1="253.13" x2="354.809" y2="253.526"/>
		<line style="fill:none;stroke:#263238;stroke-miterlimit:10;" x1="335.567" y1="260.105" x2="355.062" y2="260.5"/>
		<line style="fill:none;stroke:#263238;stroke-miterlimit:10;" x1="335.82" y1="267.079" x2="355.315" y2="267.475"/>
		<line style="fill:none;stroke:#263238;stroke-miterlimit:10;" x1="336.073" y1="274.054" x2="355.568" y2="274.449"/>
		<line style="fill:none;stroke:#263238;stroke-miterlimit:10;" x1="357.835" y1="225.482" x2="377.33" y2="225.877"/>
		<line style="fill:none;stroke:#263238;stroke-miterlimit:10;" x1="358.088" y1="232.456" x2="377.583" y2="232.852"/>
		<line style="fill:none;stroke:#263238;stroke-miterlimit:10;" x1="358.341" y1="239.431" x2="377.836" y2="239.826"/>
		<line style="fill:none;stroke:#263238;stroke-miterlimit:10;" x1="358.594" y1="246.405" x2="378.089" y2="246.801"/>
		<line style="fill:none;stroke:#263238;stroke-miterlimit:10;" x1="358.847" y1="253.38" x2="378.342" y2="253.775"/>
		<line style="fill:none;stroke:#263238;stroke-miterlimit:10;" x1="359.1" y1="260.354" x2="378.595" y2="260.749"/>
		<line style="fill:none;stroke:#263238;stroke-miterlimit:10;" x1="359.353" y1="267.328" x2="378.848" y2="267.724"/>
		<line style="fill:none;stroke:#263238;stroke-miterlimit:10;" x1="359.606" y1="274.303" x2="379.101" y2="274.698"/>
		<g>
			<polygon style="fill:#F13434;stroke:#263238;stroke-linecap:round;stroke-linejoin:round;stroke-miterlimit:10;" points="
				277.652,223.98 279.425,252.585 277.815,279.108 312.306,277.489 329.9,276.116 327.655,224.371 			"/>
			<polygon style="fill:#FFFFFF;stroke:#263238;stroke-miterlimit:10;" points="329.9,276.116 328.242,237.905 313.75,256.486 
				301.03,250.331 277.815,279.108 312.306,277.489 			"/>
			<path style="fill:#FFFFFF;stroke:#263238;stroke-miterlimit:10;" d="M297.247,237.236c0.132,3.649-2.719,6.715-6.368,6.847
				c-3.649,0.132-6.715-2.719-6.847-6.368c-0.132-3.649,2.719-6.715,6.368-6.847C294.049,230.736,297.114,233.587,297.247,237.236z"
				/>
		</g>
	</g>
</g>
<g id="Notes">
	<g>
		<polygon style="fill:#FFFFFF;stroke:#263238;stroke-miterlimit:10;" points="598.37,351.217 558.116,355.69 535.194,358.485 
			511.713,360.722 514.508,398.18 553.085,394.826 586.07,386.998 605.638,385.321 621.851,383.644 639.183,381.408 
			633.592,344.508 		"/>
		<line style="fill:none;stroke:#263238;stroke-miterlimit:10;" x1="520.658" y1="374.14" x2="628.001" y2="357.926"/>
		<line style="fill:none;stroke:#263238;stroke-miterlimit:10;" x1="522.335" y1="384.203" x2="629.678" y2="367.99"/>
	</g>
	<g>
		<g>
			<path style="fill:#FFFFFF;stroke:#263238;stroke-miterlimit:10;" d="M623.225,295.18h-44.32c0,0,0.639,33.508,0.071,36.347
				c-0.568,2.84-1.704,6.815-1.704,6.815l47.063,0.568C624.335,338.91,623.225,299.723,623.225,295.18z"/>
			<line style="fill:none;stroke:#263238;stroke-miterlimit:10;" x1="584.772" y1="303.277" x2="618.393" y2="303.277"/>
			<line style="fill:none;stroke:#263238;stroke-miterlimit:10;" x1="584.772" y1="311.645" x2="618.393" y2="311.645"/>
			<line style="fill:none;stroke:#263238;stroke-miterlimit:10;" x1="584.772" y1="320.013" x2="618.393" y2="320.013"/>
			<line style="fill:none;stroke:#263238;stroke-miterlimit:10;" x1="584.772" y1="328.38" x2="618.393" y2="328.38"/>
		</g>
	</g>
	<g>
		<g>
			<path style="fill:#FFFFFF;stroke:#263238;stroke-miterlimit:10;" d="M452.59,335.992h44.32c0,0-0.639,33.508-0.071,36.348
				c0.568,2.84,1.704,6.815,1.704,6.815l-47.064,0.568C451.479,379.723,452.59,340.536,452.59,335.992z"/>
			<line style="fill:none;stroke:#263238;stroke-miterlimit:10;" x1="491.042" y1="344.09" x2="457.421" y2="344.09"/>
			<line style="fill:none;stroke:#263238;stroke-miterlimit:10;" x1="491.042" y1="352.458" x2="457.421" y2="352.458"/>
			<line style="fill:none;stroke:#263238;stroke-miterlimit:10;" x1="491.042" y1="360.825" x2="457.421" y2="360.825"/>
			<line style="fill:none;stroke:#263238;stroke-miterlimit:10;" x1="491.042" y1="369.193" x2="457.421" y2="369.193"/>
		</g>
	</g>
	<g>
		<path style="fill:#263238;" d="M530.188,187.026l0.024,22.003c0,0,21.839-2.353,25.546-2.627c3.707-0.274,64.28-2.573,64.28-2.573
			l30.959,0.905l-2.435-20.478L530.188,187.026z"/>
		
			<rect x="530.558" y="180.27" transform="matrix(0.9994 -0.0355 0.0355 0.9994 -6.4589 21.0826)" style="fill:#F13434;stroke:#263238;stroke-linecap:round;stroke-linejoin:round;stroke-miterlimit:10;" width="118.617" height="23.945"/>
		<polygon style="fill:#FFFFFF;stroke:#263238;stroke-miterlimit:10;" points="585.439,174.134 587.379,186.747 593.201,184.806 
			591.907,173.164 		"/>
	</g>
</g>
<g id="Thread">
	<g>
		<path style="fill:none;stroke:#263238;stroke-linecap:round;stroke-linejoin:round;stroke-miterlimit:10;" d="M536.559,233.7
			c0,0-90.499,65.805-152.112,92.366"/>
		<path style="fill:none;stroke:#263238;stroke-linecap:round;stroke-linejoin:round;stroke-miterlimit:10;" d="M443.167,240.493
			c0,0,60.39,9.492,93.392-6.793"/>
		<path style="fill:none;stroke:#263238;stroke-linecap:round;stroke-linejoin:round;stroke-miterlimit:10;" d="M536.559,233.7
			c0,0,21.985,51.267,67.181,60.49"/>
		<polyline style="fill:none;stroke:#263238;stroke-linecap:round;stroke-linejoin:round;stroke-miterlimit:10;" points="
			448.529,237.74 328.463,198.056 182.094,107.907 		"/>
		
			<line style="fill:none;stroke:#263238;stroke-linecap:round;stroke-linejoin:round;stroke-miterlimit:10;" x1="330.099" y1="200.501" x2="167.432" y2="253.501"/>
		
			<line style="fill:none;stroke:#263238;stroke-linecap:round;stroke-linejoin:round;stroke-miterlimit:10;" x1="275.288" y1="306.602" x2="332.714" y2="198.056"/>
		<polyline style="fill:none;stroke:#263238;stroke-linecap:round;stroke-linejoin:round;stroke-miterlimit:10;" points="
			463.879,130.374 536.559,233.7 576.025,353.668 		"/>
		
			<line style="fill:none;stroke:#263238;stroke-linecap:round;stroke-linejoin:round;stroke-miterlimit:10;" x1="461.806" y1="127.48" x2="560.122" y2="101.868"/>
	</g>
</g>
<g id="Pins">
	<g>
		<g>
			<path style="fill:#F13434;stroke:#263238;stroke-miterlimit:10;" d="M464.42,128.703c0,2.348-1.903,4.251-4.251,4.251
				c-2.348,0-4.251-1.903-4.251-4.251c0-2.348,1.903-4.251,4.251-4.251C462.517,124.452,464.42,126.356,464.42,128.703z"/>
			<path style="fill:#F13434;stroke:#263238;stroke-miterlimit:10;" d="M465.474,127.48c0,2.026-1.642,3.668-3.668,3.668
				c-2.026,0-3.668-1.642-3.668-3.668c0-2.026,1.642-3.668,3.668-3.668C463.832,123.812,465.474,125.454,465.474,127.48z"/>
			<path style="fill:#F13434;stroke:#263238;stroke-miterlimit:10;" d="M468.13,126.122c0,2.348-1.903,4.251-4.251,4.251
				c-2.348,0-4.251-1.903-4.251-4.251c0-2.348,1.903-4.251,4.251-4.251C466.227,121.871,468.13,123.775,468.13,126.122z"/>
		</g>
		<line style="fill:#FFFFFF;stroke:#263238;stroke-miterlimit:10;" x1="456.805" y1="130.925" x2="455.192" y2="132.376"/>
	</g>
	<g>
		<g>
			<path style="fill:#F13434;stroke:#263238;stroke-miterlimit:10;" d="M332.714,198.056c0,2.348-1.903,4.251-4.251,4.251
				c-2.348,0-4.251-1.903-4.251-4.251c0-2.348,1.903-4.251,4.251-4.251C330.811,193.805,332.714,195.708,332.714,198.056z"/>
			<path style="fill:#F13434;stroke:#263238;stroke-miterlimit:10;" d="M333.768,196.833c0,2.026-1.642,3.668-3.668,3.668
				c-2.026,0-3.668-1.642-3.668-3.668c0-2.026,1.642-3.668,3.668-3.668C332.125,193.165,333.768,194.807,333.768,196.833z"/>
			<path style="fill:#F13434;stroke:#263238;stroke-miterlimit:10;" d="M336.424,195.475c0,2.348-1.903,4.251-4.251,4.251
				c-2.348,0-4.251-1.903-4.251-4.251c0-2.348,1.903-4.251,4.251-4.251C334.521,191.224,336.424,193.128,336.424,195.475z"/>
		</g>
		<line style="fill:#FFFFFF;stroke:#263238;stroke-miterlimit:10;" x1="325.099" y1="200.277" x2="323.486" y2="201.729"/>
	</g>
	<g>
		<g>
			<path style="fill:#F13434;stroke:#263238;stroke-miterlimit:10;" d="M540.81,233.7c0,2.348-1.903,4.251-4.251,4.251
				c-2.348,0-4.251-1.903-4.251-4.251c0-2.348,1.903-4.251,4.251-4.251C538.907,229.449,540.81,231.352,540.81,233.7z"/>
			<path style="fill:#F13434;stroke:#263238;stroke-miterlimit:10;" d="M541.864,232.477c0,2.026-1.642,3.668-3.668,3.668
				c-2.026,0-3.668-1.642-3.668-3.668c0-2.026,1.642-3.668,3.668-3.668C540.221,228.809,541.864,230.451,541.864,232.477z"/>
			<path style="fill:#F13434;stroke:#263238;stroke-miterlimit:10;" d="M544.52,231.119c0,2.348-1.903,4.251-4.251,4.251
				c-2.348,0-4.251-1.903-4.251-4.251c0-2.348,1.903-4.251,4.251-4.251C542.617,226.868,544.52,228.772,544.52,231.119z"/>
		</g>
		<line style="fill:#FFFFFF;stroke:#263238;stroke-miterlimit:10;" x1="533.195" y1="235.921" x2="531.582" y2="237.373"/>
	</g>
	<g>
		<g>
			<path style="fill:#F13434;stroke:#263238;stroke-miterlimit:10;" d="M231.905,89.957c0,2.348-1.903,4.251-4.251,4.251
				c-2.348,0-4.251-1.903-4.251-4.251c0-2.348,1.903-4.251,4.251-4.251C230.002,85.706,231.905,87.609,231.905,89.957z"/>
			<path style="fill:#F13434;stroke:#263238;stroke-miterlimit:10;" d="M232.959,88.733c0,2.026-1.642,3.668-3.668,3.668
				c-2.026,0-3.668-1.642-3.668-3.668c0-2.026,1.642-3.668,3.668-3.668C231.316,85.065,232.959,86.707,232.959,88.733z"/>
			<path style="fill:#F13434;stroke:#263238;stroke-miterlimit:10;" d="M235.615,87.376c0,2.348-1.903,4.251-4.251,4.251
				c-2.348,0-4.251-1.903-4.251-4.251c0-2.348,1.903-4.251,4.251-4.251C233.712,83.125,235.615,85.028,235.615,87.376z"/>
		</g>
		<line style="fill:#FFFFFF;stroke:#263238;stroke-miterlimit:10;" x1="224.29" y1="92.178" x2="222.677" y2="93.63"/>
	</g>
	<g>
		<g>
			<path style="fill:#F13434;stroke:#263238;stroke-miterlimit:10;" d="M425.509,89.957c0,2.348-1.903,4.251-4.251,4.251
				c-2.348,0-4.251-1.903-4.251-4.251c0-2.348,1.903-4.251,4.251-4.251C423.606,85.706,425.509,87.609,425.509,89.957z"/>
			<circle style="fill:#F13434;stroke:#263238;stroke-miterlimit:10;" cx="422.894" cy="88.733" r="3.668"/>
			<path style="fill:#F13434;stroke:#263238;stroke-miterlimit:10;" d="M429.219,87.376c0,2.348-1.903,4.251-4.251,4.251
				c-2.348,0-4.251-1.903-4.251-4.251c0-2.348,1.903-4.251,4.251-4.251C427.316,83.125,429.219,85.028,429.219,87.376z"/>
		</g>
		<line style="fill:#FFFFFF;stroke:#263238;stroke-miterlimit:10;" x1="417.894" y1="92.178" x2="416.281" y2="93.63"/>
	</g>
	<g>
		<g>
			<path style="fill:#F13434;stroke:#263238;stroke-miterlimit:10;" d="M564.373,101.868c0,2.348-1.903,4.251-4.251,4.251
				c-2.348,0-4.251-1.903-4.251-4.251c0-2.348,1.903-4.251,4.251-4.251C562.47,97.617,564.373,99.521,564.373,101.868z"/>
			<path style="fill:#F13434;stroke:#263238;stroke-miterlimit:10;" d="M565.427,100.645c0,2.026-1.642,3.668-3.668,3.668
				c-2.026,0-3.668-1.642-3.668-3.668c0-2.026,1.642-3.668,3.668-3.668C563.785,96.977,565.427,98.619,565.427,100.645z"/>
			<path style="fill:#F13434;stroke:#263238;stroke-miterlimit:10;" d="M568.083,99.287c0,2.348-1.903,4.251-4.251,4.251
				c-2.348,0-4.251-1.903-4.251-4.251s1.903-4.251,4.251-4.251C566.18,95.036,568.083,96.94,568.083,99.287z"/>
		</g>
		<line style="fill:#FFFFFF;stroke:#263238;stroke-miterlimit:10;" x1="556.758" y1="104.09" x2="555.145" y2="105.541"/>
	</g>
	<g>
		<g>
			<path style="fill:#F13434;stroke:#263238;stroke-miterlimit:10;" d="M171.683,253.501c0,2.348-1.903,4.251-4.251,4.251
				c-2.348,0-4.251-1.903-4.251-4.251c0-2.348,1.903-4.251,4.251-4.251C169.78,249.25,171.683,251.153,171.683,253.501z"/>
			<path style="fill:#F13434;stroke:#263238;stroke-miterlimit:10;" d="M172.737,252.277c0,2.026-1.642,3.668-3.668,3.668
				c-2.026,0-3.668-1.642-3.668-3.668c0-2.026,1.642-3.668,3.668-3.668C171.095,248.609,172.737,250.251,172.737,252.277z"/>
			<path style="fill:#F13434;stroke:#263238;stroke-miterlimit:10;" d="M175.393,250.92c0,2.348-1.903,4.251-4.251,4.251
				c-2.348,0-4.251-1.903-4.251-4.251c0-2.348,1.903-4.251,4.251-4.251C173.49,246.669,175.393,248.572,175.393,250.92z"/>
		</g>
		<line style="fill:#FFFFFF;stroke:#263238;stroke-miterlimit:10;" x1="164.069" y1="255.722" x2="162.456" y2="257.174"/>
	</g>
	<g>
		<g>
			<path style="fill:#F13434;stroke:#263238;stroke-miterlimit:10;" d="M275.829,309.183c0,2.348-1.903,4.251-4.251,4.251
				c-2.348,0-4.251-1.903-4.251-4.251c0-2.348,1.903-4.251,4.251-4.251C273.926,304.932,275.829,306.835,275.829,309.183z"/>
			<path style="fill:#F13434;stroke:#263238;stroke-miterlimit:10;" d="M276.883,307.96c0,2.026-1.642,3.668-3.668,3.668
				c-2.026,0-3.668-1.642-3.668-3.668c0-2.026,1.642-3.668,3.668-3.668C275.24,304.291,276.883,305.934,276.883,307.96z"/>
			<path style="fill:#F13434;stroke:#263238;stroke-miterlimit:10;" d="M279.539,306.602c0,2.348-1.903,4.251-4.251,4.251
				c-2.348,0-4.251-1.903-4.251-4.251s1.903-4.251,4.251-4.251C277.635,302.351,279.539,304.254,279.539,306.602z"/>
		</g>
		<line style="fill:#FFFFFF;stroke:#263238;stroke-miterlimit:10;" x1="268.214" y1="311.404" x2="266.601" y2="312.856"/>
	</g>
	<g>
		<g>
			<circle style="fill:#F13434;stroke:#263238;stroke-miterlimit:10;" cx="182.635" cy="110.488" r="4.251"/>
			<circle style="fill:#F13434;stroke:#263238;stroke-miterlimit:10;" cx="184.271" cy="109.265" r="3.668"/>
			<path style="fill:#F13434;stroke:#263238;stroke-miterlimit:10;" d="M190.596,107.907c0,2.348-1.903,4.251-4.251,4.251
				s-4.251-1.903-4.251-4.251c0-2.348,1.903-4.251,4.251-4.251S190.596,105.56,190.596,107.907z"/>
		</g>
		<line style="fill:#FFFFFF;stroke:#263238;stroke-miterlimit:10;" x1="179.271" y1="112.709" x2="177.658" y2="114.161"/>
	</g>
	<g>
		<g>
			<path style="fill:#F13434;stroke:#263238;stroke-miterlimit:10;" d="M607.991,294.19c0,2.348-1.903,4.251-4.251,4.251
				c-2.348,0-4.251-1.903-4.251-4.251c0-2.348,1.903-4.251,4.251-4.251C606.088,289.939,607.991,291.842,607.991,294.19z"/>
			<path style="fill:#F13434;stroke:#263238;stroke-miterlimit:10;" d="M609.045,292.967c0,2.026-1.642,3.668-3.668,3.668
				c-2.026,0-3.668-1.642-3.668-3.668c0-2.026,1.642-3.668,3.668-3.668C607.403,289.298,609.045,290.941,609.045,292.967z"/>
			<circle style="fill:#F13434;stroke:#263238;stroke-miterlimit:10;" cx="607.45" cy="291.609" r="4.251"/>
		</g>
		<line style="fill:#FFFFFF;stroke:#263238;stroke-miterlimit:10;" x1="600.376" y1="296.411" x2="598.763" y2="297.863"/>
	</g>
	<g>
		<g>
			<path style="fill:#F13434;stroke:#263238;stroke-miterlimit:10;" d="M580.817,356.249c0,2.348-1.903,4.251-4.251,4.251
				c-2.348,0-4.251-1.903-4.251-4.251c0-2.348,1.903-4.251,4.251-4.251C578.914,351.998,580.817,353.901,580.817,356.249z"/>
			<circle style="fill:#F13434;stroke:#263238;stroke-miterlimit:10;" cx="578.203" cy="355.026" r="3.668"/>
			<path style="fill:#F13434;stroke:#263238;stroke-miterlimit:10;" d="M584.527,353.668c0,2.348-1.903,4.251-4.251,4.251
				s-4.251-1.903-4.251-4.251c0-2.348,1.903-4.251,4.251-4.251S584.527,351.32,584.527,353.668z"/>
		</g>
		<line style="fill:#FFFFFF;stroke:#263238;stroke-miterlimit:10;" x1="573.202" y1="358.47" x2="571.589" y2="359.922"/>
	</g>
	<g>
		<g>
			<path style="fill:#F13434;stroke:#263238;stroke-miterlimit:10;" d="M484.859,336.129c0,2.348-1.903,4.251-4.251,4.251
				c-2.348,0-4.251-1.903-4.251-4.251c0-2.348,1.903-4.251,4.251-4.251C482.956,331.878,484.859,333.781,484.859,336.129z"/>
			<circle style="fill:#F13434;stroke:#263238;stroke-miterlimit:10;" cx="482.245" cy="334.906" r="3.668"/>
			<path style="fill:#F13434;stroke:#263238;stroke-miterlimit:10;" d="M488.569,333.548c0,2.348-1.903,4.251-4.251,4.251
				c-2.348,0-4.251-1.903-4.251-4.251c0-2.348,1.903-4.251,4.251-4.251C486.666,329.297,488.569,331.201,488.569,333.548z"/>
		</g>
		<line style="fill:#FFFFFF;stroke:#263238;stroke-miterlimit:10;" x1="477.244" y1="338.35" x2="475.631" y2="339.802"/>
	</g>
	<g>
		<g>
			<path style="fill:#F13434;stroke:#263238;stroke-miterlimit:10;" d="M447.475,238.964c0,2.348-1.903,4.251-4.251,4.251
				c-2.348,0-4.251-1.903-4.251-4.251c0-2.348,1.903-4.251,4.251-4.251C445.572,234.713,447.475,236.616,447.475,238.964z"/>
			<path style="fill:#F13434;stroke:#263238;stroke-miterlimit:10;" d="M448.529,237.74c0,2.026-1.642,3.668-3.668,3.668
				c-2.026,0-3.668-1.642-3.668-3.668c0-2.026,1.642-3.668,3.668-3.668C446.886,234.072,448.529,235.714,448.529,237.74z"/>
			<path style="fill:#F13434;stroke:#263238;stroke-miterlimit:10;" d="M451.185,236.383c0,2.348-1.903,4.251-4.251,4.251
				c-2.348,0-4.251-1.903-4.251-4.251c0-2.348,1.903-4.251,4.251-4.251C449.281,232.132,451.185,234.035,451.185,236.383z"/>
		</g>
		<line style="fill:#FFFFFF;stroke:#263238;stroke-miterlimit:10;" x1="439.86" y1="241.185" x2="438.247" y2="242.637"/>
	</g>
	<g>
		<g>
			<path style="fill:#F13434;stroke:#263238;stroke-miterlimit:10;" d="M388.697,326.066c0,2.348-1.903,4.251-4.251,4.251
				c-2.348,0-4.251-1.903-4.251-4.251c0-2.348,1.903-4.251,4.251-4.251C386.794,321.815,388.697,323.718,388.697,326.066z"/>
			<path style="fill:#F13434;stroke:#263238;stroke-miterlimit:10;" d="M389.751,324.843c0,2.026-1.642,3.668-3.668,3.668
				s-3.668-1.642-3.668-3.668c0-2.026,1.642-3.668,3.668-3.668S389.751,322.817,389.751,324.843z"/>
			<path style="fill:#F13434;stroke:#263238;stroke-miterlimit:10;" d="M392.407,323.485c0,2.348-1.903,4.251-4.251,4.251
				c-2.348,0-4.251-1.903-4.251-4.251c0-2.348,1.903-4.251,4.251-4.251C390.504,319.234,392.407,321.137,392.407,323.485z"/>
		</g>
		<line style="fill:#FFFFFF;stroke:#263238;stroke-miterlimit:10;" x1="381.082" y1="328.287" x2="379.469" y2="329.739"/>
	</g>
</g>
<g id="Text">
	<g>
		<path style="fill:#263238;" d="M541.685,195.913l2.904-0.486c0.085,1.911,0.535,2.33,1.091,2.31
			c0.538-0.019,0.555-0.541,0.544-0.854c-0.041-1.146-0.639-1.821-1.658-2.619l-0.912-0.716c-1.144-0.898-2.122-1.978-2.186-3.767
			c-0.087-2.466,1.464-3.86,4-3.95c3.231-0.114,3.568,2.57,3.636,3.976l-2.978,0.401c-0.043-1.216-0.085-1.91-0.692-1.889
			c-0.469,0.017-0.619,0.665-0.607,0.996c0.038,1.094,0.685,1.645,1.578,2.379l0.843,0.683c1.288,1.032,2.305,2.232,2.375,4.229
			c0.069,1.963-1.314,3.646-3.642,3.729C543.253,200.432,541.89,199.245,541.685,195.913z"/>
		<path style="fill:#263238;" d="M550.922,195.448l-0.18-5.089c-0.104-2.936,0.91-4.745,4.176-4.86
			c3.265-0.116,4.265,1.571,4.348,3.916l0.044,1.251l-3.387,0.12l-0.055-1.529c-0.021-0.607-0.066-1.406-0.865-1.378
			c-0.799,0.028-0.824,0.829-0.803,1.437l0.245,6.914c0.022,0.625,0.118,1.404,0.9,1.377c0.799-0.028,0.789-0.829,0.768-1.436
			l-0.057-1.598l3.387-0.12l0.044,1.251c0.083,2.345-0.792,4.184-4.057,4.3C552.166,200.117,551.025,198.366,550.922,195.448z"/>
		<path style="fill:#263238;" d="M560.781,185.5l6.583-0.232l0.082,2.31l-3.144,0.111l0.11,3.144l2.344-0.083l0.085,2.396
			l-2.344,0.083l0.139,3.926l3.161-0.112l0.081,2.293l-6.601,0.233L560.781,185.5z"/>
		<path style="fill:#263238;" d="M568.755,185.218l2.432-0.086l2.784,5.936l-0.213-6.027l2.848-0.101l0.497,14.069l-2.362,0.083
			l-2.769-6.528l0.233,6.618l-2.952,0.105L568.755,185.218z"/>
		<path style="fill:#263238;" d="M578.657,184.868l6.583-0.233l0.082,2.31l-3.144,0.111l0.11,3.144l2.345-0.083l0.085,2.396
			l-2.345,0.083l0.139,3.926l3.161-0.112l0.081,2.292l-6.601,0.233L578.657,184.868z"/>
		<path style="fill:#263238;" d="M591.381,194.018l-0.18-5.089c-0.103-2.936,0.91-4.745,4.176-4.86
			c3.266-0.115,4.265,1.571,4.348,3.916l0.044,1.251l-3.387,0.12l-0.055-1.529c-0.021-0.607-0.066-1.406-0.865-1.378
			c-0.799,0.028-0.824,0.83-0.803,1.437l0.245,6.913c0.021,0.625,0.118,1.404,0.9,1.377c0.799-0.028,0.789-0.828,0.768-1.436
			l-0.057-1.598l3.387-0.12l0.044,1.251c0.083,2.345-0.791,4.184-4.057,4.3C592.625,198.687,591.484,196.936,591.381,194.018z"/>
		<path style="fill:#263238;" d="M601.241,184.07l4.186-0.147c2.831-0.1,4.854,0.506,4.96,3.546
			c0.062,1.754-0.193,2.895-1.592,3.674l2.148,6.671l-3.596,0.127l-1.679-6.167l-0.711,0.025l0.22,6.218l-3.439,0.121
			L601.241,184.07z M605.794,189.874c1.198-0.042,1.466-0.852,1.428-1.928c-0.038-1.077-0.395-1.795-1.402-1.759l-1.059,0.038
			l0.131,3.682L605.794,189.874z"/>
		<path style="fill:#263238;" d="M612.081,183.687l3.44-0.122l0.497,14.069l-3.44,0.122L612.081,183.687z"/>
		<path style="fill:#263238;" d="M617.744,183.487l3.752-0.132l1.523,7.198l1.169-7.293l3.596-0.127l0.74,14.06l-2.398,0.085
			l-0.6-9.109l-1.103,9.169l-2.206,0.078l-1.87-9.151l0.099,9.214l-2.431,0.086L617.744,183.487z"/>
		<path style="fill:#263238;" d="M630.026,183.053l6.582-0.233l0.082,2.31l-3.143,0.111l0.11,3.144l2.345-0.083l0.085,2.396
			l-2.345,0.083l0.139,3.926l3.161-0.112l0.081,2.292l-6.6,0.233L630.026,183.053z"/>
	</g>
</g>
</svg>
