<?xml version="1.0" encoding="iso-8859-1"?>
<!-- Generator: Adobe Illustrator 27.3.1, SVG Export Plug-In . SVG Version: 6.00 Build 0)  -->
<svg version="1.1" xmlns="http://www.w3.org/2000/svg" xmlns:xlink="http://www.w3.org/1999/xlink" x="0px" y="0px"
	 viewBox="0 0 750 500" style="enable-background:new 0 0 750 500;" xml:space="preserve">
<g id="Background_Simple">
	<g>
		<path style="fill:#F13434;" d="M605.11,330.498c-21.738,41.911-61.019,85.355-109.866,93.686
			c-73.806,12.595-89.303,68.965-216.214,48.111c-19.787-3.25-37.83-8.284-54.173-14.804c-8.786-3.504-17.082-7.45-24.883-11.784
			c-70.845-39.255-101.631-110.418-96.395-180.318c6.87-91.936,75.96-127.745,120.521-148.212
			C268.66,96.711,330.659,3.932,455.581,23.453c19.045,2.984,37.808,7.921,55.688,15.185
			c40.817,16.562,80.648,47.052,101.084,87.025c1.534,3.003,2.974,6.06,4.332,9.162C643.159,195.496,634.749,273.36,605.11,330.498z
			"/>
		<path style="opacity:0.7;fill:#FFFFFF;" d="M605.11,330.498c-21.738,41.911-61.019,85.355-109.866,93.686
			c-73.806,12.595-89.303,68.965-216.214,48.111c-19.787-3.25-37.83-8.284-54.173-14.804c-8.786-3.504-17.082-7.45-24.883-11.784
			c-70.845-39.255-101.631-110.418-96.395-180.318c6.87-91.936,75.96-127.745,120.521-148.212
			C268.66,96.711,330.659,3.932,455.581,23.453c19.045,2.984,37.808,7.921,55.688,15.185
			c40.817,16.562,80.648,47.052,101.084,87.025c1.534,3.003,2.974,6.06,4.332,9.162C643.159,195.496,634.749,273.36,605.11,330.498z
			"/>
	</g>
</g>
<g id="Windows">
	<g>
		<g>
			<polygon style="fill:none;stroke:#263238;stroke-linecap:round;stroke-linejoin:round;stroke-miterlimit:10;" points="
				118.353,65.866 110.904,77.594 310.702,77.594 316.206,65.866 			"/>
			<polygon style="fill:none;stroke:#263238;stroke-linecap:round;stroke-linejoin:round;stroke-miterlimit:10;" points="
				118.353,77.226 110.904,88.954 310.702,88.954 316.206,77.226 			"/>
			<polygon style="fill:none;stroke:#263238;stroke-linecap:round;stroke-linejoin:round;stroke-miterlimit:10;" points="
				118.353,88.586 110.904,100.314 310.702,100.314 316.206,88.586 			"/>
			<polygon style="fill:none;stroke:#263238;stroke-linecap:round;stroke-linejoin:round;stroke-miterlimit:10;" points="
				118.353,99.946 110.904,111.675 310.702,111.675 316.206,99.946 			"/>
			<polygon style="fill:none;stroke:#263238;stroke-linecap:round;stroke-linejoin:round;stroke-miterlimit:10;" points="
				118.353,111.306 110.904,123.035 310.702,123.035 316.206,111.306 			"/>
			<polygon style="fill:none;stroke:#263238;stroke-linecap:round;stroke-linejoin:round;stroke-miterlimit:10;" points="
				118.353,122.666 110.904,134.395 310.702,134.395 316.206,122.666 			"/>
			<polygon style="fill:none;stroke:#263238;stroke-linecap:round;stroke-linejoin:round;stroke-miterlimit:10;" points="
				118.353,134.026 110.904,145.755 310.702,145.755 316.206,134.026 			"/>
			<polygon style="fill:none;stroke:#263238;stroke-linecap:round;stroke-linejoin:round;stroke-miterlimit:10;" points="
				118.353,145.386 110.904,157.115 310.702,157.115 316.206,145.386 			"/>
			<polygon style="fill:none;stroke:#263238;stroke-linecap:round;stroke-linejoin:round;stroke-miterlimit:10;" points="
				118.353,156.746 110.904,168.475 310.702,168.475 316.206,156.746 			"/>
			<polygon style="fill:none;stroke:#263238;stroke-linecap:round;stroke-linejoin:round;stroke-miterlimit:10;" points="
				118.353,168.106 110.904,179.835 310.702,179.835 316.206,168.106 			"/>
			<polygon style="fill:none;stroke:#263238;stroke-linecap:round;stroke-linejoin:round;stroke-miterlimit:10;" points="
				118.353,179.467 110.904,191.195 310.702,191.195 316.206,179.467 			"/>
			<polygon style="fill:none;stroke:#263238;stroke-linecap:round;stroke-linejoin:round;stroke-miterlimit:10;" points="
				118.353,190.827 110.904,202.555 310.702,202.555 316.206,190.827 			"/>
			<polygon style="fill:none;stroke:#263238;stroke-linecap:round;stroke-linejoin:round;stroke-miterlimit:10;" points="
				118.353,202.187 110.904,213.915 310.702,213.915 316.206,202.187 			"/>
			<polygon style="fill:none;stroke:#263238;stroke-linecap:round;stroke-linejoin:round;stroke-miterlimit:10;" points="
				118.353,213.547 110.904,225.275 310.702,225.275 316.206,213.547 			"/>
			<polygon style="fill:none;stroke:#263238;stroke-linecap:round;stroke-linejoin:round;stroke-miterlimit:10;" points="
				118.353,224.907 110.904,236.635 310.702,236.635 316.206,224.907 			"/>
			<polygon style="fill:none;stroke:#263238;stroke-linecap:round;stroke-linejoin:round;stroke-miterlimit:10;" points="
				118.353,236.267 110.904,247.996 310.702,247.996 316.206,236.267 			"/>
			<polygon style="fill:none;stroke:#263238;stroke-linecap:round;stroke-linejoin:round;stroke-miterlimit:10;" points="
				118.353,247.627 110.904,259.356 310.702,259.356 316.206,247.627 			"/>
			<polygon style="fill:none;stroke:#263238;stroke-linecap:round;stroke-linejoin:round;stroke-miterlimit:10;" points="
				118.353,258.987 110.904,270.716 310.702,270.716 316.206,258.987 			"/>
			<polygon style="fill:none;stroke:#263238;stroke-linecap:round;stroke-linejoin:round;stroke-miterlimit:10;" points="
				118.353,270.347 110.904,282.076 310.702,282.076 316.206,270.347 			"/>
			<polygon style="fill:none;stroke:#263238;stroke-linecap:round;stroke-linejoin:round;stroke-miterlimit:10;" points="
				118.353,281.707 110.904,293.436 310.702,293.436 316.206,281.707 			"/>
			<polygon style="fill:none;stroke:#263238;stroke-linecap:round;stroke-linejoin:round;stroke-miterlimit:10;" points="
				118.353,293.067 110.904,304.796 310.702,304.796 316.206,293.067 			"/>
			<polygon style="fill:none;stroke:#263238;stroke-linecap:round;stroke-linejoin:round;stroke-miterlimit:10;" points="
				118.353,304.427 110.904,316.156 310.702,316.156 316.206,304.427 			"/>
			<polygon style="fill:none;stroke:#263238;stroke-linecap:round;stroke-linejoin:round;stroke-miterlimit:10;" points="
				118.353,315.788 110.904,327.516 310.702,327.516 316.206,315.788 			"/>
		</g>
		<polyline style="fill:none;stroke:#263238;stroke-linecap:round;stroke-linejoin:round;stroke-miterlimit:10;" points="
			316.206,65.866 316.206,327.687 310.702,327.687 		"/>
	</g>
	<g>
		<g>
			<polygon style="fill:none;stroke:#263238;stroke-linecap:round;stroke-linejoin:round;stroke-miterlimit:10;" points="
				332.218,65.866 324.769,77.594 524.567,77.594 530.071,65.866 			"/>
			<polygon style="fill:none;stroke:#263238;stroke-linecap:round;stroke-linejoin:round;stroke-miterlimit:10;" points="
				332.218,77.226 324.769,88.954 524.567,88.954 530.071,77.226 			"/>
			<polygon style="fill:none;stroke:#263238;stroke-linecap:round;stroke-linejoin:round;stroke-miterlimit:10;" points="
				332.218,88.586 324.769,100.314 524.567,100.314 530.071,88.586 			"/>
			<polygon style="fill:none;stroke:#263238;stroke-linecap:round;stroke-linejoin:round;stroke-miterlimit:10;" points="
				332.218,99.946 324.769,111.675 524.567,111.675 530.071,99.946 			"/>
			<polygon style="fill:none;stroke:#263238;stroke-linecap:round;stroke-linejoin:round;stroke-miterlimit:10;" points="
				332.218,111.306 324.769,123.035 524.567,123.035 530.071,111.306 			"/>
			<polygon style="fill:none;stroke:#263238;stroke-linecap:round;stroke-linejoin:round;stroke-miterlimit:10;" points="
				332.218,122.666 324.769,134.395 524.567,134.395 530.071,122.666 			"/>
			<polygon style="fill:none;stroke:#263238;stroke-linecap:round;stroke-linejoin:round;stroke-miterlimit:10;" points="
				332.218,134.026 324.769,145.755 524.567,145.755 530.071,134.026 			"/>
			<polygon style="fill:none;stroke:#263238;stroke-linecap:round;stroke-linejoin:round;stroke-miterlimit:10;" points="
				332.218,145.386 324.769,157.115 524.567,157.115 530.071,145.386 			"/>
			<polygon style="fill:none;stroke:#263238;stroke-linecap:round;stroke-linejoin:round;stroke-miterlimit:10;" points="
				332.218,156.746 324.769,168.475 524.567,168.475 530.071,156.746 			"/>
			<polygon style="fill:none;stroke:#263238;stroke-linecap:round;stroke-linejoin:round;stroke-miterlimit:10;" points="
				332.218,168.106 324.769,179.835 524.567,179.835 530.071,168.106 			"/>
			<polygon style="fill:none;stroke:#263238;stroke-linecap:round;stroke-linejoin:round;stroke-miterlimit:10;" points="
				332.218,179.467 324.769,191.195 524.567,191.195 530.071,179.467 			"/>
			<polygon style="fill:none;stroke:#263238;stroke-linecap:round;stroke-linejoin:round;stroke-miterlimit:10;" points="
				332.218,190.827 324.769,202.555 524.567,202.555 530.071,190.827 			"/>
			<polygon style="fill:none;stroke:#263238;stroke-linecap:round;stroke-linejoin:round;stroke-miterlimit:10;" points="
				332.218,202.187 324.769,213.915 524.567,213.915 530.071,202.187 			"/>
			<polygon style="fill:none;stroke:#263238;stroke-linecap:round;stroke-linejoin:round;stroke-miterlimit:10;" points="
				332.218,213.547 324.769,225.275 524.567,225.275 530.071,213.547 			"/>
			<polygon style="fill:none;stroke:#263238;stroke-linecap:round;stroke-linejoin:round;stroke-miterlimit:10;" points="
				332.218,224.907 324.769,236.635 524.567,236.635 530.071,224.907 			"/>
			<polygon style="fill:none;stroke:#263238;stroke-linecap:round;stroke-linejoin:round;stroke-miterlimit:10;" points="
				332.218,236.267 324.769,247.996 524.567,247.996 530.071,236.267 			"/>
			<polygon style="fill:none;stroke:#263238;stroke-linecap:round;stroke-linejoin:round;stroke-miterlimit:10;" points="
				332.218,247.627 324.769,259.356 524.567,259.356 530.071,247.627 			"/>
			<polygon style="fill:none;stroke:#263238;stroke-linecap:round;stroke-linejoin:round;stroke-miterlimit:10;" points="
				332.218,258.987 324.769,270.716 524.567,270.716 530.071,258.987 			"/>
			<polygon style="fill:none;stroke:#263238;stroke-linecap:round;stroke-linejoin:round;stroke-miterlimit:10;" points="
				332.218,270.347 324.769,282.076 524.567,282.076 530.071,270.347 			"/>
			<polygon style="fill:none;stroke:#263238;stroke-linecap:round;stroke-linejoin:round;stroke-miterlimit:10;" points="
				332.218,281.707 324.769,293.436 524.567,293.436 530.071,281.707 			"/>
			<polygon style="fill:none;stroke:#263238;stroke-linecap:round;stroke-linejoin:round;stroke-miterlimit:10;" points="
				332.218,293.067 324.769,304.796 524.567,304.796 530.071,293.067 			"/>
			<polygon style="fill:none;stroke:#263238;stroke-linecap:round;stroke-linejoin:round;stroke-miterlimit:10;" points="
				332.218,304.427 324.769,316.156 524.567,316.156 530.071,304.427 			"/>
			<polygon style="fill:none;stroke:#263238;stroke-linecap:round;stroke-linejoin:round;stroke-miterlimit:10;" points="
				332.218,315.788 324.769,327.516 524.567,327.516 530.071,315.788 			"/>
		</g>
		<polyline style="fill:none;stroke:#263238;stroke-linecap:round;stroke-linejoin:round;stroke-miterlimit:10;" points="
			530.071,65.866 530.071,327.687 524.567,327.687 		"/>
	</g>
</g>
<g id="Plant">
	<g>
		<path style="fill:#F13434;stroke:#263238;stroke-linecap:round;stroke-linejoin:round;stroke-miterlimit:10;" d="M538.802,173.621
			c0,0-2.476,6.809-7.738,7.738c-5.262,0.928-14.547-9.286-8.667-14.547S536.326,169.907,538.802,173.621z"/>
		<path style="fill:#F13434;stroke:#263238;stroke-linecap:round;stroke-linejoin:round;stroke-miterlimit:10;" d="M546.85,140.193
			c0,0-7.738,18.881-4.643,28.166c3.095,9.286,22.285,16.095,27.856,4.024c5.571-12.071-6.809-29.095-11.452-32.809
			C553.969,135.86,548.397,137.098,546.85,140.193z"/>
		<path style="fill:#F13434;stroke:#263238;stroke-linecap:round;stroke-linejoin:round;stroke-miterlimit:10;" d="M592.039,148.24
			c0,0-13.309,12.071-14.857,24.142c-1.547,12.071,7.428,16.404,16.714,14.857c9.285-1.548,13.928-25.071,11.143-35.904
			C602.253,140.503,592.039,148.24,592.039,148.24z"/>
		<path style="fill:#F13434;stroke:#263238;stroke-linecap:round;stroke-linejoin:round;stroke-miterlimit:10;" d="M594.515,215.096
			c0,0-14.857,0.619-15.476,7.738c-0.619,7.119,6.5,8.667,13.619,2.476C599.777,219.12,600.706,215.405,594.515,215.096z"/>
		<path style="fill:#F13434;stroke:#263238;stroke-linecap:round;stroke-linejoin:round;stroke-miterlimit:10;" d="M557.683,229.953
			c0,0-1.548,7.428-7.119,10.214c-5.571,2.786-15.476-3.095-10.214-12.071C545.612,219.12,554.897,226.238,557.683,229.953z"/>
		<path style="fill:#F13434;stroke:#263238;stroke-linecap:round;stroke-linejoin:round;stroke-miterlimit:10;" d="M544.683,206.739
			c0,0-2.786-6.19-13.619-2.167c-10.833,4.024-15.166,10.214-8.357,12.381C529.517,219.12,544.683,206.739,544.683,206.739z"/>
		<path style="fill:#F13434;stroke:#263238;stroke-linecap:round;stroke-linejoin:round;stroke-miterlimit:10;" d="M575.635,132.455
			c0,0,1.857,4.333,5.571,3.405c3.714-0.928,4.643-6.5,10.524-4.952c5.881,1.548,10.833,8.357,10.833,5.262
			c0-3.095-7.428-11.143-15.785-11.143C578.42,125.027,575.944,128.431,575.635,132.455z"/>
		<path style="fill:none;stroke:#263238;stroke-linecap:round;stroke-linejoin:round;stroke-miterlimit:10;" d="M560.323,179.206
			c0,0,6.475,18.962,7.862,35.149s0,42.087,0,42.087"/>
		<path style="fill:none;stroke:#263238;stroke-linecap:round;stroke-linejoin:round;stroke-miterlimit:10;" d="M582.985,185.681
			c0,0-7.4,21.737-9.25,35.612c-1.85,13.875-2.312,35.15-2.312,35.15"/>
		<path style="fill:none;stroke:#263238;stroke-linecap:round;stroke-linejoin:round;stroke-miterlimit:10;" d="M579.285,224.53
			c0,0-3.237,0.925-5.087,32.375"/>
		<path style="fill:none;stroke:#263238;stroke-linecap:round;stroke-linejoin:round;stroke-miterlimit:10;" d="M557.683,229.953
			c0,0,3.103-2.647,4.953,3.365c1.85,6.012,0.925,22.662,0.925,22.662"/>
		<path style="fill:none;stroke:#263238;stroke-linecap:round;stroke-linejoin:round;stroke-miterlimit:10;" d="M565.685,226.973
			c2.42,13.558,0.188,28.544,0.188,28.544"/>
		<path style="fill:none;stroke:#263238;stroke-linecap:round;stroke-linejoin:round;stroke-miterlimit:10;" d="M544.683,206.739
			c0,0,13.328-2.558,18.878,12.241c0.544,1.452,1.004,2.971,1.391,4.529"/>
		<path style="fill:#F13434;stroke:#263238;stroke-linecap:round;stroke-linejoin:round;stroke-miterlimit:10;" d="M600.305,192.402
			c0,0,2.786-6.19,13.619-2.167c10.833,4.024,15.166,10.214,8.357,12.381C615.471,204.782,600.305,192.402,600.305,192.402z"/>
		<path style="fill:none;stroke:#263238;stroke-linecap:round;stroke-linejoin:round;stroke-miterlimit:10;" d="M588.457,195.112
			c-2.679,1.833-5.253,4.792-7.03,9.531c-5.55,14.8-4.917,51.337-4.917,51.337"/>
		<path style="fill:none;stroke:#263238;stroke-linecap:round;stroke-linejoin:round;stroke-miterlimit:10;" d="M600.305,192.402
			c0,0-4.418-0.848-9.226,1.257"/>
		<path style="fill:none;stroke:#263238;stroke-linecap:round;stroke-linejoin:round;stroke-miterlimit:10;" d="M553.399,183.063
			c2.891,3.395,5.695,7.985,7.85,14.18c7.4,21.275,10.175,48.562,8.788,58.737"/>
		<path style="fill:none;stroke:#263238;stroke-linecap:round;stroke-linejoin:round;stroke-miterlimit:10;" d="M538.802,173.621
			c0,0,6.453,1.007,12.985,7.677"/>
		<path style="fill:none;stroke:#263238;stroke-linecap:round;stroke-linejoin:round;stroke-miterlimit:10;" d="M572.192,202.973
			c-0.45,26.85-0.769,53.47-0.769,53.47"/>
		<path style="fill:none;stroke:#263238;stroke-linecap:round;stroke-linejoin:round;stroke-miterlimit:10;" d="M575.635,132.455
			c0,0-1.437-1.349-2.362,22.701c-0.359,9.345-0.719,26.721-1.024,44.476"/>
		<path style="fill:#FFFFFF;stroke:#263238;stroke-linecap:round;stroke-linejoin:round;stroke-miterlimit:10;" d="M584.753,303.617
			h-27.122c-2.907,0-5.338-2.207-5.619-5.1l-4.176-43h46.712l-4.176,43C590.091,301.41,587.659,303.617,584.753,303.617z"/>
		<g>
			<polygon style="fill:#263238;stroke:#263238;stroke-linecap:round;stroke-linejoin:round;stroke-miterlimit:10;" points="
				549.228,269.855 549.722,274.942 592.661,274.942 593.155,269.855 			"/>
			<polygon style="fill:#263238;stroke:#263238;stroke-linecap:round;stroke-linejoin:round;stroke-miterlimit:10;" points="
				591.583,286.042 591.853,283.267 550.531,283.267 550.8,286.042 			"/>
			
				<circle style="fill:#263238;stroke:#263238;stroke-linecap:round;stroke-linejoin:round;stroke-miterlimit:10;" cx="588.073" cy="263.842" r="3.7"/>
			
				<circle style="fill:#263238;stroke:#263238;stroke-linecap:round;stroke-linejoin:round;stroke-miterlimit:10;" cx="554.773" cy="263.842" r="3.7"/>
			<path style="fill:#263238;stroke:#263238;stroke-linecap:round;stroke-linejoin:round;stroke-miterlimit:10;" d="
				M562.173,263.842c0,2.043,1.657,3.7,3.7,3.7c2.044,0,3.7-1.656,3.7-3.7c0-2.043-1.656-3.7-3.7-3.7
				C563.83,260.142,562.173,261.799,562.173,263.842z"/>
			
				<circle style="fill:#263238;stroke:#263238;stroke-linecap:round;stroke-linejoin:round;stroke-miterlimit:10;" cx="576.973" cy="263.842" r="3.7"/>
		</g>
	</g>
</g>
<g id="Shadow">
	<path style="opacity:0.38;" d="M517.768,199.421l-0.518-0.177l0.334-3.94c0.011-0.128-0.029-0.255-0.112-0.353
		c-0.082-0.098-0.201-0.159-0.329-0.17l-83.695-7.097c-0.128-0.016-0.255,0.03-0.353,0.112c-0.098,0.083-0.16,0.202-0.17,0.329
		l-3.619,42.678c-4.737-3.202-14.43-8.955-23.53-14.241c-1.155-1.894-2.06-3.331-2.516-4c-0.738-1.083-1.861-2.18-3.139-3.226
		c0.722-0.49,1.306-0.969,1.677-1.427c3.257-4.023,6.623-11.835,6.756-12.147l1.197-2.502c0.848,0.413,1.909,0.7,2.946,0.7
		c0.872,0,1.723-0.201,2.401-0.694c2.358-1.715,8.516-13.233,5.659-17.313c-0.542-0.774-1.258-1.194-2.12-1.273l2.786-5.825
		c4.704,0.92,8.538,1.526,11.336,1.737c10.736,0.81,16.387,1.068,19.372,1.068c3.278,0,3.341-0.31,3.387-0.54
		c0.064-0.321-0.127-0.558-0.568-0.705c-2.168-0.723-19.067-10.162-21.46-12.156c-1.973-1.643-4.566-4.78-5.163-5.513
		c0.425-3.719,3.084-28.325-0.344-31.943c-3.673-3.878-36.804-16.079-41.603-16.79c-5.05-0.749-12.667,1.997-15.377,5.542
		c-0.024,0.032-0.044,0.066-0.06,0.102c-2.023,4.686-4.549,10.455-6.806,15.49c-0.003,0.006-0.008,0.009-0.011,0.015
		c-2.855,6.367-4.69,10.246-5.456,11.528c-0.014,0.023-0.017,0.051-0.027,0.076c-0.071,0.113-0.132,0.202-0.174,0.245
		c-1.424,0.865-27.781,3.919-30.317,3.919c-0.729,0-0.859,0.415-0.881,0.594c-0.19,1.529,8.962,5.965,29.523,11.667
		c-0.221,1.618-0.534,3.906-0.886,6.505c-3.594-0.663-5.911-0.618-7,0.155c-0.449,0.318-0.713,0.769-0.767,1.302
		c-0.192,1.921,0.62,4.122,0.808,4.6c0.008,0.836,0.124,6.52,1.9,9.283c0.612,0.952,1.558,1.787,2.693,2.491
		c-0.087,0.691-0.167,1.332-0.236,1.897c-0.581,4.762-0.528,10.635-0.116,15.27l-5.911-1.231c-0.004-0.001-0.007,0.001-0.011,0
		c-0.005-0.001-0.009-0.005-0.014-0.005c-0.071-0.01-0.142-0.002-0.211,0.018c-0.023,0.007-0.042,0.02-0.064,0.031
		c-0.031,0.014-0.064,0.023-0.091,0.044l-1.66,1.258l-10.697-3.566c-0.17-0.057-0.361-0.014-0.491,0.112l-7.722,7.519
		c-0.089,0.087-0.142,0.205-0.146,0.33l-0.11,3.034l-22.02,6.428c-11.944,2.979-24.385,6.455-24.836,8.11
		c-0.703,2.577-3.522,26.152-3.624,27.967c-0.233,0.435-1.931,2.162-3.575,3.833c-5.841,5.94-10.634,11.032-10.134,13.201
		c0.672,2.911,3.767,13.684,4.273,15.443c-1.345,1.871-10.946,15.522-8.317,20.302c3.186,5.792,9.089,16.102,12.827,20.075
		c3.119,3.314,5.823,4.798,9.02,4.798c0.873,0,1.784-0.111,2.749-0.325c0.523-0.116,2.548-0.402,5.688-0.813l-22.393,112.16
		c-0.028,0.142,0.009,0.29,0.1,0.402c0.092,0.112,0.229,0.177,0.375,0.177h161.493c0.131,0,0.255-0.053,0.346-0.146
		c0.092-0.094,0.141-0.22,0.138-0.35l-2.43-100.203c2.104,3.102,5.04,6.836,8.838,10.318c8.577,7.862,17.266,14.872,17.353,14.943
		c0.089,0.072,0.197,0.107,0.304,0.107c0.123,0,0.245-0.046,0.339-0.138c0.008-0.008,0.087-0.086,0.216-0.217
		c1.323-1.336,7.63-7.97,11.938-16.894c0.147-0.302,0.29-0.608,0.431-0.915c2.884-0.214,5.487-0.529,6.052-0.6
		c0.168,0.047,0.542,0.149,1.044,0.276c0.688,2.135,1.276,3.562,1.664,3.756c0.788,0.394,2.187,0.59,3.586,0.59
		c1.309,0,2.612-0.175,3.42-0.52c0.779,0.157,2.242,0.41,3.612,0.41c1.117,0,2.16-0.173,2.709-0.7
		c0.694,0.502,2.079,1.379,3.299,1.379c0.314,0,0.617-0.059,0.893-0.197c0.812-0.406,2.077-2.997,3.268-6.046
		c0.466,2.183,1.348,5.791,2.37,7.325c0.642,0.964,1.602,1.486,2.72,1.486c0.075,0,0.151-0.003,0.227-0.007
		c1.251-0.078,2.461-0.805,2.944-1.771c0.833-1.666-0.757-14.461-1.203-15.355c-0.479-0.959-2.845-1.595-4.021-1.857
		c0.142-3.958-6.701-6.434-7.694-6.771c-1.251-1.381-8.462-4.762-10.107-5.523c-0.937-0.886-7.506-6.292-9.541-6.801
		c-1.999-0.5-4.602,0.421-6.477,2.293c-0.094,0.094-0.141,0.217-0.142,0.341c-0.526,0.37-1.047,0.813-1.555,1.356
		c-0.156,0.167-0.344,0.356-0.546,0.554c-2.732-2.126-5.133-4.08-5.423-4.564c-0.624-1.041-2.367-2.694-2.994-3.274
		c0.066-0.227,0.161-0.557,0.271-0.948l53.841,4.565c0.013,0.001,0.028,0.002,0.042,0.002c0.249,0,0.461-0.191,0.482-0.444
		l5.791-68.289l1.213-0.483c1.102-0.439,1.849-1.445,1.95-2.627l3.004-35.428C519.981,201.202,519.122,199.883,517.768,199.421z"/>
</g>
<g id="Character">
	<g>
		<g>
			<path style="fill:#F13434;stroke:#263238;stroke-linecap:round;stroke-linejoin:round;stroke-miterlimit:10;" d="
				M378.732,226.789l17.391,63.85c0,0,6.211,0.249,6.46,1.739c0.248,1.491-2.236,9.938-2.236,9.938s2.484,2.236,3.23,3.478
				c0.745,1.242,11.428,9.192,11.428,9.192s3.975,3.975-0.249,17.143c-4.223,13.167-14.907,23.602-14.907,23.602
				s-8.944-7.205-17.888-15.404c-8.944-8.199-13.167-17.64-13.167-17.64s-3.727-38.757-3.478-43.726
				C365.565,273.993,378.732,226.789,378.732,226.789z"/>
			<path style="fill:none;stroke:#263238;stroke-linecap:round;stroke-linejoin:round;stroke-miterlimit:10;" d="M379.492,311.335
				c3.187-4.352,7.694-10.188,9.675-11.255c3.23-1.739,8.944,1.739,8.944,1.739"/>
			<path style="fill:none;stroke:#263238;stroke-linecap:round;stroke-linejoin:round;stroke-miterlimit:10;" d="M376,316.229
				c0,0,0.96-1.392,2.38-3.362"/>
			<path style="fill:none;stroke:#263238;stroke-linecap:round;stroke-linejoin:round;stroke-miterlimit:10;" d="M392.148,291.881
				c0,0-9.192-0.248-13.664,6.211"/>
			<path style="fill:#263238;stroke:#263238;stroke-linecap:round;stroke-linejoin:round;stroke-miterlimit:10;" d="
				M414.757,332.129c4.223-13.167,0.248-17.143,0.248-17.143s-0.881-0.656-2.152-1.618l-0.581,0.376c0,0-12.671,2.484-17.143,6.708
				c-4.472,4.224-6.211,14.161-3.727,18.882c2.484,4.72,8.447,16.397,8.447,16.397l0.043-0.043
				C400.605,354.983,410.683,344.829,414.757,332.129z"/>
		</g>
		<g>
			<path style="fill:#F13434;stroke:#263238;stroke-linecap:round;stroke-linejoin:round;stroke-miterlimit:10;" d="
				M273.144,194.243l-39.999,11.677l3.478,83.229l-28.819,144.346h166.705l-3.727-154.035c0,0,8.199-51.179,7.95-52.67
				c-0.248-1.491-38.012-23.105-38.012-23.105S293.02,189.771,273.144,194.243z"/>
			<polygon style="fill:#F13434;stroke:#263238;stroke-linecap:round;stroke-linejoin:round;stroke-miterlimit:10;" points="
				280.118,433.494 220.977,367.514 207.803,433.494 			"/>
			
				<line style="fill:none;stroke:#263238;stroke-linecap:round;stroke-linejoin:round;stroke-miterlimit:10;" x1="302.919" y1="418.798" x2="301.45" y2="431.43"/>
			
				<line style="fill:none;stroke:#263238;stroke-linecap:round;stroke-linejoin:round;stroke-miterlimit:10;" x1="315.181" y1="313.415" x2="303.702" y2="412.077"/>
			<polyline style="fill:none;stroke:#263238;stroke-linecap:round;stroke-linejoin:round;stroke-miterlimit:10;" points="
				357.863,218.342 377.49,230.764 376,225.05 356.124,212.876 			"/>
		</g>
		<path style="fill:#F13434;stroke:#263238;stroke-linecap:round;stroke-linejoin:round;stroke-miterlimit:10;" d="M289.514,187.657
			l-11.327-3.776l-7.971,7.761l-1.468,40.485l25.801,2.727c0,0-21.396,20.767-18.04,24.962c3.356,4.195,23.494,23.704,37.339,30.626
			c13.845,6.922,10.279,5.664,10.279,5.664l4.825-13.215c0,0-31.675-80.76-31.885-81.39
			C296.855,200.872,289.514,187.657,289.514,187.657z"/>
		<path style="fill:#F13434;stroke:#263238;stroke-linecap:round;stroke-linejoin:round;stroke-miterlimit:10;" d="M328.95,282.891
			l-12.376,26.85c0,0,19.299-13.215,34.192-30.206c14.893-16.991,18.669-24.543,16.991-28.528s-18.879-15.942-18.879-15.942
			s15.313,1.888,16.572,1.049c1.259-0.839-13.425-25.801-16.572-30.416c-3.146-4.615-13.425-9.649-13.425-9.649
			S340.697,249.748,328.95,282.891z"/>
		<path style="fill:#F13434;stroke:#263238;stroke-linecap:round;stroke-linejoin:round;stroke-miterlimit:10;" d="M372.24,359.841
			v-20.148l-1.457-60.233c0,0,8.199-51.179,7.95-52.67c-0.153-0.918-14.542-9.473-25.568-15.906
			c-3.628-2.117-9.544-13.812-11.066-7.856l-9.882,55.96l-16.011,45.44L268.441,253.6l-36.812,60.562l-0.384,1.921L372.24,359.841z"
			/>
		<path style="fill:#FFFFFF;stroke:#263238;stroke-linecap:round;stroke-linejoin:round;stroke-miterlimit:10;" d="M291.401,186.189
			l10.069,2.098l17.411,31.045C318.881,219.332,294.758,194.789,291.401,186.189z"/>
		<path style="fill:#FFFFFF;stroke:#263238;stroke-linecap:round;stroke-linejoin:round;stroke-miterlimit:10;" d="M284.479,191.433
			c0,0,5.244,24.333,19.089,46.778s26.221,40.275,26.221,40.275s12.586-24.753,13.425-34.821c0.839-10.069,0-25.592,0-25.592
			L284.479,191.433z"/>
		<polygon style="fill:#8E2086;stroke:#263238;stroke-linecap:round;stroke-linejoin:round;stroke-miterlimit:10;" points="
			315.525,232.757 326.852,245.133 322.237,259.397 329.16,272.193 337.97,255.202 331.887,243.036 339.019,231.079 
			327.901,221.849 		"/>
		<path style="fill:#FFFFFF;stroke:#263238;stroke-linecap:round;stroke-linejoin:round;stroke-miterlimit:10;" d="M329.579,227.093
			L310.7,239.26c0,0-11.328-14.893-17.621-26.85c-6.293-11.957-8.6-20.977-8.6-20.977l6.922-5.244
			C291.401,186.189,313.217,217.024,329.579,227.093z"/>
		<path style="fill:#FFFFFF;stroke:#263238;stroke-linecap:round;stroke-linejoin:round;stroke-miterlimit:10;" d="M329.579,227.093
			l13.845,12.376c0,0,2.727-13.215,1.259-20.557c-1.468-7.342-2.937-13.425-2.937-13.425S335.243,222.688,329.579,227.093z"/>
		<g>
			<path style="fill:#263238;stroke:#263238;stroke-linecap:round;stroke-linejoin:round;stroke-miterlimit:10;" d="
				M309.022,209.683c0,0,11.537,10.488,15.313,13.215c1.295,0.935,5.244,4.195,5.244,4.195s4.299-4.955,5.244-6.293
				c2.517-3.566,5.664-8.6,5.664-8.6l5.034-12.586L309.022,209.683z"/>
		</g>
		<path style="fill:#F13434;stroke:#263238;stroke-linecap:round;stroke-linejoin:round;stroke-miterlimit:10;" d="M284.479,191.433
			c0,0,16.781,33.982,29.158,50.973c12.376,16.991,16.362,27.899,16.362,27.899s10.279-20.767,11.537-26.85
			c1.259-6.083,2.937-28.109,2.937-28.109s3.566,18.04-1.468,36.499c-5.034,18.46-14.054,31.046-14.054,31.046
			s-21.396-33.353-30.207-48.456C289.933,219.332,284.479,191.433,284.479,191.433z"/>
		<g>
			<path style="fill:#FFFFFF;stroke:#263238;stroke-linecap:round;stroke-linejoin:round;stroke-miterlimit:10;" d="M302.17,141.647
				c0,0-2.962,21.525-3.95,29.622c-0.987,8.097-0.198,18.761,0.987,22.315s5.924,18.365,9.874,19.156
				c3.95,0.79,8.097,1.382,11.256-0.395c3.16-1.777,23.698-7.899,27.055-12.046c3.357-4.147,6.912-12.441,6.912-12.441
				l15.206-31.794L302.17,141.647z"/>
			<path style="fill:#263238;stroke:#263238;stroke-linecap:round;stroke-linejoin:round;stroke-miterlimit:10;" d="
				M358.452,155.865c0,0-5.924,6.122-3.95,7.109c1.975,0.987,3.357,1.777,3.357,1.777s-2.962,4.937-2.172,5.727
				c0.79,0.79,7.702-1.58,7.702-1.58l5.332-11.454L358.452,155.865z"/>
			<g>
				<path style="fill:#263238;stroke:#263238;stroke-linecap:round;stroke-linejoin:round;stroke-miterlimit:10;" d="
					M315.893,156.997c0,0-6.483-3.555-12.547-5.019c-6.064-1.464-10.247-1.673-10.456,0.418c-0.209,2.091,0.837,4.601,0.837,4.601
					s0,6.483,1.882,9.41c1.882,2.928,7.11,4.81,11.292,5.019c4.182,0.209,6.483-1.046,7.737-3.137
					c0.861-1.435,2.017-5.823,2.658-8.436C317.583,158.685,316.992,157.485,315.893,156.997L315.893,156.997z"/>
				<path style="fill:#263238;stroke:#263238;stroke-linecap:round;stroke-linejoin:round;stroke-miterlimit:10;" d="
					M325.274,159.719c0,0,8.051-0.28,14.67,1.27c6.619,1.55,10.791,3.397,9.969,5.535c-0.822,2.137-3.07,4.066-3.07,4.066
					s-3.179,6.308-6.446,8.233c-3.267,1.926-9.277,1.193-13.449-0.654c-4.172-1.848-5.795-4.197-5.99-6.847
					c-0.134-1.818,0.893-6.655,1.551-9.512C322.802,160.533,323.965,159.655,325.274,159.719L325.274,159.719z"/>
				<path style="fill:#263238;stroke:#263238;stroke-linecap:round;stroke-linejoin:round;stroke-miterlimit:10;" d="
					M315.893,156.997l9.381,2.722l-2.766,2.091c0,0-3.702-1.653-5.194-1.264C317.314,160.546,317.714,157.792,315.893,156.997z"/>
			</g>
			<path style="fill:#263238;stroke:#263238;stroke-linecap:round;stroke-linejoin:round;stroke-miterlimit:10;" d="
				M349.298,165.076l14.859,2.308l-0.768,1.515l-15.822,0.794C347.567,169.692,350.596,167.384,349.298,165.076z"/>
			<path style="fill:#FFFFFF;stroke:#263238;stroke-linecap:round;stroke-linejoin:round;stroke-miterlimit:10;" d="
				M357.662,171.663c0,0,6.517-7.702,9.281-3.752c2.765,3.95-3.555,15.601-5.727,17.181c-2.172,1.58-6.517-0.197-6.517-1.58"/>
			<path style="fill:none;stroke:#263238;stroke-linecap:round;stroke-linejoin:round;stroke-miterlimit:10;" d="M326.649,157.574
				c0,0,11.541-2.741,19.331,2.308"/>
			<path style="fill:none;stroke:#263238;stroke-linecap:round;stroke-linejoin:round;stroke-miterlimit:10;" d="M307.751,149.929
				c0,0,5.482-0.144,9.088,5.049"/>
			<path style="fill:none;stroke:#263238;stroke-linecap:round;stroke-linejoin:round;stroke-miterlimit:10;" d="M315.253,166.807
				c0,0-7.501,14.714-7.79,16.157c-0.289,1.443,6.059,2.885,8.944,3.029c2.885,0.144,3.029-1.298,3.029-1.298"/>
			
				<line style="fill:none;stroke:#263238;stroke-linecap:round;stroke-linejoin:round;stroke-miterlimit:10;" x1="309.482" y1="193.783" x2="314.676" y2="195.226"/>
		</g>
		<g>
			<path style="fill:#F13434;stroke:#263238;stroke-linecap:round;stroke-linejoin:round;stroke-miterlimit:10;" d="M316.388,99.386
				c0,0-11.849,27.45-13.034,28.437c-1.185,0.987-29.029,4.147-31.597,4.147s6.319,5.924,40.088,14.416
				c33.769,8.492,57.466,14.416,67.933,15.206s25.08,1.58,22.71,0.79c-2.37-0.79-19.945-10.664-22.315-12.639
				c-2.37-1.975-5.529-5.924-5.529-5.924s3.357-29.029-0.198-32.781s-37.323-16.391-42.655-17.181
				C326.46,93.067,318.956,96.029,316.388,99.386z"/>
			<path style="fill:none;stroke:#263238;stroke-linecap:round;stroke-linejoin:round;stroke-miterlimit:10;" d="M350.713,121.033
				c1.724,0.587,3.361,0.904,4.776,0.866"/>
			<path style="fill:none;stroke:#263238;stroke-linecap:round;stroke-linejoin:round;stroke-miterlimit:10;" d="M362.796,114.197
				c0,0-28.634-15.206-28.24-8.294c0.276,4.821,6.795,10.794,13.194,13.9"/>
			<path style="fill:#263238;stroke:#263238;stroke-linecap:round;stroke-linejoin:round;stroke-miterlimit:10;" d="
				M309.349,115.398c-2.406,5.367-4.726,10.39-5.659,11.952c3.776,2.194,10.216,5.167,21.19,8.767
				c24.685,8.097,49.765,7.702,49.765,7.702s0.603-5.229,1.028-11.531c-6.234-1.148-16.431-3.029-29.465-5.452
				C326.958,123.258,312.861,117.04,309.349,115.398z"/>
			
				<line style="fill:none;stroke:#FFFFFF;stroke-linecap:round;stroke-linejoin:round;stroke-miterlimit:10;" x1="316.086" y1="119.963" x2="314.019" y2="125.058"/>
			
				<line style="fill:none;stroke:#263238;stroke-linecap:round;stroke-linejoin:round;stroke-miterlimit:10;" x1="323.571" y1="101.508" x2="316.086" y2="119.963"/>
			
				<line style="fill:none;stroke:#263238;stroke-linecap:round;stroke-linejoin:round;stroke-miterlimit:10;" x1="325.473" y1="96.819" x2="324.108" y2="100.183"/>
		</g>
		<path style="fill:#FFFFFF;stroke:#263238;stroke-linecap:round;stroke-linejoin:round;stroke-miterlimit:10;" d="M456.815,305.393
			l-86.397-7.326l9.992-117.836l86.397,7.326l-0.378,4.456l0.904,0.309c1.177,0.403,1.929,1.555,1.824,2.795l-3.101,36.572
			c-0.087,1.023-0.744,1.91-1.698,2.29l-1.54,0.613L456.815,305.393z"/>
		<g>
			<path style="fill:#A1A1A1;stroke:#263238;stroke-linecap:round;stroke-linejoin:round;stroke-miterlimit:10;" d="
				M346.435,274.739c0,0,18.633-26.583,19.627-27.08c0.994-0.497,19.627-3.23,20.869-3.478c1.242-0.248,14.907,3.975,14.907,3.975
				s1.242,1.988-0.497,3.23c-1.739,1.242-1.739,1.242-1.739,1.242s1.242,2.981,1.242,4.223c0,1.242-1.491,2.981-1.491,2.981
				s0.994,2.981-0.248,4.224c-1.242,1.242-11.428,3.478-12.174,3.727c-0.745,0.249-6.956,5.714-6.956,5.714
				s9.192-1.242,12.174-1.739c2.981-0.497,5.217,0.497,4.472,2.733c-0.745,2.236-3.478,2.981-5.714,3.478
				c-2.236,0.497-15.404,4.224-15.404,4.224s-10.435,8.696-15.652,10.186c-5.217,1.491-14.907,3.23-14.907,3.23L346.435,274.739z"/>
			<polyline style="fill:none;stroke:#263238;stroke-linecap:round;stroke-linejoin:round;stroke-miterlimit:10;" points="
				399.602,252.627 385.937,251.137 371.528,254.367 			"/>
			<polyline style="fill:none;stroke:#263238;stroke-linecap:round;stroke-linejoin:round;stroke-miterlimit:10;" points="
				399.353,259.832 387.676,258.839 373.267,265.05 			"/>
		</g>
		<polygon style="fill:#A1A1A1;stroke:#263238;stroke-linecap:round;stroke-linejoin:round;stroke-miterlimit:10;" points="
			337.242,270.764 348.671,271.509 346.932,299.832 334.509,300.08 		"/>
		<path style="fill:#F13434;stroke:#263238;stroke-linecap:round;stroke-linejoin:round;stroke-miterlimit:10;" d="M266.685,197.225
			c0,0-44.223,9.938-44.968,12.671c-0.745,2.733-3.727,27.826-3.727,28.82c0,0.994-14.907,14.161-14.161,17.391
			c0.745,3.23,4.472,16.149,4.472,16.149s-11.428,15.652-8.695,20.621c2.733,4.969,9.192,16.397,13.167,20.621
			c3.975,4.224,7.205,5.466,11.677,4.472c4.472-0.994,112.296-13.664,112.296-13.664l3.23-34.037l-73.539-5.963
			c0,0,1.988-13.416,2.236-16.397c0.248-2.981-4.224-9.689-8.696-15.9"/>
		<path style="fill:none;stroke:#263238;stroke-linecap:round;stroke-linejoin:round;stroke-miterlimit:10;" d="M214.543,275.003
			c-2.262,1.833-3.888,3.4-4.255,4.208"/>
		<path style="fill:none;stroke:#263238;stroke-linecap:round;stroke-linejoin:round;stroke-miterlimit:10;" d="M262.709,263.807
			c0,0-23.602-0.745-29.565,0.248c-3.163,0.527-9.052,3.99-14.071,7.535"/>
		<path style="fill:none;stroke:#263238;stroke-linecap:round;stroke-linejoin:round;stroke-miterlimit:10;" d="M230.412,261.074
			c0,0-15.9,1.988-15.404-0.745c0.497-2.733,10.186-3.727,18.385-3.23c8.199,0.497,14.907,4.224,14.907,4.224"/>
		<path style="fill:none;stroke:#263238;stroke-linecap:round;stroke-linejoin:round;stroke-miterlimit:10;" d="M254.615,236.734
			c-3.794-3.679-8.663-7.957-10.787-7.957c-3.727,0-17.391,4.969-17.391,4.969"/>
		<path style="fill:none;stroke:#263238;stroke-linecap:round;stroke-linejoin:round;stroke-miterlimit:10;" d="M259.728,241.944
			c0,0-1.372-1.484-3.336-3.455"/>
		<path style="fill:none;stroke:#263238;stroke-linecap:round;stroke-linejoin:round;stroke-miterlimit:10;" d="M262.239,209.375
			c2.082-1.031,3.452-1.716,3.452-1.716"/>
		<path style="fill:none;stroke:#263238;stroke-linecap:round;stroke-linejoin:round;stroke-miterlimit:10;" d="M257.492,200.206
			c0,0-26.583,9.441-25.341,10.932c1.242,1.491,8.199,7.95,9.938,7.702c1.089-0.156,10.065-4.498,16.626-7.724"/>
		<path style="fill:none;stroke:#263238;stroke-linecap:round;stroke-linejoin:round;stroke-miterlimit:10;" d="M244.822,212.38
			c0,1.235-1.446,2.236-3.23,2.236c-1.784,0-3.23-1.001-3.23-2.236c0-1.235,1.446-2.236,3.23-2.236
			C243.376,210.144,244.822,211.145,244.822,212.38z"/>
		<g>
			<path style="fill:#A1A1A1;stroke:#263238;stroke-linecap:round;stroke-linejoin:round;stroke-miterlimit:10;" d="
				M392.148,325.173c0,0,14.907-11.428,18.385-15.155c3.478-3.727,7.702-2.981,9.192-1.988c1.491,0.994,19.379,18.882,20.869,20.372
				c1.491,1.491-0.994,7.453-0.994,7.453s-7.95,1.988-11.428,1.988c-3.478,0-8.696-1.491-8.696-1.491s-11.677,1.491-14.658,0.497
				C401.838,335.856,392.148,325.173,392.148,325.173z"/>
			<path style="fill:#A1A1A1;stroke:#263238;stroke-linecap:round;stroke-linejoin:round;stroke-miterlimit:10;" d="
				M398.856,324.427c0,0,13.167,10.435,12.919,11.428c-0.248,0.994-5.963,5.217-7.95,5.217c-1.987,0-13.416-10.932-14.41-12.671
				c-0.994-1.739,5.466-4.223,6.211-4.472"/>
			<path style="fill:#A1A1A1;stroke:#263238;stroke-linecap:round;stroke-linejoin:round;stroke-miterlimit:10;" d="
				M414.757,312.502c0,0,6.211,27.329,7.702,28.074c1.491,0.745,5.466,0.745,6.956,0c1.491-0.745-0.497-26.832-1.242-27.577
				c-0.745-0.745-7.702-6.46-9.689-6.956c-1.988-0.497-4.472,0.497-6.211,2.236"/>
			<path style="fill:#A1A1A1;stroke:#263238;stroke-linecap:round;stroke-linejoin:round;stroke-miterlimit:10;" d="
				M428.173,312.999c0,0,9.689,4.472,10.435,5.714c0.745,1.242-2.236,19.627-2.733,21.366c-0.497,1.739-6.46,0.497-6.46,0.497
				L428.173,312.999z"/>
			<path style="fill:#A1A1A1;stroke:#263238;stroke-linecap:round;stroke-linejoin:round;stroke-miterlimit:10;" d="
				M438.607,318.713c0,0,8.447,2.733,7.702,6.956c-0.745,4.224-4.72,15.155-6.211,15.9c-1.491,0.745-4.224-1.491-4.224-1.491
				L438.607,318.713z"/>
			<path style="fill:#A1A1A1;stroke:#263238;stroke-linecap:round;stroke-linejoin:round;stroke-miterlimit:10;" d="M446.309,325.67
				c0,0,3.727,0.745,4.224,1.739c0.497,0.994,1.987,13.913,1.242,15.403c-0.745,1.491-3.727,2.484-5.217,0.249
				c-1.491-2.236-2.733-9.192-2.733-9.192L446.309,325.67z"/>
		</g>
		<g>
			<g>
				<g>
					<path style="fill:#F13434;" d="M391.1,225.11l-1.652-11.164l-2.107,0.312l-0.191-1.292l5.889-0.872l0.191,1.292l-2.045,0.303
						l1.653,11.164L391.1,225.11z"/>
				</g>
				<g>
					<path style="fill:#F13434;" d="M399.286,224.04c-0.84,0.125-1.536,0.06-2.086-0.194c-0.552-0.254-0.979-0.67-1.286-1.247
						c-0.305-0.578-0.518-1.277-0.64-2.098l-0.7-4.72c-0.121-0.82-0.115-1.541,0.019-2.163c0.133-0.622,0.424-1.126,0.876-1.513
						c0.45-0.386,1.097-0.641,1.938-0.766c0.84-0.124,1.53-0.064,2.069,0.181c0.54,0.245,0.963,0.644,1.27,1.195
						c0.306,0.552,0.521,1.238,0.642,2.057l0.702,4.737c0.12,0.81,0.114,1.534-0.017,2.171c-0.132,0.637-0.418,1.159-0.861,1.564
						C400.768,223.65,400.126,223.915,399.286,224.04z M399.083,222.671c0.462-0.068,0.796-0.215,1.004-0.439
						c0.207-0.225,0.327-0.515,0.358-0.87c0.031-0.355,0.013-0.764-0.055-1.225l-0.808-5.459c-0.068-0.462-0.169-0.852-0.3-1.174
						c-0.13-0.321-0.328-0.554-0.59-0.698c-0.263-0.144-0.624-0.183-1.086-0.114c-0.461,0.068-0.799,0.21-1.013,0.425
						c-0.214,0.215-0.337,0.495-0.37,0.841c-0.033,0.346-0.016,0.748,0.053,1.21l0.808,5.458c0.068,0.461,0.169,0.858,0.302,1.189
						c0.133,0.332,0.333,0.574,0.602,0.728C398.257,222.697,398.622,222.74,399.083,222.671z"/>
				</g>
				<g>
					<path style="fill:#F13434;" d="M404.371,223.146l-1.844-12.455l3.091-0.458c0.748-0.111,1.365-0.064,1.852,0.142
						c0.485,0.207,0.869,0.55,1.15,1.032c0.281,0.482,0.476,1.087,0.584,1.814c0.097,0.657,0.066,1.243-0.093,1.758
						c-0.159,0.516-0.446,0.938-0.858,1.267c-0.413,0.327-0.956,0.542-1.633,0.642l-1.368,0.203l0.858,5.797L404.371,223.146z
						 M405.065,215.846l0.8-0.118c0.502-0.074,0.889-0.188,1.159-0.344c0.27-0.155,0.446-0.383,0.527-0.684
						c0.082-0.3,0.085-0.706,0.008-1.219c-0.088-0.594-0.2-1.044-0.333-1.349c-0.135-0.304-0.348-0.498-0.644-0.581
						c-0.295-0.082-0.735-0.08-1.319,0.007l-0.815,0.121L405.065,215.846z"/>
				</g>
				<g>
					<path style="fill:#F13434;" d="M418.23,221.235c-0.718,0.107-1.337,0.041-1.86-0.196c-0.523-0.237-0.946-0.609-1.272-1.116
						c-0.327-0.507-0.564-1.116-0.711-1.828l1.476-0.643c0.096,0.436,0.229,0.852,0.396,1.246c0.169,0.394,0.395,0.703,0.68,0.929
						c0.285,0.225,0.647,0.305,1.088,0.24c0.451-0.067,0.774-0.243,0.967-0.528c0.195-0.285,0.256-0.663,0.185-1.135
						c-0.083-0.564-0.278-0.998-0.586-1.304c-0.306-0.306-0.68-0.604-1.122-0.895l-2.364-1.535
						c-0.464-0.299-0.825-0.646-1.082-1.042c-0.258-0.397-0.433-0.908-0.526-1.533c-0.135-0.912,0.022-1.659,0.471-2.239
						c0.448-0.58,1.123-0.936,2.026-1.07c0.492-0.073,0.934-0.072,1.327,0c0.393,0.073,0.736,0.223,1.027,0.454
						c0.29,0.229,0.539,0.535,0.748,0.917c0.209,0.383,0.379,0.842,0.511,1.379l-1.418,0.618c-0.091-0.405-0.208-0.773-0.351-1.103
						c-0.144-0.33-0.347-0.583-0.609-0.759c-0.261-0.176-0.607-0.232-1.038-0.169c-0.431,0.064-0.749,0.229-0.956,0.496
						c-0.206,0.265-0.276,0.625-0.21,1.075c0.056,0.379,0.167,0.683,0.331,0.91c0.165,0.227,0.41,0.448,0.735,0.661l2.379,1.533
						c0.533,0.34,1.019,0.768,1.463,1.284c0.443,0.515,0.721,1.163,0.837,1.942c0.091,0.615,0.041,1.164-0.149,1.649
						c-0.19,0.483-0.491,0.877-0.901,1.178C419.313,220.955,418.814,221.149,418.23,221.235z"/>
				</g>
				<g>
					<path style="fill:#F13434;" d="M422.546,220.456L420.702,208l4.829-0.715l0.191,1.292l-3.091,0.458l0.611,4.121l2.507-0.371
						l0.181,1.23l-2.507,0.371l0.677,4.567l3.122-0.462l0.184,1.246L422.546,220.456z"/>
				</g>
				<g>
					<path style="fill:#F13434;" d="M431.946,219.205c-0.882,0.13-1.593,0.048-2.134-0.25c-0.541-0.297-0.954-0.744-1.236-1.341
						c-0.283-0.597-0.48-1.28-0.594-2.049l-0.651-4.398c-0.124-0.84-0.139-1.588-0.041-2.241c0.097-0.653,0.364-1.188,0.8-1.603
						c0.436-0.415,1.095-0.688,1.977-0.819c0.778-0.115,1.418-0.064,1.917,0.156c0.499,0.219,0.887,0.581,1.165,1.084
						c0.28,0.503,0.474,1.129,0.585,1.878l0.146,0.983l-1.646,0.244l-0.129-0.877c-0.068-0.461-0.152-0.865-0.25-1.212
						c-0.098-0.347-0.265-0.603-0.499-0.766c-0.234-0.165-0.591-0.211-1.073-0.14c-0.493,0.073-0.835,0.231-1.029,0.474
						c-0.195,0.244-0.297,0.562-0.307,0.957c-0.009,0.394,0.024,0.848,0.099,1.36l0.731,4.936c0.092,0.625,0.217,1.113,0.374,1.461
						c0.156,0.349,0.363,0.583,0.622,0.701c0.259,0.119,0.588,0.149,0.987,0.09c0.472-0.069,0.795-0.225,0.969-0.466
						c0.174-0.24,0.259-0.549,0.256-0.926c-0.003-0.376-0.041-0.811-0.114-1.302l-0.137-0.923l1.645-0.243l0.137,0.923
						c0.113,0.759,0.119,1.441,0.021,2.047c-0.098,0.607-0.35,1.104-0.753,1.495C433.378,218.828,432.765,219.084,431.946,219.205z"
						/>
				</g>
				<g>
					<path style="fill:#F13434;" d="M436.723,218.357l-1.844-12.456l2.508-0.37c0.83-0.123,1.533-0.115,2.109,0.025
						c0.576,0.14,1.03,0.434,1.364,0.882c0.333,0.448,0.559,1.067,0.676,1.856c0.071,0.482,0.084,0.928,0.04,1.338
						c-0.044,0.41-0.159,0.767-0.345,1.072c-0.184,0.305-0.453,0.547-0.804,0.723l2.693,5.982l-1.677,0.248l-2.495-5.602l-1.352,0.2
						l0.864,5.844L436.723,218.357z M437.411,211.01l0.661-0.098c0.493-0.072,0.883-0.194,1.172-0.362
						c0.29-0.169,0.483-0.412,0.584-0.731c0.099-0.318,0.11-0.744,0.031-1.278c-0.108-0.728-0.319-1.233-0.633-1.517
						c-0.315-0.283-0.865-0.366-1.655-0.249l-0.769,0.114L437.411,211.01z"/>
				</g>
				<g>
					<path style="fill:#F13434;" d="M444.704,217.176l-1.844-12.455l4.829-0.715l0.191,1.292l-3.091,0.458l0.61,4.121l2.508-0.372
						l0.182,1.231l-2.508,0.371l0.677,4.567l3.121-0.462l0.184,1.246L444.704,217.176z"/>
				</g>
				<g>
					<path style="fill:#F13434;" d="M452.332,216.047l-1.653-11.164l-2.107,0.312l-0.191-1.292l5.89-0.871l0.191,1.292l-2.045,0.303
						l1.652,11.164L452.332,216.047z"/>
				</g>
			</g>
			<g>
				<path style="fill:#F13434;" d="M389.387,229.502c-1.013,0-1.995-0.327-2.817-0.949c-0.999-0.755-1.644-1.854-1.817-3.095
					l-1.804-12.975c-0.356-2.561,1.438-4.934,3.999-5.291l41.056-5.708l0.146,1.049l-41.056,5.708
					c-1.982,0.276-3.371,2.113-3.096,4.095l1.805,12.976c0.134,0.96,0.633,1.811,1.407,2.395c0.773,0.584,1.729,0.831,2.688,0.7
					l8.639-1.201l0.146,1.049l-8.639,1.201C389.824,229.487,389.605,229.502,389.387,229.502z"/>
			</g>
			<g>
				<path style="fill:#F13434;" d="M404.175,227.491l-0.146-1.049l51.499-7.16c1.983-0.276,3.371-2.113,3.096-4.095l-1.804-12.976
					c-0.276-1.981-2.109-3.367-4.095-3.095l-20.854,2.899l-0.146-1.049l20.853-2.899c2.565-0.362,4.935,1.437,5.292,3.999
					l1.804,12.976c0.357,2.561-1.438,4.934-3.998,5.291L404.175,227.491z"/>
			</g>
		</g>
	</g>
</g>
<g id="File_Cabinet">
	<g>
		
			<rect x="339.763" y="312.511" style="fill:#4F4F4F;stroke:#263238;stroke-linecap:round;stroke-linejoin:round;stroke-miterlimit:10;" width="45.488" height="112.235"/>
		
			<rect x="346.152" y="340.78" style="fill:#FFFFFF;stroke:#263238;stroke-linecap:round;stroke-linejoin:round;stroke-miterlimit:10;" width="141.766" height="82.278"/>
		
			<rect x="330.789" y="312.511" style="fill:#FFFFFF;stroke:#263238;stroke-linecap:round;stroke-linejoin:round;stroke-miterlimit:10;" width="10.762" height="112.235"/>
		
			<rect x="465.111" y="303.975" style="fill:#FFFFFF;stroke:#263238;stroke-linecap:round;stroke-linejoin:round;stroke-miterlimit:10;" width="145.106" height="129.519"/>
		
			<rect x="601.509" y="303.975" style="fill:#263238;stroke:#263238;stroke-linecap:round;stroke-linejoin:round;stroke-miterlimit:10;" width="43.791" height="129.519"/>
	</g>
</g>
<g id="Lamp">
	<g>
		<g>
			<path style="fill:#263238;" d="M145.725,248.52l-11.763-3.697c-0.022-0.012-0.04-0.028-0.062-0.039
				c-0.344-0.172-0.704-0.264-1.065-0.315l-0.015-0.005c-2.047-0.641-4.228,0.494-4.871,2.541c-0.22,0.699-0.218,1.409-0.057,2.073
				L78.031,349.244c-1.058-0.372-2.191-0.584-3.374-0.584c-5.636,0-10.221,4.585-10.221,10.221c0,5.412,4.23,9.843,9.556,10.188
				l35.057,60.677h8.004l-36.241-62.724c2.464-1.868,4.065-4.817,4.065-8.141c0-1.853-0.503-3.587-1.369-5.088l50.224-100.897
				l9.663,3.037c0.388,0.121,0.78,0.18,1.166,0.18c1.652,0,3.184-1.062,3.705-2.721C148.91,251.344,147.772,249.163,145.725,248.52z
				"/>
			
				<rect x="73.1" y="425.252" style="fill:#263238;stroke:#263238;stroke-linecap:round;stroke-linejoin:round;stroke-miterlimit:10;" width="102.12" height="8.436"/>
		</g>
		<g>
			
				<rect x="139.306" y="238.432" transform="matrix(0.1582 -0.9874 0.9874 0.1582 -120.1365 363.1178)" style="fill:#263238;stroke:#263238;stroke-linecap:round;stroke-linejoin:round;stroke-miterlimit:10;" width="27.165" height="27.165"/>
			<polygon style="fill:#263238;stroke:#263238;stroke-linecap:round;stroke-linejoin:round;stroke-miterlimit:10;" points="
				194.738,231.207 186.144,284.854 161.469,267.145 165.766,240.322 			"/>
		</g>
	</g>
</g>
<g id="Table">
	<g>
		
			<line style="fill:none;stroke:#263238;stroke-linecap:round;stroke-linejoin:round;stroke-miterlimit:10;" x1="63.358" y1="433.494" x2="668.67" y2="433.494"/>
		
			<line style="fill:none;stroke:#263238;stroke-linecap:round;stroke-linejoin:round;stroke-miterlimit:10;" x1="111.513" y1="433.494" x2="127.075" y2="433.494"/>
	</g>
</g>
</svg>
