<?xml version="1.0" encoding="iso-8859-1"?>
<!-- Generator: Adobe Illustrator 27.3.1, SVG Export Plug-In . SVG Version: 6.00 Build 0)  -->
<svg version="1.1" xmlns="http://www.w3.org/2000/svg" xmlns:xlink="http://www.w3.org/1999/xlink" x="0px" y="0px"
	 viewBox="0 0 500 500" style="enable-background:new 0 0 500 500;" xml:space="preserve">
<g id="Background_Simple">
	<g>
		<path style="fill:#F13434;" d="M125.155,464.31c-2.993-1.275-5.942-2.62-8.836-4.045c-38.517-18.982-67.402-54.513-82.698-90.47
			c-6.709-15.751-11.134-32.198-13.651-48.828C3.513,211.882,95.152,160.911,116,122.848
			c20.848-38.063,57.141-96.953,146.833-100.077c68.194-2.386,136.881,26.548,173.667,89.283
			c4.061,6.908,7.736,14.234,10.969,21.973c6.016,14.394,10.551,30.217,13.312,47.503c7.934,49.647-0.349,91.602-28.168,134.84
			c-6.467,10.051-13.898,20.159-13.49,32.221c0.296,8.767,4.539,16.637,12.464,6.555c9.316-11.85,31.355-1.835,20.022,26.874
			c-18.929,47.948-68.587,72.343-120.215,86.985C268.023,486.977,187.138,490.715,125.155,464.31z"/>
		<path style="opacity:0.7;fill:#FFFFFF;" d="M125.155,464.31c-2.993-1.275-5.942-2.62-8.836-4.045
			c-38.517-18.982-67.402-54.513-82.698-90.47c-6.709-15.751-11.134-32.198-13.651-48.828C3.513,211.882,95.152,160.911,116,122.848
			c20.848-38.063,57.141-96.953,146.833-100.077c68.194-2.386,136.881,26.548,173.667,89.283
			c4.061,6.908,7.736,14.234,10.969,21.973c6.016,14.394,10.551,30.217,13.312,47.503c7.934,49.647-0.349,91.602-28.168,134.84
			c-6.467,10.051-13.898,20.159-13.49,32.221c0.296,8.767,4.539,16.637,12.464,6.555c9.316-11.85,31.355-1.835,20.022,26.874
			c-18.929,47.948-68.587,72.343-120.215,86.985C268.023,486.977,187.138,490.715,125.155,464.31z"/>
	</g>
</g>
<g id="Bushes">
	<g>
		<path style="fill:#C9C9C9;" d="M36.231,447.235c0,0,35.735-24.232,35.735-26.733s-29.179-15.84-13.339-30.013
			c15.84-14.173,40.017-6.669,40.017-6.669s-65.027-33.347-37.516-57.524c27.511-24.177,80.033,30.846,80.033,30.846
			s-24.62-52.17,18.425-57.336c16.182-1.941,26.91,11.676,34.056,24.277c5.242,9.245,9.219,29.633,19.026,35.002
			c6.281,3.438,7.371,0.116,9.463-6.315c4.536-13.941,7.462-28.174,20.691-36.545c13.995-8.855,33.536-10.695,49.086-5.499
			c12.361,4.13,23.141,13.129,29.36,24.591c6.718,12.383,2.664,29.606,12.325,40.153c9.172,10.013,19.513-3.949,29.945,1.669
			c14.674,7.907-6.741,36.497,17.254,32.611c9.068-1.469,17.339-5.502,26.176-7.687c11.426-2.826,36.277-10.208,45.854,0.637
			c17.914,20.288-9.442,47.022-17.004,44.534H36.231z"/>
		<polygon style="fill:#8A8A8A;" points="210.682,427.07 222.028,447.234 244.764,447.234 236.282,434.237 265.466,403.006 
			227.578,431.678 223.482,422.462 234.234,407.614 216.314,418.878 174.095,374.846 208.398,420.926 197.371,419.902 
			174.843,402.494 192.763,422.974 149.243,421.438 		"/>
	</g>
</g>
<g id="Floor_00000098221700982723551810000000528985824456195760_">
	<line style="fill:none;stroke:#263238;stroke-miterlimit:10;" x1="487.738" y1="447.396" x2="21.14" y2="447.396"/>
</g>
<g id="Plants">
	<g>
		<path style="fill:#263238;" d="M303.29,401.513c1.543,0.674,5.315,0.589,5.318,0.589c0.039-0.001-0.811-2.47-0.883-2.619
			c-0.828-1.732-3.446-4.591-5.576-4.303c-1.534,0.207-2.388,1.743-2.042,3.188C300.462,399.842,301.976,400.938,303.29,401.513z"/>
		<path style="fill:#263238;" d="M304.592,412.441c1.6,0.233,4.967-0.743,5.235-0.822c0.532,1.885,1.23,3.776,2.042,5.651
			c0.463,1.072,0.963,2.138,1.478,3.2c-0.307-0.45-0.585-0.85-0.63-0.902c-1.256-1.452-4.536-3.518-6.514-2.678
			c-1.426,0.605-1.843,2.311-1.127,3.614c0.73,1.33,2.481,1.988,3.899,2.194c1.44,0.21,4.327-0.565,5.088-0.78
			c0.202,0.405,0.398,0.812,0.602,1.217c0.975,1.941,1.956,3.875,2.861,5.8c0.319,0.678,0.608,1.358,0.9,2.037
			c-0.273-0.399-0.507-0.733-0.548-0.781c-1.256-1.451-4.536-3.518-6.514-2.678c-1.426,0.605-1.843,2.312-1.127,3.614
			c0.731,1.33,2.481,1.987,3.899,2.194c1.374,0.2,4.045-0.491,4.951-0.742c0.278,0.705,0.558,1.41,0.795,2.105
			c0.152,0.478,0.331,0.928,0.456,1.417c0.135,0.482,0.267,0.958,0.399,1.43c0.22,0.918,0.453,1.865,0.646,2.766
			c0.139,0.626,0.259,1.225,0.382,1.828c-0.31-0.679-0.944-1.996-1.01-2.1c-1.021-1.625-3.95-4.164-6.033-3.634
			c-1.501,0.383-2.172,2.006-1.661,3.401c0.521,1.425,2.151,2.34,3.521,2.76c1.51,0.461,4.851,0.04,5.269-0.016
			c0.2,0.999,0.386,1.972,0.546,2.893c0.12,0.682,0.23,1.337,0.33,1.966h1.338c-0.126-0.701-0.264-1.433-0.417-2.2
			c-0.199-1.015-0.432-2.095-0.682-3.202c0.251-0.1,1.677-0.676,2.939-1.382c1.1,1.191,3.919,2.586,4.284,2.763
			c-0.384,0.944-0.766,1.857-1.141,2.714c-0.197,0.454-0.389,0.882-0.58,1.308h1.415c0.112-0.269,0.224-0.532,0.338-0.812
			c0.394-0.956,0.795-1.986,1.198-3.047c0.404,0.085,3.712,0.756,5.254,0.409c1.398-0.316,3.092-1.107,3.718-2.49
			c0.613-1.353,0.064-3.022-1.404-3.515c-2.037-0.684-5.148,1.629-6.287,3.174c-0.067,0.091-0.686,1.161-1.065,1.842
			c0.162-0.434,0.324-0.854,0.486-1.304c0.326-0.886,0.624-1.78,0.948-2.741c0.141-0.469,0.282-0.944,0.426-1.423
			c0.152-0.472,0.253-0.99,0.383-1.489c0.277-1.164,0.501-2.356,0.7-3.562c0.777,0.283,3.55,1.247,4.987,1.146
			c1.43-0.1,3.224-0.626,4.052-1.897c0.811-1.245,0.522-2.978-0.855-3.688c-1.91-0.985-5.335,0.831-6.696,2.185
			c-0.085,0.084-0.952,1.166-1.416,1.769c0.114-0.726,0.231-1.45,0.323-2.188c0.265-2.131,0.466-4.297,0.677-6.456
			c0.064-0.662,0.136-1.32,0.205-1.979c0.275,0.104,3.547,1.322,5.156,1.208c1.43-0.1,3.224-0.626,4.052-1.897
			c0.811-1.245,0.522-2.978-0.855-3.688c-1.91-0.985-5.335,0.831-6.695,2.185c-0.102,0.102-1.348,1.66-1.645,2.071
			c0.153-1.452,0.32-2.897,0.542-4.316c0.303-1.957,0.709-3.861,1.239-5.676c0.128,0.049,3.537,1.335,5.185,1.219
			c1.43-0.1,3.224-0.626,4.052-1.897c0.811-1.245,0.522-2.978-0.855-3.688c-1.911-0.985-5.335,0.831-6.696,2.185
			c-0.107,0.106-1.445,1.783-1.667,2.104c0.032-0.108,0.053-0.223,0.086-0.33c0.59-1.931,1.404-3.727,2.249-5.371
			c0.489-0.957,1.01-1.844,1.536-2.695c0.61,0.305,3.415,1.667,4.909,1.726c1.432,0.057,3.273-0.268,4.236-1.441
			c0.943-1.148,0.846-2.903-0.444-3.759c-1.791-1.189-5.394,0.24-6.895,1.436c-0.082,0.065-0.838,0.818-1.381,1.375
			c0.243-0.381,0.487-0.778,0.727-1.138c0.899-1.354,1.806-2.539,2.618-3.582c0.466-0.589,0.899-1.113,1.31-1.598
			c0.754-0.013,3.796-0.106,5.126-0.73c1.297-0.61,2.782-1.746,3.095-3.231c0.307-1.454-0.587-2.966-2.127-3.132
			c-2.137-0.23-4.677,2.698-5.457,4.452c-0.067,0.152-0.85,2.643-0.811,2.642c0,0,0.037,0,0.046,0
			c-0.405,0.459-0.833,0.956-1.29,1.509c-0.836,1.027-1.771,2.195-2.703,3.535c-0.935,1.337-1.913,2.815-2.803,4.465
			c-0.894,1.653-1.75,3.437-2.394,5.39c-0.007,0.022-0.012,0.046-0.019,0.068c0.011-0.63-0.017-2.391-0.034-2.526
			c-0.247-1.904-1.842-5.437-3.956-5.828c-1.522-0.281-2.812,0.912-2.934,2.393c-0.124,1.512,0.973,3.026,2.042,3.981
			c1.206,1.077,4.553,2.12,4.819,2.203c-0.597,1.865-1.057,3.828-1.414,5.839c-0.205,1.15-0.376,2.315-0.533,3.485
			c-0.008-0.545-0.019-1.032-0.028-1.1c-0.247-1.904-1.842-5.436-3.956-5.827c-1.523-0.282-2.812,0.912-2.934,2.392
			c-0.124,1.512,0.973,3.026,2.042,3.981c1.085,0.969,3.921,1.916,4.674,2.156c-0.055,0.449-0.116,0.898-0.169,1.347
			c-0.258,2.157-0.505,4.311-0.814,6.416c-0.108,0.742-0.242,1.468-0.373,2.196c-0.008-0.483-0.018-0.891-0.026-0.953
			c-0.247-1.904-1.842-5.437-3.956-5.827c-1.523-0.281-2.813,0.911-2.934,2.393c-0.124,1.512,0.973,3.026,2.042,3.981
			c1.035,0.925,3.645,1.822,4.539,2.112c-0.157,0.741-0.313,1.483-0.498,2.195c-0.138,0.483-0.237,0.957-0.402,1.434
			c-0.154,0.475-0.306,0.947-0.456,1.413c-0.323,0.888-0.651,1.805-0.987,2.663c-0.23,0.599-0.46,1.165-0.69,1.735
			c0.116-0.737,0.313-2.185,0.316-2.308c0.029-1.275-0.423-3.348-1.325-4.805c0.005-0.188-0.005-0.376-0.035-0.562
			c-0.236-1.467-1.614-2.557-3.111-2.158c-2.077,0.553-3.394,4.199-3.493,6.116c-0.006,0.113,0.068,1.347,0.128,2.125
			c-0.105-0.452-0.201-0.892-0.314-1.355c-0.218-0.919-0.462-1.829-0.721-2.81c-0.142-0.469-0.285-0.943-0.43-1.421
			c-0.133-0.477-0.335-0.965-0.502-1.453c-0.411-1.123-0.882-2.242-1.381-3.358c0.804-0.193,3.649-0.918,4.792-1.795
			c1.138-0.873,2.344-2.301,2.333-3.818c-0.011-1.486-1.208-2.772-2.747-2.605c-2.137,0.232-3.992,3.636-4.38,5.516
			c-0.024,0.117-0.151,1.497-0.206,2.257c-0.305-0.668-0.607-1.337-0.938-2.004c-0.955-1.924-1.981-3.841-2.997-5.758
			c-0.311-0.587-0.615-1.176-0.921-1.764c0.287-0.066,3.688-0.855,4.967-1.837c1.137-0.872,2.344-2.3,2.333-3.818
			c-0.011-1.485-1.208-2.772-2.747-2.604c-2.137,0.232-3.991,3.636-4.379,5.516c-0.029,0.142-0.208,2.128-0.229,2.635
			c-0.673-1.295-1.332-2.593-1.929-3.898c-0.827-1.8-1.538-3.612-2.098-5.418c0.134-0.03,3.686-0.838,4.997-1.844
			c1.138-0.873,2.344-2.3,2.333-3.818c-0.01-1.486-1.207-2.771-2.747-2.604c-2.137,0.232-3.991,3.636-4.379,5.516
			c-0.03,0.148-0.222,2.285-0.229,2.674c-0.033-0.107-0.079-0.215-0.111-0.322c-0.573-1.936-0.885-3.884-1.087-5.721
			c-0.12-1.067-0.175-2.094-0.206-3.095c0.677-0.083,3.767-0.494,5.047-1.269c1.227-0.743,2.582-2.029,2.738-3.539
			c0.153-1.478-0.896-2.888-2.444-2.89c-2.15-0.004-4.367,3.176-4.959,5.002c-0.032,0.099-0.248,1.145-0.394,1.909
			c-0.007-0.452-0.023-0.918-0.021-1.351c0.003-1.625,0.106-3.114,0.207-4.431c0.064-0.749,0.137-1.424,0.211-2.056
			c0.622-0.428,3.108-2.183,3.872-3.437c0.746-1.224,1.357-2.991,0.799-4.402c-0.546-1.382-2.126-2.15-3.501-1.439
			c-1.91,0.987-2.412,4.831-2.096,6.724c0.028,0.163,0.749,2.673,0.782,2.652c0,0,0.03-0.021,0.037-0.026
			c-0.084,0.606-0.167,1.257-0.243,1.97c-0.131,1.318-0.267,2.808-0.305,4.44c-0.042,1.63-0.043,3.403,0.126,5.271
			c0.166,1.872,0.436,3.832,0.976,5.816c0.006,0.022,0.016,0.045,0.022,0.067c-0.338-0.531-1.334-1.985-1.423-2.088
			c-1.256-1.452-4.536-3.518-6.514-2.678c-1.425,0.605-1.843,2.312-1.127,3.614C301.424,411.577,303.174,412.234,304.592,412.441z"
			/>
		<path style="fill:#263238;" d="M341.452,402.342c0.033,0.021,0.686-2.508,0.709-2.672c0.265-1.901-0.341-5.73-2.277-6.665
			c-1.394-0.673-2.953,0.137-3.461,1.533c-0.519,1.426,0.139,3.175,0.918,4.379C338.255,400.33,341.449,402.341,341.452,402.342z"/>
	</g>
	<g>
		<path style="fill:#263238;" d="M374.823,420.603c0.901,0.393,3.104,0.344,3.106,0.344c0.023-0.001-0.474-1.442-0.515-1.53
			c-0.483-1.011-2.012-2.681-3.256-2.513c-0.896,0.121-1.394,1.018-1.192,1.862C373.172,419.628,374.055,420.268,374.823,420.603z"
			/>
		<path style="fill:#263238;" d="M375.583,426.985c0.934,0.136,2.9-0.434,3.057-0.48c0.31,1.101,0.718,2.205,1.193,3.3
			c0.27,0.626,0.562,1.248,0.863,1.869c-0.179-0.263-0.342-0.496-0.368-0.527c-0.734-0.848-2.649-2.054-3.804-1.564
			c-0.832,0.353-1.076,1.35-0.658,2.11c0.427,0.776,1.449,1.161,2.277,1.281c0.841,0.123,2.527-0.33,2.971-0.456
			c0.118,0.237,0.233,0.474,0.352,0.711c0.569,1.134,1.142,2.262,1.671,3.387c0.186,0.396,0.355,0.793,0.526,1.19
			c-0.159-0.233-0.296-0.428-0.32-0.456c-0.733-0.847-2.648-2.054-3.804-1.564c-0.832,0.353-1.076,1.35-0.658,2.11
			c0.427,0.777,1.449,1.161,2.277,1.281c0.802,0.117,2.362-0.287,2.891-0.434c0.162,0.411,0.326,0.823,0.464,1.229
			c0.089,0.279,0.193,0.542,0.266,0.828c0.079,0.281,0.156,0.56,0.233,0.835c0.129,0.536,0.265,1.089,0.377,1.615
			c0.081,0.365,0.151,0.715,0.223,1.067c-0.181-0.397-0.551-1.165-0.59-1.226c-0.596-0.949-2.307-2.432-3.523-2.122
			c-0.876,0.223-1.268,1.171-0.97,1.986c0.304,0.832,1.256,1.367,2.056,1.611c0.882,0.269,2.833,0.023,3.077-0.009
			c0.117,0.583,0.225,1.151,0.319,1.689c0.07,0.398,0.134,0.781,0.193,1.148h0.781c-0.074-0.409-0.154-0.837-0.243-1.285
			c-0.116-0.593-0.253-1.223-0.398-1.87c0.147-0.058,0.979-0.395,1.716-0.807c0.642,0.696,2.288,1.51,2.502,1.613
			c-0.224,0.551-0.447,1.085-0.666,1.585c-0.115,0.265-0.227,0.515-0.339,0.764h0.826c0.066-0.157,0.13-0.311,0.197-0.474
			c0.23-0.558,0.464-1.16,0.699-1.779c0.236,0.049,2.168,0.442,3.068,0.239c0.816-0.185,1.805-0.647,2.171-1.454
			c0.358-0.79,0.038-1.765-0.82-2.053c-1.19-0.4-3.006,0.951-3.671,1.853c-0.039,0.053-0.401,0.678-0.622,1.076
			c0.095-0.254,0.189-0.499,0.284-0.761c0.19-0.518,0.364-1.04,0.554-1.601c0.082-0.274,0.165-0.551,0.249-0.831
			c0.089-0.276,0.148-0.578,0.224-0.869c0.162-0.68,0.293-1.376,0.409-2.08c0.454,0.165,2.073,0.729,2.912,0.669
			c0.835-0.059,1.882-0.365,2.366-1.108c0.474-0.727,0.305-1.739-0.499-2.154c-1.116-0.575-3.115,0.485-3.91,1.276
			c-0.05,0.049-0.556,0.681-0.827,1.033c0.066-0.424,0.135-0.847,0.189-1.278c0.155-1.245,0.272-2.509,0.395-3.77
			c0.037-0.386,0.079-0.771,0.12-1.156c0.161,0.061,2.071,0.772,3.011,0.706c0.835-0.058,1.883-0.365,2.366-1.108
			c0.473-0.727,0.305-1.739-0.499-2.153c-1.115-0.575-3.115,0.485-3.91,1.276c-0.06,0.06-0.787,0.969-0.961,1.21
			c0.09-0.848,0.187-1.692,0.316-2.52c0.177-1.143,0.414-2.255,0.723-3.315c0.075,0.028,2.065,0.78,3.027,0.712
			c0.835-0.059,1.883-0.366,2.366-1.108c0.474-0.727,0.305-1.739-0.499-2.153c-1.116-0.575-3.115,0.485-3.91,1.276
			c-0.062,0.062-0.844,1.041-0.973,1.229c0.019-0.063,0.031-0.13,0.05-0.193c0.345-1.128,0.82-2.176,1.313-3.137
			c0.285-0.559,0.59-1.077,0.897-1.574c0.356,0.178,1.994,0.973,2.867,1.008c0.836,0.033,1.911-0.156,2.473-0.841
			c0.551-0.671,0.494-1.695-0.259-2.195c-1.046-0.694-3.15,0.14-4.026,0.839c-0.048,0.038-0.489,0.478-0.806,0.803
			c0.142-0.222,0.284-0.454,0.425-0.665c0.525-0.791,1.055-1.482,1.529-2.091c0.272-0.344,0.525-0.65,0.765-0.933
			c0.44-0.008,2.217-0.062,2.993-0.426c0.758-0.356,1.624-1.02,1.807-1.887c0.179-0.849-0.343-1.732-1.242-1.829
			c-1.248-0.135-2.731,1.576-3.187,2.6c-0.039,0.089-0.497,1.543-0.474,1.543c0,0,0.021,0,0.027,0
			c-0.237,0.268-0.486,0.558-0.753,0.881c-0.488,0.6-1.034,1.282-1.578,2.064c-0.546,0.781-1.117,1.644-1.637,2.607
			c-0.522,0.965-1.022,2.007-1.398,3.148c-0.004,0.013-0.007,0.027-0.011,0.04c0.007-0.368-0.01-1.397-0.02-1.475
			c-0.144-1.111-1.076-3.175-2.31-3.403c-0.889-0.164-1.642,0.532-1.713,1.397c-0.072,0.883,0.568,1.767,1.192,2.325
			c0.704,0.629,2.659,1.238,2.814,1.286c-0.348,1.089-0.617,2.235-0.826,3.41c-0.12,0.672-0.22,1.352-0.311,2.035
			c-0.005-0.318-0.011-0.603-0.016-0.642c-0.144-1.112-1.076-3.174-2.31-3.403c-0.889-0.164-1.642,0.532-1.713,1.397
			c-0.073,0.883,0.568,1.767,1.192,2.325c0.634,0.566,2.289,1.119,2.729,1.259c-0.032,0.262-0.067,0.524-0.099,0.787
			c-0.151,1.26-0.295,2.517-0.475,3.747c-0.063,0.433-0.141,0.857-0.218,1.282c-0.005-0.282-0.011-0.52-0.015-0.556
			c-0.144-1.112-1.076-3.175-2.31-3.403c-0.889-0.164-1.643,0.532-1.714,1.397c-0.072,0.883,0.568,1.767,1.193,2.324
			c0.604,0.54,2.129,1.064,2.651,1.233c-0.092,0.433-0.183,0.866-0.291,1.281c-0.08,0.282-0.138,0.559-0.234,0.837
			c-0.09,0.278-0.178,0.553-0.266,0.825c-0.189,0.518-0.38,1.054-0.577,1.555c-0.134,0.35-0.269,0.68-0.403,1.013
			c0.068-0.43,0.183-1.276,0.185-1.348c0.017-0.744-0.247-1.955-0.774-2.806c0.003-0.11-0.003-0.219-0.02-0.328
			c-0.138-0.857-0.943-1.493-1.816-1.26c-1.213,0.323-1.982,2.452-2.039,3.571c-0.003,0.066,0.04,0.787,0.074,1.241
			c-0.061-0.264-0.117-0.521-0.184-0.791c-0.127-0.536-0.27-1.068-0.421-1.641c-0.083-0.274-0.167-0.55-0.251-0.83
			c-0.078-0.279-0.196-0.563-0.293-0.848c-0.24-0.656-0.515-1.309-0.807-1.961c0.47-0.113,2.131-0.536,2.798-1.048
			c0.664-0.51,1.369-1.344,1.362-2.229c-0.006-0.868-0.705-1.619-1.604-1.521c-1.248,0.136-2.331,2.123-2.557,3.221
			c-0.014,0.069-0.088,0.874-0.12,1.318c-0.178-0.39-0.354-0.781-0.548-1.17c-0.557-1.123-1.157-2.243-1.75-3.362
			c-0.182-0.343-0.359-0.686-0.538-1.03c0.168-0.038,2.153-0.499,2.9-1.073c0.664-0.509,1.369-1.343,1.362-2.229
			c-0.006-0.867-0.705-1.618-1.604-1.52c-1.248,0.135-2.331,2.123-2.557,3.221c-0.017,0.083-0.122,1.242-0.134,1.539
			c-0.393-0.756-0.778-1.514-1.126-2.276c-0.483-1.051-0.898-2.109-1.225-3.164c0.078-0.018,2.152-0.489,2.918-1.076
			c0.664-0.51,1.369-1.343,1.362-2.229c-0.006-0.868-0.705-1.618-1.604-1.521c-1.248,0.135-2.331,2.123-2.557,3.221
			c-0.018,0.086-0.13,1.334-0.134,1.561c-0.019-0.063-0.046-0.125-0.065-0.188c-0.334-1.131-0.517-2.268-0.635-3.341
			c-0.07-0.623-0.102-1.223-0.12-1.807c0.395-0.048,2.2-0.289,2.947-0.741c0.716-0.434,1.508-1.185,1.599-2.066
			c0.089-0.863-0.523-1.686-1.427-1.688c-1.255-0.003-2.55,1.854-2.896,2.921c-0.019,0.058-0.145,0.669-0.23,1.115
			c-0.004-0.264-0.013-0.536-0.012-0.789c0.002-0.949,0.062-1.818,0.121-2.587c0.037-0.437,0.08-0.832,0.124-1.2
			c0.363-0.25,1.815-1.274,2.261-2.007c0.436-0.715,0.792-1.746,0.467-2.57c-0.319-0.807-1.241-1.255-2.044-0.84
			c-1.115,0.576-1.408,2.821-1.224,3.927c0.016,0.095,0.437,1.561,0.456,1.548c0,0,0.018-0.012,0.022-0.015
			c-0.049,0.354-0.098,0.734-0.142,1.15c-0.077,0.77-0.156,1.64-0.178,2.592c-0.025,0.952-0.025,1.987,0.073,3.078
			c0.097,1.093,0.255,2.238,0.57,3.396c0.004,0.013,0.009,0.026,0.013,0.04c-0.197-0.31-0.779-1.159-0.831-1.219
			c-0.733-0.848-2.648-2.054-3.804-1.564c-0.832,0.353-1.076,1.35-0.658,2.11C373.733,426.48,374.755,426.864,375.583,426.985z"/>
		<path style="fill:#263238;" d="M397.107,421.088c0.019,0.012,0.401-1.464,0.414-1.56c0.155-1.11-0.199-3.346-1.33-3.892
			c-0.814-0.393-1.724,0.08-2.021,0.895c-0.303,0.832,0.081,1.854,0.536,2.557C395.24,419.913,397.105,421.087,397.107,421.088z"/>
	</g>
</g>
<g id="Clouds">
	<g>
		<path style="fill:none;stroke:#263238;stroke-miterlimit:10;" d="M436.154,79.744c0,0-6.892-15.038-25.064-16.918
			c-18.171-1.88-15.038,15.038-21.304,18.171c-6.266,3.133-9.399-3.133-18.171-1.253c-8.772,1.88-5.639,7.519-11.279,10.025
			c-5.639,2.506-5.013-1.253-13.158,0c-8.146,1.253-13.785,5.639-13.785,5.639h132.21c0,0-7.306-13.481-13.785-16.918
			C446.176,75.498,439.914,77.238,436.154,79.744z"/>
		<path style="fill:none;stroke:#263238;stroke-miterlimit:10;" d="M176.748,50.008c0,0-4.647-10.139-16.898-11.406
			c-12.251-1.267-10.139,10.139-14.363,12.251c-4.225,2.112-6.337-2.112-12.251-0.845c-5.914,1.267-3.802,5.069-7.604,6.759
			c-3.802,1.69-3.38-0.845-8.871,0c-5.492,0.845-9.294,3.802-9.294,3.802h89.136c0,0-4.926-9.089-9.294-11.406
			C183.505,47.146,179.283,48.319,176.748,50.008z"/>
		<path style="fill:none;stroke:#263238;stroke-miterlimit:10;" d="M128.407,101.9c0,0-6.857-14.961-24.935-16.831
			c-18.078-1.87-14.961,14.961-21.195,18.078c-6.234,3.117-9.351-3.117-18.078-1.247c-8.727,1.87-5.61,7.48-11.221,9.974
			c-5.61,2.493-4.987-1.247-13.091,0c-8.104,1.247-13.714,5.61-13.714,5.61h131.531c0,0-7.268-13.412-13.714-16.831
			C138.378,97.676,132.148,99.407,128.407,101.9z"/>
	</g>
</g>
<g id="Footprints">
	<g>
		<path style="fill:#263238;stroke:#263238;stroke-miterlimit:10;" d="M46.654,465.938c0,0-15.529-2.998-26.028-0.999
			c-10.499,1.998-16.185,4.746-12.904,7.494s7.218,3.247,20.778,2.498c13.561-0.75,16.404-1.999,18.154-1.749
			c1.75,0.25,1.75,0.25,1.75,0.25L46.654,465.938z"/>
		<path style="fill:#263238;stroke:#263238;stroke-miterlimit:10;" d="M51.248,466.437l2.187,6.745c0,0,10.499,2.248,16.185,1.999
			c5.687-0.25,2.625-3.497-1.531-5.746C63.933,467.186,51.248,466.437,51.248,466.437z"/>
		<path style="fill:#263238;stroke:#263238;stroke-miterlimit:10;" d="M119.488,482.175c0,0-4.593-0.749-12.686-1.249
			c-8.093-0.5-24.059,0.999-27.34,2.748c-3.281,1.749,3.718,7.494,14.873,7.744c11.155,0.25,29.746-0.999,29.746-0.999
			L119.488,482.175z"/>
		<path style="fill:#263238;stroke:#263238;stroke-miterlimit:10;" d="M124.519,481.426l5.906,8.743c0,0,13.998-0.5,15.966-3.247
			c1.969-2.748,2.843-4.996-2.406-6.245C138.735,479.427,126.925,481.176,124.519,481.426z"/>
		<path style="fill:#263238;stroke:#263238;stroke-miterlimit:10;" d="M193.853,466.687l3.062,6.495c0,0-8.311,0.5-14.873,1.249
			c-6.562,0.749-24.497,0.999-27.777-1.998c-3.281-2.998,14.217-8.244,24.278-8.244
			C188.604,464.189,193.853,466.687,193.853,466.687z"/>
		<path style="fill:#263238;stroke:#263238;stroke-miterlimit:10;" d="M198.883,466.937l2.625,6.995c0,0,12.248,1.999,15.31,0.5
			c3.062-1.499,2.406-3.247-4.812-5.746S198.883,466.937,198.883,466.937z"/>
	</g>
</g>
<g id="Character">
	<g>
		<g>
			<path style="fill:#FFFFFF;stroke:#263238;stroke-miterlimit:10;" d="M202.364,222.542l-8.976-6.191
				c0,0-10.344-10.964-12.204-11.662c-1.86-0.698-11.611-4.357-13.239-4.939c-1.628-0.581-5.116-4.768-5.93-3.605
				c-0.814,1.163-1.395,2.442-0.465,3.837c0.93,1.395,0.814,3.837,0.814,3.837l-1.628,3.14c0,0,7.907,18.721,9.651,19.884
				s3.068,1.982,6.729,3.067c4.483,1.328,9.143,1.104,9.492,1.22c0.349,0.116,13.896,10.596,13.896,10.596L202.364,222.542z"/>
			<path style="fill:none;stroke:#263238;stroke-miterlimit:10;" d="M161.549,199.983c0,0,1.279,2.558,4.07,3.953
				c2.791,1.395,4.768,2.326,4.768,2.326s4.651,14.303,7.907,15.931c3.256,1.628,7.907-1.628,7.907-1.628"/>
			<g>
				<g>
					<path style="opacity:0.42;fill:#FFFFFF;stroke:#263238;stroke-linecap:round;stroke-linejoin:round;stroke-miterlimit:10;" d="
						M154.157,194.404c-6.463,3.252-15.629-1.913-20.472-11.537c-4.843-9.624-3.53-20.063,2.933-23.315
						c6.463-3.252,15.629,1.913,20.472,11.537C161.933,180.713,160.62,191.152,154.157,194.404z"/>
					<path style="fill:#F13434;stroke:#263238;stroke-linecap:round;stroke-linejoin:round;stroke-miterlimit:10;" d="
						M135.673,181.725c-4.466-8.874-3.686-18.426,1.527-22.413c-0.194,0.081-0.393,0.145-0.583,0.24
						c-6.463,3.252-7.776,13.691-2.933,23.315c4.843,9.624,14.009,14.79,20.472,11.537c0.504-0.254,0.965-0.565,1.406-0.902
						C149.141,196.183,140.374,191.067,135.673,181.725z"/>
					<path style="fill:#F13434;stroke:#263238;stroke-linecap:round;stroke-linejoin:round;stroke-miterlimit:10;" d="
						M161.611,168.708c-5.658-11.244-16.366-17.278-23.917-13.479c-4.566,2.298-6.914,7.672-6.82,14.042
						c0.447-4.423,2.399-8.037,5.743-9.72c6.463-3.252,15.629,1.913,20.472,11.537c4.843,9.624,3.53,20.063-2.933,23.315
						c-3.16,1.59-6.965,1.157-10.596-0.814c4.877,3.456,10.273,4.546,14.624,2.357C165.735,192.147,167.27,179.952,161.611,168.708z
						"/>
					<path style="fill:#F13434;stroke:#263238;stroke-linecap:round;stroke-linejoin:round;stroke-miterlimit:10;" d="
						M159.059,170.098c-5.658-11.244-16.366-17.278-23.917-13.478c-7.551,3.8-9.085,15.995-3.427,27.238
						c5.658,11.244,16.366,17.278,23.917,13.478S164.717,181.342,159.059,170.098z M154.157,194.404
						c-6.463,3.252-15.629-1.913-20.472-11.537c-4.843-9.624-3.53-20.063,2.933-23.315c6.463-3.252,15.629,1.913,20.472,11.537
						C161.933,180.713,160.62,191.152,154.157,194.404z"/>
				</g>
				<path style="fill:#263238;stroke:#263238;stroke-linecap:round;stroke-linejoin:round;stroke-miterlimit:10;" d="
					M155.611,197.752l13.226,24.745c1.354,2.533,4.689,3.192,6.904,1.363l0,0c1.927-1.591,2.209-4.439,0.631-6.377l-17.509-21.503
					L155.611,197.752z"/>
			</g>
			<g>
				<path style="fill:#FFFFFF;stroke:#263238;stroke-miterlimit:10;" d="M163.177,202.192c0,0-6.861-0.581-7.093,0.581
					c-0.233,1.163-0.581,2.907,0.349,3.488c0.93,0.581,7.791,2.674,9.07,1.628c1.279-1.047,1.279-2.907,0.93-3.721
					C166.085,203.355,163.759,202.076,163.177,202.192z"/>
				<path style="fill:#FFFFFF;stroke:#263238;stroke-miterlimit:10;" d="M158.643,206.96c0,0-3.372-0.116-2.558,2.791
					c0.814,2.907-0.581,3.605,4.419,4.419c5,0.814,9.884-0.581,10.116-1.628c0.233-1.047,0.349-3.14-1.047-3.605
					s-4.302-0.698-5.814-1.046C162.247,207.541,158.643,206.96,158.643,206.96z"/>
				<path style="fill:#FFFFFF;stroke:#263238;stroke-miterlimit:10;" d="M160.503,214.169c0,0-1.86,2.209-0.814,4.07
					c1.047,1.86,2.907,3.023,3.605,3.023c0.698,0,12.093-1.512,12.442-2.442c0.349-0.93-0.581-3.837-2.442-4.186
					c-1.861-0.349-6.861-0.233-6.861-0.233S161.433,214.634,160.503,214.169z"/>
				<path style="fill:#FFFFFF;stroke:#263238;stroke-miterlimit:10;" d="M165.154,221.146c0.349,0.116-0.814,4.07,1.861,5.116
					c2.674,1.047,9.419-3.14,9.651-4.07c0.232-0.93-1.628-2.558-1.628-2.558L165.154,221.146z"/>
			</g>
		</g>
		<path style="fill:#F13434;stroke:#263238;stroke-miterlimit:10;" d="M243.346,184.334L229.5,231.88l-27.952-10.45l-7.053,38.924
			c0,0,40.947,6.794,47.023,3.657c8.515-4.396,14.891-11.756,16.197-14.629c1.306-2.874,5.747-9.405,5.747-9.405l25.601,24.556
			c0,0-27.691-69.489-28.997-78.893C258.759,176.236,246.48,175.714,243.346,184.334z"/>
		<path style="fill:#263238;stroke:#263238;stroke-miterlimit:10;" d="M266.879,206.759l-13.357-25.079l-6.38-2.127
			c-1.632,1.015-3.005,2.606-3.796,4.781l-3.672,12.61l19.277,35.529l-18.224,3.49l22.734,4.014l19.496,9.064
			C278.255,237.022,271.76,220.205,266.879,206.759z"/>
		<g>
			<path style="fill:#F13434;stroke:#263238;stroke-miterlimit:10;" d="M233.68,165.525c0,0-13.846,17.503-12.017,18.025
				c1.829,0.522,16.98-3.657,16.98-3.657s-4.702,10.972-1.829,12.801c2.874,1.829,10.711,5.747,14.891,9.404
				s12.801,18.025,12.801,18.025l-13.062-52.247C251.444,167.876,239.427,160.823,233.68,165.525z"/>
			<path style="fill:#FFFFFF;stroke:#263238;stroke-miterlimit:10;" d="M203.199,140.547c0,0-3.217,15.483-0.603,18.097
				c2.614,2.614,7.842-0.201,7.842-0.201s6.233,7.038,6.837,9.853c0.603,2.815-0.201,5.63,1.206,6.837
				c1.408,1.206,4.223,0.804,8.445-1.206s10.657-5.429,10.657-5.429s16.488,9.049,16.89,7.842
				c0.402-1.206,5.831-43.232,5.831-43.232l-3.418-15.282C256.887,117.826,226.524,123.054,203.199,140.547z"/>
			<polygon style="fill:#263238;stroke:#263238;stroke-miterlimit:10;" points="201.876,149.995 230.732,133.506 217.153,128.656 
				203.199,140.547 			"/>
			<path style="fill:none;stroke:#263238;stroke-miterlimit:10;" d="M214.258,142.156c-4.424,1.408-4.826,4.022-4.826,4.022
				l5.63-1.005"/>
			<path style="fill:none;stroke:#263238;stroke-miterlimit:10;" d="M210.035,147.786c0,0,2.413,3.418,6.837,2.614"/>
			<path style="fill:none;stroke:#263238;stroke-miterlimit:10;" d="M215.666,161.459c0,0,1.945-4.318,5.714-4.048"/>
			<path style="fill:#263238;stroke:#263238;stroke-miterlimit:10;" d="M256.887,117.826c0,0-17.288,2.98-35.794,11.957l2.214,2.32
				c0,0,0.402,0.603,1.609,1.408c1.206,0.804,3.217,0.804,3.217,0.804s3.217,16.287,4.022,16.086c0.804-0.201,5.831-1.81,5.63-3.82
				c-0.201-2.011-3.619-12.869-3.619-14.276c0-1.408,1.408-6.435,6.635-4.826s6.837,6.032,6.435,10.255
				c-0.402,4.223-1.81,5.429-1.81,5.429s10.054,1.81,13.07,1.005c0.131-0.035,0.263-0.098,0.394-0.173
				c0.816-6.243,1.415-10.887,1.415-10.887L256.887,117.826z"/>
			<g>
				<path style="fill:#F13434;stroke:#263238;stroke-miterlimit:10;" d="M213.856,98.321c0,0-0.788,0.346-2.037,0.951
					c-3.88,1.878-12.214,6.252-15.255,10.51c-4.022,5.63-4.223,8.043-3.016,10.657s5.027,15.282,5.027,15.282
					s-11.863,16.488-9.249,16.086c2.614-0.402,40.014-23.928,54.291-27.145c14.276-3.217,21.716-4.021,21.716-6.837
					c0-2.815,1.609-5.429-1.609-6.233c-3.217-0.804-10.657,1.206-10.657,1.206s-8.043-15.282-13.07-17.293
					C234.969,93.495,223.709,93.294,213.856,98.321z"/>
				<path style="fill:#263238;stroke:#263238;stroke-miterlimit:10;" d="M265.332,117.826c0-2.815,1.609-5.429-1.609-6.233
					c-3.217-0.804-10.657,1.206-10.657,1.206s-0.276-0.524-0.755-1.388c-14.033,1.779-35.275,6.142-56.057,16.832
					c1.212,3.801,2.321,7.478,2.321,7.478s40.187-13.396,66.418-16.94C265.216,118.488,265.332,118.172,265.332,117.826z"/>
				<path style="fill:#F13434;stroke:#263238;stroke-miterlimit:10;" d="M213.375,138.588c11.133-6.118,23.366-12.376,30.241-13.925
					c14.276-3.217,21.716-4.021,21.716-6.837c0-2.815,1.609-5.429-1.609-6.233c-3.217-0.804-10.657,1.206-10.657,1.206
					s-14.478,3.619-25.135,11.059C221.425,128.4,216.347,134.512,213.375,138.588z"/>
			</g>
			<path style="fill:#263238;stroke:#263238;stroke-miterlimit:10;" d="M237.583,168.497c0,0,6.032-4.021,6.233-4.826
				c0.201-0.804,1.609-6.233,1.609-6.233l5.228,17.695L237.583,168.497z"/>
		</g>
		<path style="fill:#263238;stroke:#263238;stroke-miterlimit:10;" d="M268.784,451.774v9.046c0,0-14.022,7.689-18.545,9.499
			c-4.523,1.809-18.587,5.839-19.944,6.292c-1.357,0.452,0.452,4.523,1.357,5.88c0.905,1.357,10.856,2.714,18.093,2.714
			s29.442-4.03,29.442-4.03l0.905,3.619h22.616c0,0,4.523-13.57,2.262-18.997c-2.262-5.428-4.975-7.237-4.975-7.237l-4.071-12.665
			L268.784,451.774z"/>
		<path style="fill:#263238;stroke:#263238;stroke-miterlimit:10;" d="M429.441,458.161l-5.783,11.083
			c0,0-11.083,7.228-13.975,9.156c-2.891,1.928-3.855,4.819-2.409,7.228c1.446,2.409,32.768,1.928,37.105,1.928
			s17.348-14.457,17.348-14.457l0.59,3.076c0,0,6.453-3.331,8.535-6.037c2.082-2.706,3.747-6.87,3.747-6.87l-3.747-7.286
			c0,0-1.403-7.405-3.824-8.906c-2.421-1.502-3.67-2.335-3.67-2.335L429.441,458.161z"/>
		<path style="fill:#263238;stroke:#263238;stroke-miterlimit:10;" d="M458.354,428.766c-0.964-2.41-9.638-11.083-9.638-11.083
			l-51.562-81.921l-6.084-55.518c0.165-1.114,0.324-2.178,0.477-3.194l-89.911,9.212l-23.353,25.868l-29.563,18.075
			c0,0-4.644,12.771-3.773,16.254c0.871,3.483,12.53,72.418,12.53,72.418s3.304,30.758,3.304,33.02l-4.819,4.819l2.891,8.192
			c0,0,6.265,0,15.42,1.446c9.156,1.446,30.697-0.557,30.697-0.557l-5.428-16.736c0,0-8.142-60.941-8.142-63.655
			c0-2.714-2.262-33.924-2.262-33.924l49.303-32.567c0,0,19.681,39.496,23.536,42.387c3.855,2.891,66.019,77.584,66.019,77.584
			s-2.409,6.265-2.409,8.192c0,1.927,3.855,11.083,3.855,11.083s10.602,2.409,16.384,0.964c5.783-1.446,21.203-12.047,21.203-12.047
			S459.318,431.175,458.354,428.766z"/>
		<path style="fill:#F13434;stroke:#263238;stroke-miterlimit:10;" d="M264.506,220.124c0,0-12.017-31.871-13.584-36.051
			c-1.568-4.18,2.351-13.584,0.522-16.197c-1.829-2.612-5.747-3.135-5.747-3.135s0.522-3.396,1.829-10.711
			c1.306-7.315,11.233-31.871,11.233-31.871c2.09,0.784,1.829-1.045,3.657,1.306c1.829,2.351,3.396,10.972,3.396,10.972
			s4.441-4.702,7.315-3.657c2.874,1.045,4.702,2.351,4.702,2.351s7.053-2.351,15.674-0.523c8.621,1.829,27.169,9.405,43.888,26.385
			c16.719,16.98,56.427,71.056,68.183,93.262c11.756,22.205,20.899,77.326,20.899,77.326s-21.16,14.891-28.736,20.115
			c-7.576,5.225-35.267,21.422-35.267,21.422l-44.672-71.057l-75.236,33.961l52.77-61.391
			C295.332,272.633,269.73,243.374,264.506,220.124z"/>
		<polygon style="fill:#263238;stroke:#263238;stroke-miterlimit:10;" points="327.856,220.436 316.66,278.711 317.798,300.062 
			295.991,270.673 285.083,259.765 		"/>
		<path style="fill:#263238;stroke:#263238;stroke-miterlimit:10;" d="M310.806,293.936l-11.552-17.024l-23.507,32.42l19.289-10.716
			c0,0-3.98,5.817-4.286,7.042C290.443,306.883,310.806,293.936,310.806,293.936z"/>
		<g>
			<line style="fill:none;stroke:#263238;stroke-miterlimit:10;" x1="352.15" y1="185.711" x2="336.342" y2="200.911"/>
			<line style="fill:none;stroke:#263238;stroke-miterlimit:10;" x1="336.95" y1="204.863" x2="361.879" y2="202.735"/>
			<path style="fill:none;stroke:#263238;stroke-miterlimit:10;" d="M364.426,261.446c9.456,0.954,15.997,0.266,15.997,0.266
				l0.304,5.168c0,0-12.16,2.432-27.36-1.52c-15.2-3.952-23.408-6.08-23.408-6.08"/>
			<g>
				<path style="fill:none;stroke:#263238;stroke-miterlimit:10;" d="M361.664,278.422c0,0-16.453,19.195-21.937,26.964"/>
				<path style="fill:none;stroke:#263238;stroke-miterlimit:10;" d="M348.287,314.726c-1.464,2.958-2.709,5.466-3.533,7.113"/>
				<path style="fill:none;stroke:#263238;stroke-miterlimit:10;" d="M363.493,283.906c0,0-6.52,13.243-12.077,24.493"/>
			</g>
			<path style="fill:none;stroke:#263238;stroke-miterlimit:10;" d="M329.654,252.592c0,0,10.032,4.256,24.624,7.296"/>
			<path style="fill:none;stroke:#263238;stroke-miterlimit:10;" d="M384.295,256.029c1.88,2.059,3.576,3.905,4.944,5.379"/>
			<path style="fill:none;stroke:#263238;stroke-miterlimit:10;" d="M359.404,228.241c0.409,0.567,0.735,0.996,0.954,1.247
				c1.486,1.698,11.123,12.437,19.495,21.661"/>
			<path style="fill:none;stroke:#263238;stroke-miterlimit:10;" d="M346.07,207.903c0,0,5.993,9.44,10.301,15.906"/>
			<path style="fill:none;stroke:#263238;stroke-miterlimit:10;" d="M395.927,268.096c0,0,6.688,7.296,14.288,19.456
				c7.6,12.16,13.984,34.353,13.984,34.353"/>
			<path style="fill:#263238;stroke:#263238;stroke-miterlimit:10;" d="M266.317,140.58c0,0-6.592,16.673-7.367,22.101
				c-0.775,5.428-4.476,13.658-4.476,13.658s6.028,0.688,6.415,4.178c0.388,3.49,2.714,31.407,2.714,31.407l0.388-38.774
				l-3.877-3.102L266.317,140.58z"/>
			<path style="fill:none;stroke:#263238;stroke-miterlimit:10;" d="M276.398,136.315c0,0-3.102,12.02-2.714,33.345"/>
			<path style="fill:none;stroke:#263238;stroke-miterlimit:10;" d="M268.643,154.538c0,0,1.551,15.509,3.877,25.591"/>
		</g>
		<g>
			<g>
				<polygon style="fill:#263238;stroke:#263238;stroke-miterlimit:10;" points="192.923,313.614 221.35,296.255 228.526,307.638 
					202.583,325.851 				"/>
				<polygon style="opacity:0.46;fill:#FFFFFF;" points="177.263,320.764 27.261,347.635 27.261,460.342 113.8,460.342 
					187.72,339.088 				"/>
				<path style="fill:#263238;stroke:#263238;stroke-miterlimit:10;" d="M177.263,320.764c0,0,15.367-13.374,25.183-5.315
					c0,0,2.344,2.784,1.905,7.033c-0.439,4.249-7.033,12.893-16.631,16.607L177.263,320.764z"/>
				<path style="fill:#FFFFFF;stroke:#263238;stroke-miterlimit:10;" d="M185.011,328.488c2.888,5.06,4.1,9.806,2.709,10.6
					s-4.86-2.664-7.748-7.724c-2.888-5.06-4.1-9.806-2.709-10.6S182.124,323.428,185.011,328.488z"/>
				<path style="fill:#F13434;stroke:#263238;stroke-miterlimit:10;" d="M196.996,333.396c-0.864-2.731-3.067-8.766-6.855-13.347
					c-1.755-2.123-3.22-3.653-4.393-4.76c-1.042,0.498-2.027,1.032-2.932,1.568l0.277,0.139c0,0,4.777,0.117,11.846,18.054
					C195.657,334.514,196.349,333.964,196.996,333.396z"/>
			</g>
			<g>
				<path style="fill:#FFFFFF;stroke:#263238;stroke-miterlimit:10;" d="M233.068,278.966l-9.963,7.326
					c0,0-14.651,5.861-16.117,8.791c-1.465,2.93-5.128,9.963-6.007,11.135c-0.879,1.172-4.102,3.37-1.465,4.102
					c2.637,0.732,3.809-1.026,4.981-2.344c1.172-1.319,5.714-4.981,5.714-4.981s-3.516,20.072-3.223,20.658
					c0.293,0.586,0.293,0.879,2.051,1.026c1.758,0.147,3.516-4.249,3.516-4.249s0.146,2.784,2.198,2.491
					c2.051-0.293,4.395-1.905,4.982-2.784c0.586-0.879,3.077-4.542,3.077-4.542s1.465,3.223,4.542,1.465s4.542-3.956,4.542-3.956
					s4.688-2.198,5.714-6.447s2.051-10.695,2.051-10.695l6.447-5.714L233.068,278.966z"/>
				<path style="fill:none;stroke:#263238;stroke-miterlimit:10;" d="M210.212,302.995c0,0,1.172-8.205,2.637-9.67"/>
			</g>
			<path style="fill:#F13434;stroke:#263238;stroke-miterlimit:10;" d="M298.149,142.813c0,0-5.995,2.698-9.892,16.786
				c-3.897,14.088,2.098,36.868,2.098,36.868l-16.786,34.171l-41.664,48.858l19.483,18.284l71.039-63.246l22.181-59.649"/>
			<path style="fill:none;stroke:#263238;stroke-miterlimit:10;" d="M316.222,186.296c4.764-2.939,9.161-6.438,11.609-10.313"/>
			<path style="fill:none;stroke:#263238;stroke-miterlimit:10;" d="M295.91,195.743c0,0,6.117-2.039,13.157-5.515"/>
			<path style="fill:none;stroke:#263238;stroke-miterlimit:10;" d="M329.958,184.799c0,0-22.192,14.896-38,17.328"/>
			<path style="fill:none;stroke:#263238;stroke-miterlimit:10;" d="M321.285,218.729c5.664-2.968,7.457-5.658,7.457-5.658"/>
			<path style="fill:none;stroke:#263238;stroke-miterlimit:10;" d="M282.534,217.631c0,0,9.728,9.728,25.84,5.776
				c2.615-0.641,4.918-1.347,6.941-2.079"/>
		</g>
		<line style="fill:none;stroke:#263238;stroke-miterlimit:10;" x1="229.5" y1="231.88" x2="241.502" y2="232.861"/>
		<g>
			<line style="fill:none;stroke:#263238;stroke-miterlimit:10;" x1="71.896" y1="339.512" x2="35.004" y2="346.204"/>
			<line style="fill:none;stroke:#263238;stroke-miterlimit:10;" x1="171.099" y1="321.517" x2="76.765" y2="338.629"/>
			<line style="fill:none;stroke:#263238;stroke-miterlimit:10;" x1="123.628" y1="446.332" x2="119.826" y2="452.547"/>
			<line style="fill:none;stroke:#263238;stroke-miterlimit:10;" x1="185.658" y1="344.938" x2="126.619" y2="441.444"/>
			<line style="fill:none;stroke:#263238;stroke-miterlimit:10;" x1="180.42" y1="343.591" x2="170.196" y2="359.528"/>
			<line style="fill:none;stroke:#263238;stroke-miterlimit:10;" x1="125.695" y1="336.676" x2="166.287" y2="327.956"/>
		</g>
	</g>
</g>
</svg>
