<?xml version="1.0" encoding="iso-8859-1"?>
<!-- Generator: Adobe Illustrator 27.3.1, SVG Export Plug-In . SVG Version: 6.00 Build 0)  -->
<svg version="1.1" xmlns="http://www.w3.org/2000/svg" xmlns:xlink="http://www.w3.org/1999/xlink" x="0px" y="0px"
	 viewBox="0 0 500 500" style="enable-background:new 0 0 500 500;" xml:space="preserve">
<g id="Background_Simple">
	<g>
		<path style="fill:#F13434;" d="M453.674,402.277c-1.762,2.794-3.591,5.534-5.495,8.209c-25.368,35.6-66.675,59.349-106.485,69.554
			c-17.44,4.479-35.281,6.595-53.042,6.791c-116.491,1.238-156.72-96.763-193.566-122.721
			c-36.846-25.958-93.274-70.126-83.719-159.573c7.254-68.009,47.349-132.173,118.249-160c7.809-3.075,16-5.707,24.559-7.845
			c15.921-3.979,33.126-6.29,51.606-6.638c53.082-1.004,95.796,13.022,137.059,46.614c9.592,7.809,19.106,16.582,31.784,17.847
			c9.216,0.919,18.057-2.202,8.641-11.463c-11.067-10.885,2.563-31.372,30.982-16.152c47.463,25.421,65.888,78.08,73.827,131.344
			C497.818,263.625,490.165,344.417,453.674,402.277z"/>
		<path style="opacity:0.7;fill:#FFFFFF;" d="M453.674,402.277c-1.762,2.794-3.591,5.534-5.495,8.209
			c-25.368,35.6-66.675,59.349-106.485,69.554c-17.44,4.479-35.281,6.595-53.042,6.791
			c-116.491,1.238-156.72-96.763-193.566-122.721c-36.846-25.958-93.274-70.126-83.719-159.573
			c7.254-68.009,47.349-132.173,118.249-160c7.809-3.075,16-5.707,24.559-7.845c15.921-3.979,33.126-6.29,51.606-6.638
			c53.082-1.004,95.796,13.022,137.059,46.614c9.592,7.809,19.106,16.582,31.784,17.847c9.216,0.919,18.057-2.202,8.641-11.463
			c-11.067-10.885,2.563-31.372,30.982-16.152c47.463,25.421,65.888,78.08,73.827,131.344
			C497.818,263.625,490.165,344.417,453.674,402.277z"/>
	</g>
</g>
<g id="Clouds">
	<path style="fill:none;stroke:#263238;stroke-linecap:round;stroke-linejoin:round;stroke-miterlimit:10;" d="M105.509,59.963
		c0,0-7.322-13.075-14.644-16.736c-7.322-3.661-15.167-3.138-20.397,5.23c-5.23,8.368-6.799,16.213-9.937,12.552
		c-3.138-3.661-10.983-6.276-16.213-3.138c-5.23,3.138-5.23,8.368-8.368,9.937s-8.368-5.23-13.598-2.092s-7.845,7.845-7.845,7.845
		h115.06c0,0-2.092-8.368-7.845-14.644C115.969,52.641,108.647,62.055,105.509,59.963z"/>
	<g>
		<path style="fill:none;stroke:#263238;stroke-linecap:round;stroke-linejoin:round;stroke-miterlimit:10;" d="M313.577,73.561
			h153.73c0,0-3.885-15.54-14.569-27.195c-10.684-11.655-24.281,5.827-30.109,1.942c0,0-3.14-5.606-7.91-12.186"/>
		<path style="fill:none;stroke:#263238;stroke-linecap:round;stroke-linejoin:round;stroke-miterlimit:10;" d="M410.254,30.338
			c-4.435-5.369-9.627-10.514-14.819-13.109c-13.598-6.799-28.166-5.827-37.879,9.712c-9.712,15.54-12.626,30.109-18.454,23.31
			c-5.828-6.799-20.396-11.655-30.109-5.827c-9.712,5.827-9.712,15.54-15.54,18.454c-5.827,2.914-15.54-9.713-25.252-3.885
			c-9.712,5.827-14.569,14.569-14.569,14.569h53.234"/>
	</g>
	<path style="fill:none;stroke:#263238;stroke-linecap:round;stroke-linejoin:round;stroke-miterlimit:10;" d="M393.736,136.521
		c0,0-7.322-13.075-14.644-16.736c-7.322-3.661-15.167-3.138-20.397,5.23c-5.23,8.368-6.799,16.213-9.937,12.552
		s-10.983-6.276-16.213-3.138c-5.23,3.138-5.23,8.368-8.368,9.937s-8.368-5.23-13.598-2.092c-5.23,3.138-7.845,7.845-7.845,7.845
		h115.06c0,0-2.092-8.368-7.845-14.644C404.196,129.199,396.874,138.613,393.736,136.521z"/>
</g>
<g id="Trees">
	<g>
		<g>
			<path style="fill:#F13434;" d="M125.529,271.476l-10.373,4.77l18.634-29.257c0.323-1.863,0.603-3.75,0.846-5.659l0.795-24.489
				c0,0-10.845,10.406-12.259,10.84c-1.239,0.38,7.649-33.497,9.875-41.916c-0.672-6.153-1.464-12.653-2.368-19.391l-13.637,7.107
				l10.373-16.044l-3.772-32.521l-7.072,3.035l5.131-15.82c-2.232-11.264-4.69-22.383-7.342-32.93l-6.747-15.858l-3.301,13.875
				l-0.445-33.156c-7.83-21.57-16.678-35.968-26.047-35.968c-11.311,0-21.862,20.978-30.778,50.236l-0.254,18.888l-2.361-9.924
				c-4.601,16.505-8.707,35.026-12.181,53.619l2.282,7.038l-3.311-1.421c-2.084,11.576-3.917,23.098-5.468,34.101l8.307,12.849
				l-9.39-4.894c-1.411,10.723-2.531,20.804-3.327,29.778c3.309,12.858,7.46,29.584,6.588,29.316
				c-0.816-0.25-4.759-3.809-7.958-6.783c-0.026,1.216-0.044,2.396-0.044,3.495c0,11.861,1.545,23.167,4.327,33.499l11.69,18.354
				l-6.296-2.895c10.381,23.698,28.078,39.311,48.172,39.311c20.337,0,38.212-16.002,48.539-40.184L125.529,271.476z"/>
			<polygon style="fill:#263238;" points="110.28,225.423 92.75,231.906 96.267,221.355 87.886,233.705 79.519,236.8 
				78.922,202.148 109.376,161.688 93.055,178.008 95.815,166.66 88.008,183.056 78.752,192.311 77.819,138.173 74.501,217.132 
				45.641,186.549 61.494,208.098 46.545,206.438 65.011,212.879 74.157,225.313 72.558,263.383 61.914,256.16 72.227,271.261 
				67.338,467.368 82.119,467.368 79.615,242.328 			"/>
			<g>
				<path style="fill:#FFFFFF;" d="M109.668,138.345c0,0,0.535,5.319-2.372,9.223c-2.907,3.905-8.156,4.917-8.156,4.917
					s-0.535-5.319,2.372-9.223C104.419,139.357,109.668,138.345,109.668,138.345z"/>
				<path style="fill:#FFFFFF;" d="M127.117,162.861c0,0,0.536,5.318-2.372,9.223c-2.907,3.905-8.156,4.917-8.156,4.917
					s-0.535-5.319,2.372-9.223C121.868,163.872,127.117,162.861,127.117,162.861z"/>
				<path style="fill:#FFFFFF;" d="M127.109,210.593c0,0-1.286,5.189-5.338,7.887c-4.052,2.698-9.335,1.884-9.335,1.884
					s1.286-5.189,5.338-7.887C121.826,209.779,127.109,210.593,127.109,210.593z"/>
				<path style="fill:#FFFFFF;" d="M31.281,210.593c0,0,1.286,5.189,5.338,7.887c4.052,2.698,9.335,1.884,9.335,1.884
					s-1.286-5.189-5.338-7.887C36.564,209.779,31.281,210.593,31.281,210.593z"/>
				<path style="fill:#FFFFFF;" d="M106.956,190.779c0,0,0.535,5.319-2.372,9.223c-2.908,3.905-8.156,4.917-8.156,4.917
					s-0.536-5.319,2.372-9.223C101.707,191.791,106.956,190.779,106.956,190.779z"/>
				<path style="fill:#FFFFFF;" d="M102.436,111.676c0,0,0.535,5.319-2.372,9.223c-2.907,3.904-8.156,4.916-8.156,4.916
					s-0.535-5.319,2.372-9.223C97.187,112.687,102.436,111.676,102.436,111.676z"/>
				<path style="fill:#FFFFFF;" d="M92.039,132.017c0,0,0.535,5.319-2.372,9.223c-2.907,3.905-8.157,4.916-8.157,4.916
					s-0.535-5.319,2.372-9.223C86.79,133.029,92.039,132.017,92.039,132.017z"/>
				<path style="fill:#FFFFFF;" d="M116.72,117.206c0,0,0.535,5.319-2.372,9.224c-2.907,3.904-8.156,4.916-8.156,4.916
					s-0.535-5.319,2.372-9.223C111.471,118.218,116.72,117.206,116.72,117.206z"/>
				<path style="fill:#FFFFFF;" d="M36.518,117.206c0,0-0.535,5.319,2.372,9.224c2.907,3.904,8.156,4.916,8.156,4.916
					s0.535-5.319-2.372-9.223C41.767,118.218,36.518,117.206,36.518,117.206z"/>
				<path style="fill:#FFFFFF;" d="M104.696,86.814c0,0,0.535,5.319-2.372,9.223c-2.907,3.905-8.156,4.917-8.156,4.917
					s-0.535-5.319,2.372-9.223C99.447,87.826,104.696,86.814,104.696,86.814z"/>
				<path style="fill:#FFFFFF;" d="M99.587,60.405c0,0,1.854,5.014,0.022,9.524c-1.833,4.51-6.66,6.808-6.66,6.808
					s-1.855-5.014-0.022-9.523C94.76,62.703,99.587,60.405,99.587,60.405z"/>
				<path style="fill:#FFFFFF;" d="M62.977,53.505c0,0,4.735,2.48,6.395,7.057c1.66,4.576-0.385,9.516-0.385,9.516
					s-4.735-2.48-6.395-7.057C60.933,58.444,62.977,53.505,62.977,53.505z"/>
				<path style="fill:#FFFFFF;" d="M80.049,85.085c0,0,3.373,4.147,3.094,9.007c-0.279,4.86-4.106,8.593-4.106,8.593
					s-3.373-4.147-3.094-9.007C76.222,88.817,80.049,85.085,80.049,85.085z"/>
				<path style="fill:#FFFFFF;" d="M79.145,38.074c0,0,3.373,4.147,3.094,9.007c-0.28,4.86-4.106,8.593-4.106,8.593
					s-3.373-4.147-3.094-9.007C75.318,41.807,79.145,38.074,79.145,38.074z"/>
				<path style="fill:#FFFFFF;" d="M40.829,138.345c0,0-0.536,5.319,2.372,9.223c2.907,3.905,8.157,4.917,8.157,4.917
					s0.535-5.319-2.372-9.223C46.078,139.357,40.829,138.345,40.829,138.345z"/>
				<path style="fill:#FFFFFF;" d="M30.884,167.274c0,0-0.535,5.318,2.372,9.223c2.907,3.905,8.156,4.916,8.156,4.916
					s0.535-5.318-2.372-9.223C36.133,168.286,30.884,167.274,30.884,167.274z"/>
				<path style="fill:#FFFFFF;" d="M57.282,177.777c0,0-0.536,5.319,2.372,9.223c2.907,3.905,8.156,4.917,8.156,4.917
					s0.536-5.319-2.372-9.223C62.531,178.789,57.282,177.777,57.282,177.777z"/>
				<path style="fill:#FFFFFF;" d="M64.499,137.692c0,0-2.036,4.943-0.369,9.517c1.667,4.574,6.407,7.046,6.407,7.046
					s2.036-4.943,0.369-9.516C69.239,140.165,64.499,137.692,64.499,137.692z"/>
				<path style="fill:#FFFFFF;" d="M45.807,244.357c0,0,5.345,0.098,8.998-3.12c3.653-3.217,4.231-8.532,4.231-8.532
					s-5.345-0.098-8.998,3.12C46.385,239.043,45.807,244.357,45.807,244.357z"/>
				<path style="fill:#FFFFFF;" d="M97.094,238.51c0,0,1.452,5.145,5.589,7.712c4.136,2.567,9.391,1.583,9.391,1.583
					s-1.452-5.145-5.588-7.712C102.349,237.527,97.094,238.51,97.094,238.51z"/>
				<path style="fill:#FFFFFF;" d="M51.769,111.676c0,0-0.535,5.319,2.372,9.223c2.907,3.904,8.156,4.916,8.156,4.916
					s0.536-5.319-2.372-9.223C57.018,112.687,51.769,111.676,51.769,111.676z"/>
				<path style="fill:#FFFFFF;" d="M51.678,88.171c0,0-0.536,5.318,2.372,9.223c2.907,3.905,8.156,4.917,8.156,4.917
					s0.535-5.319-2.372-9.223C56.927,89.182,51.678,88.171,51.678,88.171z"/>
			</g>
		</g>
	</g>
	<g>
		<g>
			<path style="fill:#F13434;" d="M468.042,309.035l-8.384,3.855l15.061-23.647c0.261-1.505,0.487-3.031,0.684-4.574l0.643-19.794
				c0,0-8.765,8.411-9.909,8.762c-1.001,0.307,6.182-27.074,7.982-33.88c-0.543-4.973-1.183-10.227-1.914-15.673l-11.022,5.744
				l8.384-12.968l-3.049-26.285l-5.716,2.453l4.147-12.787c-1.804-9.104-3.79-18.092-5.934-26.616l-5.454-12.817l-2.668,11.215
				l-0.36-26.799c-6.329-17.434-13.48-29.072-21.053-29.072c-9.142,0-17.67,16.956-24.876,40.604l-0.205,15.267l-1.908-8.021
				c-3.719,13.34-7.038,28.311-9.845,43.338l1.845,5.689l-2.676-1.148c-1.684,9.357-3.166,18.669-4.42,27.563l6.715,10.385
				l-7.59-3.956c-1.14,8.667-2.046,16.816-2.689,24.069c2.675,10.392,6.03,23.912,5.325,23.695
				c-0.659-0.202-3.847-3.079-6.432-5.483c-0.021,0.983-0.035,1.936-0.035,2.825c0,9.586,1.248,18.725,3.497,27.076l9.449,14.835
				l-5.089-2.34c8.391,19.154,22.695,31.774,38.936,31.774c16.438,0,30.886-12.934,39.232-32.479L468.042,309.035z"/>
			<polygon style="fill:#263238;" points="455.717,271.812 441.548,277.052 444.391,268.524 437.617,278.506 430.854,281.008 
				430.371,253 454.986,220.297 441.794,233.489 444.026,224.316 437.715,237.568 430.234,245.049 429.48,201.292 426.798,265.111 
				403.472,240.392 416.285,257.81 404.202,256.467 419.127,261.673 426.52,271.724 425.228,302.494 416.625,296.656 
				424.96,308.862 421.009,467.368 432.956,467.368 430.931,285.476 			"/>
			<g>
				<path style="fill:#FFFFFF;" d="M455.222,201.43c0,0,0.433,4.299-1.917,7.455c-2.35,3.156-6.592,3.974-6.592,3.974
					s-0.433-4.299,1.917-7.455C450.98,202.248,455.222,201.43,455.222,201.43z"/>
				<path style="fill:#FFFFFF;" d="M469.326,221.245c0,0,0.433,4.299-1.917,7.455c-2.35,3.156-6.592,3.974-6.592,3.974
					s-0.433-4.299,1.917-7.455C465.083,222.063,469.326,221.245,469.326,221.245z"/>
				<path style="fill:#FFFFFF;" d="M469.319,259.826c0,0-1.039,4.194-4.315,6.374c-3.275,2.181-7.545,1.523-7.545,1.523
					s1.04-4.194,4.315-6.375C465.049,259.168,469.319,259.826,469.319,259.826z"/>
				<path style="fill:#FFFFFF;" d="M391.865,259.826c0,0,1.04,4.194,4.315,6.374c3.275,2.181,7.545,1.523,7.545,1.523
					s-1.04-4.194-4.315-6.375C396.135,259.168,391.865,259.826,391.865,259.826z"/>
				<path style="fill:#FFFFFF;" d="M453.03,243.811c0,0,0.433,4.299-1.917,7.455c-2.35,3.156-6.592,3.974-6.592,3.974
					s-0.433-4.299,1.917-7.455C448.788,244.629,453.03,243.811,453.03,243.811z"/>
				<path style="fill:#FFFFFF;" d="M449.377,179.874c0,0,0.433,4.299-1.917,7.455c-2.35,3.156-6.593,3.974-6.593,3.974
					s-0.433-4.299,1.917-7.455C445.134,180.692,449.377,179.874,449.377,179.874z"/>
				<path style="fill:#FFFFFF;" d="M440.973,196.315c0,0,0.433,4.299-1.917,7.455c-2.35,3.156-6.593,3.974-6.593,3.974
					s-0.433-4.299,1.917-7.455C436.731,197.133,440.973,196.315,440.973,196.315z"/>
				<path style="fill:#FFFFFF;" d="M460.922,184.345c0,0,0.433,4.299-1.917,7.455c-2.35,3.156-6.592,3.974-6.592,3.974
					s-0.433-4.299,1.917-7.455C456.68,185.163,460.922,184.345,460.922,184.345z"/>
				<path style="fill:#FFFFFF;" d="M396.098,184.345c0,0-0.433,4.299,1.917,7.455c2.35,3.156,6.592,3.974,6.592,3.974
					s0.433-4.299-1.917-7.455C400.34,185.163,396.098,184.345,396.098,184.345z"/>
				<path style="fill:#FFFFFF;" d="M451.203,159.78c0,0,0.433,4.299-1.917,7.455c-2.35,3.156-6.593,3.974-6.593,3.974
					s-0.433-4.299,1.917-7.455C446.961,160.598,451.203,159.78,451.203,159.78z"/>
				<path style="fill:#FFFFFF;" d="M447.074,138.434c0,0,1.499,4.053,0.017,7.698c-1.482,3.645-5.383,5.502-5.383,5.502
					s-1.499-4.052-0.017-7.697C443.173,140.292,447.074,138.434,447.074,138.434z"/>
				<path style="fill:#FFFFFF;" d="M417.484,132.857c0,0,3.827,2.005,5.169,5.704c1.342,3.699-0.311,7.691-0.311,7.691
					s-3.827-2.005-5.169-5.704C415.831,136.849,417.484,132.857,417.484,132.857z"/>
				<path style="fill:#FFFFFF;" d="M431.282,158.382c0,0,2.727,3.352,2.5,7.28c-0.226,3.928-3.319,6.945-3.319,6.945
					s-2.727-3.352-2.501-7.28C428.189,161.399,431.282,158.382,431.282,158.382z"/>
				<path style="fill:#FFFFFF;" d="M430.552,120.385c0,0,2.726,3.352,2.501,7.28c-0.226,3.928-3.319,6.945-3.319,6.945
					s-2.727-3.352-2.5-7.28C427.459,123.402,430.552,120.385,430.552,120.385z"/>
				<path style="fill:#FFFFFF;" d="M399.582,201.43c0,0-0.433,4.299,1.917,7.455c2.35,3.156,6.593,3.974,6.593,3.974
					s0.433-4.299-1.917-7.455C403.825,202.248,399.582,201.43,399.582,201.43z"/>
				<path style="fill:#FFFFFF;" d="M391.544,224.813c0,0-0.433,4.299,1.917,7.455c2.35,3.156,6.592,3.974,6.592,3.974
					s0.433-4.299-1.917-7.455C395.787,225.63,391.544,224.813,391.544,224.813z"/>
				<path style="fill:#FFFFFF;" d="M412.881,233.302c0,0-0.433,4.299,1.917,7.455c2.35,3.156,6.593,3.974,6.593,3.974
					s0.433-4.299-1.917-7.455C417.123,234.12,412.881,233.302,412.881,233.302z"/>
				<path style="fill:#FFFFFF;" d="M418.714,200.902c0,0-1.646,3.995-0.298,7.692c1.348,3.697,5.178,5.695,5.178,5.695
					s1.646-3.995,0.298-7.692C422.545,202.901,418.714,200.902,418.714,200.902z"/>
				<path style="fill:#FFFFFF;" d="M403.606,287.116c0,0,4.32,0.079,7.273-2.522c2.953-2.601,3.42-6.896,3.42-6.896
					s-4.32-0.079-7.273,2.522C404.073,282.821,403.606,287.116,403.606,287.116z"/>
				<path style="fill:#FFFFFF;" d="M445.059,282.391c0,0,1.174,4.158,4.517,6.233c3.343,2.074,7.59,1.28,7.59,1.28
					s-1.174-4.158-4.517-6.233C449.306,281.596,445.059,282.391,445.059,282.391z"/>
				<path style="fill:#FFFFFF;" d="M408.425,179.874c0,0-0.433,4.299,1.917,7.455c2.35,3.156,6.592,3.974,6.592,3.974
					s0.433-4.299-1.917-7.455C412.667,180.692,408.425,179.874,408.425,179.874z"/>
				<path style="fill:#FFFFFF;" d="M408.351,160.876c0,0-0.433,4.299,1.917,7.455c2.35,3.156,6.592,3.974,6.592,3.974
					s0.433-4.299-1.917-7.455C412.594,161.694,408.351,160.876,408.351,160.876z"/>
			</g>
		</g>
	</g>
</g>
<g id="Plants_2">
	<g>
		<path style="fill:#263238;" d="M25.437,391.673c2.52,1.1,8.683,0.961,8.688,0.961c0.064-0.002-1.325-4.034-1.442-4.279
			c-1.352-2.829-5.628-7.5-9.108-7.03c-2.507,0.339-3.9,2.848-3.335,5.208C20.818,388.945,23.291,390.735,25.437,391.673z"/>
		<path style="fill:#263238;" d="M27.564,409.525c2.614,0.381,8.114-1.214,8.551-1.343c0.868,3.079,2.009,6.168,3.336,9.23
			c0.756,1.752,1.573,3.492,2.414,5.227c-0.502-0.735-0.956-1.388-1.029-1.473c-2.052-2.372-7.41-5.747-10.641-4.374
			c-2.329,0.988-3.01,3.776-1.842,5.903c1.193,2.172,4.052,3.247,6.369,3.584c2.352,0.343,7.068-0.923,8.312-1.275
			c0.329,0.662,0.651,1.327,0.983,1.988c1.593,3.171,3.195,6.329,4.673,9.475c0.521,1.108,0.993,2.219,1.471,3.328
			c-0.446-0.653-0.828-1.198-0.895-1.276c-2.051-2.371-7.409-5.747-10.641-4.374c-2.329,0.989-3.011,3.776-1.841,5.903
			c1.195,2.172,4.052,3.246,6.37,3.584c2.244,0.327,6.608-0.802,8.088-1.212c0.454,1.151,0.911,2.303,1.299,3.438
			c0.248,0.782,0.541,1.517,0.745,2.315c0.22,0.787,0.437,1.565,0.652,2.337c0.36,1.5,0.741,3.046,1.055,4.518
			c0.226,1.022,0.423,2.001,0.625,2.986c-0.506-1.109-1.542-3.26-1.649-3.43c-1.668-2.655-6.453-6.802-9.855-5.935
			c-2.451,0.625-3.548,3.277-2.714,5.556c0.851,2.328,3.513,3.823,5.752,4.508c2.466,0.753,7.925,0.065,8.606-0.026
			c0.327,1.631,0.63,3.221,0.891,4.725c0.196,1.114,0.375,2.184,0.539,3.212h2.186c-0.206-1.145-0.432-2.341-0.681-3.594
			c-0.325-1.658-0.706-3.422-1.115-5.231c0.41-0.163,2.739-1.105,4.802-2.258c1.797,1.946,6.402,4.224,6.998,4.513
			c-0.626,1.541-1.251,3.034-1.863,4.433c-0.322,0.742-0.635,1.441-0.947,2.136h2.312c0.184-0.44,0.365-0.87,0.552-1.327
			c0.643-1.562,1.299-3.245,1.956-4.978c0.661,0.138,6.064,1.236,8.583,0.667c2.284-0.516,5.051-1.809,6.073-4.067
			c1.001-2.21,0.105-4.937-2.294-5.742c-3.328-1.118-8.408,2.662-10.27,5.185c-0.11,0.149-1.121,1.897-1.741,3.01
			c0.265-0.71,0.529-1.396,0.793-2.13c0.532-1.448,1.019-2.908,1.549-4.478c0.229-0.767,0.461-1.542,0.695-2.324
			c0.248-0.771,0.413-1.617,0.625-2.432c0.453-1.901,0.819-3.848,1.144-5.819c1.269,0.461,5.799,2.038,8.146,1.872
			c2.336-0.164,5.266-1.022,6.618-3.099c1.325-2.034,0.852-4.865-1.396-6.024c-3.121-1.609-8.715,1.358-10.937,3.57
			c-0.139,0.137-1.555,1.904-2.314,2.889c0.186-1.186,0.378-2.369,0.527-3.575c0.432-3.481,0.761-7.018,1.105-10.546
			c0.104-1.081,0.222-2.156,0.335-3.233c0.45,0.17,5.793,2.159,8.422,1.974c2.336-0.163,5.266-1.022,6.619-3.099
			c1.325-2.033,0.852-4.864-1.396-6.023c-3.12-1.61-8.715,1.357-10.937,3.569c-0.167,0.167-2.202,2.711-2.687,3.384
			c0.251-2.372,0.522-4.733,0.885-7.05c0.495-3.197,1.159-6.307,2.024-9.272c0.209,0.079,5.777,2.181,8.469,1.992
			c2.336-0.164,5.267-1.022,6.619-3.1c1.324-2.033,0.852-4.864-1.396-6.024c-3.121-1.609-8.715,1.358-10.937,3.569
			c-0.174,0.174-2.361,2.912-2.722,3.437c0.052-0.176,0.086-0.365,0.14-0.54c0.964-3.154,2.293-6.088,3.673-8.774
			c0.799-1.562,1.65-3.011,2.508-4.402c0.997,0.498,5.578,2.722,8.02,2.82c2.34,0.093,5.347-0.438,6.919-2.354
			c1.54-1.876,1.381-4.741-0.726-6.141c-2.926-1.943-8.811,0.392-11.263,2.346c-0.133,0.106-1.369,1.337-2.256,2.245
			c0.397-0.622,0.795-1.271,1.188-1.859c1.469-2.212,2.95-4.147,4.276-5.85c0.761-0.962,1.469-1.817,2.14-2.61
			c1.232-0.022,6.201-0.173,8.373-1.192c2.119-0.996,4.544-2.852,5.056-5.277c0.502-2.375-0.96-4.845-3.474-5.115
			c-3.491-0.376-7.64,4.408-8.915,7.272c-0.11,0.248-1.389,4.317-1.325,4.316c0,0,0.06-0.001,0.074-0.001
			c-0.661,0.75-1.36,1.562-2.107,2.465c-1.366,1.678-2.893,3.585-4.415,5.774c-1.527,2.184-3.125,4.598-4.579,7.294
			c-1.46,2.7-2.858,5.615-3.911,8.805c-0.012,0.036-0.02,0.075-0.032,0.111c0.018-1.029-0.027-3.906-0.056-4.126
			c-0.403-3.109-3.009-8.881-6.462-9.519c-2.487-0.459-4.594,1.489-4.792,3.908c-0.202,2.47,1.589,4.943,3.336,6.503
			c1.97,1.759,7.437,3.463,7.872,3.598c-0.975,3.047-1.727,6.252-2.31,9.538c-0.335,1.879-0.614,3.781-0.87,5.692
			c-0.013-0.89-0.031-1.686-0.046-1.796c-0.403-3.11-3.009-8.88-6.462-9.518c-2.488-0.46-4.594,1.489-4.792,3.908
			c-0.203,2.471,1.589,4.943,3.335,6.503c1.772,1.583,6.404,3.13,7.635,3.522c-0.09,0.734-0.189,1.466-0.276,2.201
			c-0.421,3.524-0.826,7.042-1.329,10.48c-0.176,1.212-0.395,2.399-0.609,3.587c-0.013-0.79-0.03-1.455-0.043-1.556
			c-0.403-3.11-3.009-8.881-6.461-9.519c-2.488-0.46-4.595,1.489-4.793,3.908c-0.203,2.469,1.589,4.943,3.336,6.502
			c1.691,1.511,5.954,2.977,7.415,3.45c-0.256,1.211-0.511,2.423-0.814,3.585c-0.225,0.788-0.386,1.562-0.656,2.342
			c-0.251,0.776-0.499,1.546-0.745,2.308c-0.528,1.45-1.063,2.949-1.613,4.35c-0.375,0.978-0.751,1.902-1.126,2.835
			c0.189-1.204,0.512-3.57,0.517-3.77c0.048-2.082-0.692-5.468-2.164-7.849c0.009-0.307-0.009-0.614-0.057-0.919
			c-0.385-2.396-2.636-4.176-5.081-3.525c-3.393,0.903-5.545,6.859-5.705,9.99c-0.01,0.185,0.111,2.2,0.209,3.471
			c-0.171-0.738-0.328-1.457-0.513-2.214c-0.356-1.501-0.755-2.988-1.178-4.59c-0.231-0.766-0.466-1.54-0.703-2.322
			c-0.218-0.779-0.547-1.576-0.82-2.373c-0.671-1.834-1.44-3.662-2.256-5.484c1.314-0.315,5.961-1.499,7.827-2.932
			c1.858-1.425,3.828-3.758,3.811-6.236c-0.018-2.427-1.973-4.528-4.488-4.255c-3.491,0.379-6.52,5.94-7.154,9.01
			c-0.039,0.192-0.246,2.446-0.336,3.687c-0.499-1.092-0.991-2.184-1.532-3.273c-1.56-3.142-3.236-6.274-4.896-9.406
			c-0.509-0.959-1.004-1.92-1.504-2.881c0.469-0.107,6.023-1.396,8.114-3c1.858-1.425,3.829-3.758,3.811-6.236
			c-0.017-2.426-1.973-4.527-4.487-4.254c-3.491,0.379-6.52,5.939-7.154,9.01c-0.047,0.231-0.34,3.475-0.374,4.304
			c-1.099-2.116-2.175-4.235-3.152-6.368c-1.35-2.94-2.513-5.9-3.427-8.85c0.219-0.05,6.022-1.369,8.163-3.011
			c1.858-1.425,3.829-3.758,3.811-6.236c-0.017-2.427-1.972-4.527-4.488-4.254c-3.49,0.379-6.52,5.94-7.153,9.01
			c-0.05,0.241-0.363,3.732-0.374,4.368c-0.054-0.175-0.13-0.351-0.182-0.527c-0.935-3.163-1.445-6.344-1.776-9.346
			c-0.196-1.743-0.285-3.421-0.336-5.055c1.106-0.135,6.154-0.807,8.244-2.072c2.004-1.213,4.219-3.315,4.473-5.78
			c0.249-2.414-1.464-4.717-3.993-4.721c-3.511-0.007-7.133,5.188-8.1,8.17c-0.053,0.163-0.405,1.87-0.643,3.118
			c-0.012-0.738-0.037-1.499-0.035-2.206c0.005-2.655,0.173-5.086,0.339-7.238c0.104-1.223,0.223-2.327,0.345-3.358
			c1.016-0.699,5.077-3.565,6.326-5.614c1.219-2,2.216-4.885,1.306-7.19c-0.891-2.258-3.473-3.512-5.719-2.351
			c-3.12,1.613-3.94,7.892-3.424,10.984c0.045,0.267,1.223,4.366,1.277,4.331c0,0,0.05-0.034,0.061-0.042
			c-0.138,0.99-0.273,2.054-0.397,3.218c-0.214,2.152-0.435,4.586-0.498,7.252c-0.069,2.663-0.07,5.56,0.205,8.61
			c0.272,3.057,0.713,6.26,1.595,9.501c0.01,0.037,0.025,0.074,0.035,0.11c-0.552-0.868-2.178-3.243-2.324-3.411
			c-2.051-2.371-7.409-5.747-10.641-4.375c-2.328,0.989-3.01,3.777-1.841,5.904C22.389,408.113,25.247,409.187,27.564,409.525z"/>
		<path style="fill:#263238;" d="M87.774,393.029c0.055,0.034,1.121-4.096,1.159-4.364c0.432-3.105-0.558-9.36-3.72-10.887
			c-2.277-1.1-4.824,0.223-5.653,2.504c-0.848,2.329,0.227,5.187,1.499,7.152C82.553,389.742,87.77,393.026,87.774,393.029z"/>
	</g>
	<g>
		<path style="fill:#263238;" d="M387.658,391.673c2.52,1.1,8.683,0.961,8.688,0.961c0.064-0.002-1.325-4.034-1.442-4.279
			c-1.352-2.829-5.628-7.5-9.108-7.03c-2.507,0.339-3.901,2.848-3.335,5.208C383.039,388.945,385.512,390.735,387.658,391.673z"/>
		<path style="fill:#263238;" d="M389.785,409.525c2.614,0.381,8.114-1.214,8.551-1.343c0.868,3.079,2.009,6.168,3.336,9.23
			c0.756,1.752,1.573,3.492,2.413,5.227c-0.501-0.735-0.956-1.388-1.029-1.473c-2.052-2.372-7.41-5.747-10.641-4.374
			c-2.329,0.988-3.01,3.776-1.841,5.903c1.193,2.172,4.052,3.247,6.369,3.584c2.352,0.343,7.068-0.923,8.312-1.275
			c0.329,0.662,0.651,1.327,0.983,1.988c1.593,3.171,3.196,6.329,4.673,9.475c0.521,1.108,0.993,2.219,1.471,3.328
			c-0.446-0.653-0.828-1.198-0.895-1.276c-2.051-2.371-7.409-5.747-10.641-4.374c-2.328,0.989-3.011,3.776-1.841,5.903
			c1.195,2.172,4.052,3.246,6.37,3.584c2.244,0.327,6.608-0.802,8.087-1.212c0.454,1.151,0.911,2.303,1.299,3.438
			c0.248,0.782,0.541,1.517,0.745,2.315c0.22,0.787,0.437,1.565,0.652,2.337c0.36,1.5,0.741,3.046,1.055,4.518
			c0.226,1.022,0.423,2.001,0.625,2.986c-0.506-1.109-1.542-3.26-1.649-3.43c-1.668-2.655-6.453-6.802-9.855-5.935
			c-2.451,0.625-3.547,3.277-2.714,5.556c0.851,2.328,3.513,3.823,5.752,4.508c2.466,0.753,7.925,0.065,8.606-0.026
			c0.327,1.631,0.63,3.221,0.891,4.725c0.196,1.114,0.375,2.184,0.539,3.212h2.186c-0.206-1.145-0.432-2.341-0.681-3.594
			c-0.325-1.658-0.706-3.422-1.115-5.231c0.411-0.163,2.739-1.105,4.802-2.258c1.797,1.946,6.402,4.224,6.998,4.513
			c-0.626,1.541-1.251,3.034-1.863,4.433c-0.322,0.742-0.635,1.441-0.947,2.136h2.312c0.184-0.44,0.365-0.87,0.552-1.327
			c0.643-1.562,1.299-3.245,1.956-4.978c0.661,0.138,6.064,1.236,8.583,0.667c2.284-0.516,5.051-1.809,6.073-4.067
			c1.001-2.21,0.105-4.937-2.293-5.742c-3.328-1.118-8.408,2.662-10.27,5.185c-0.11,0.149-1.121,1.897-1.741,3.01
			c0.265-0.71,0.529-1.396,0.793-2.13c0.532-1.448,1.019-2.908,1.549-4.478c0.229-0.767,0.461-1.542,0.695-2.324
			c0.248-0.771,0.413-1.617,0.625-2.432c0.453-1.901,0.819-3.848,1.144-5.819c1.269,0.461,5.799,2.038,8.146,1.872
			c2.336-0.164,5.266-1.022,6.618-3.099c1.325-2.034,0.852-4.865-1.396-6.024c-3.121-1.609-8.715,1.358-10.937,3.57
			c-0.139,0.137-1.555,1.904-2.314,2.889c0.186-1.186,0.378-2.369,0.527-3.575c0.432-3.481,0.761-7.018,1.105-10.546
			c0.105-1.081,0.222-2.156,0.336-3.233c0.45,0.17,5.793,2.159,8.422,1.974c2.336-0.163,5.266-1.022,6.619-3.099
			c1.325-2.033,0.852-4.864-1.396-6.023c-3.12-1.61-8.715,1.357-10.937,3.569c-0.167,0.167-2.202,2.711-2.687,3.384
			c0.251-2.372,0.522-4.733,0.885-7.05c0.495-3.197,1.159-6.307,2.024-9.272c0.209,0.079,5.777,2.181,8.469,1.992
			c2.336-0.164,5.267-1.022,6.619-3.1c1.324-2.033,0.852-4.864-1.396-6.024c-3.121-1.609-8.715,1.358-10.937,3.569
			c-0.174,0.174-2.361,2.912-2.722,3.437c0.052-0.176,0.086-0.365,0.14-0.54c0.964-3.154,2.293-6.088,3.673-8.774
			c0.799-1.562,1.65-3.011,2.509-4.402c0.997,0.498,5.578,2.722,8.02,2.82c2.34,0.093,5.347-0.438,6.919-2.354
			c1.54-1.876,1.381-4.741-0.726-6.141c-2.926-1.943-8.811,0.392-11.263,2.346c-0.133,0.106-1.369,1.337-2.256,2.245
			c0.397-0.622,0.795-1.271,1.188-1.859c1.469-2.212,2.95-4.147,4.276-5.85c0.762-0.962,1.469-1.817,2.14-2.61
			c1.233-0.022,6.201-0.173,8.373-1.192c2.119-0.996,4.544-2.852,5.056-5.277c0.502-2.375-0.96-4.845-3.474-5.115
			c-3.491-0.376-7.64,4.408-8.915,7.272c-0.11,0.248-1.389,4.317-1.325,4.316c0,0,0.06-0.001,0.074-0.001
			c-0.661,0.75-1.36,1.562-2.107,2.465c-1.366,1.678-2.893,3.585-4.415,5.774c-1.527,2.184-3.125,4.598-4.579,7.294
			c-1.461,2.7-2.859,5.615-3.911,8.805c-0.012,0.036-0.02,0.075-0.032,0.111c0.018-1.029-0.027-3.906-0.056-4.126
			c-0.403-3.109-3.009-8.881-6.462-9.519c-2.487-0.459-4.594,1.489-4.792,3.908c-0.202,2.47,1.589,4.943,3.336,6.503
			c1.97,1.759,7.437,3.463,7.872,3.598c-0.975,3.047-1.727,6.252-2.31,9.538c-0.335,1.879-0.614,3.781-0.87,5.692
			c-0.013-0.89-0.031-1.686-0.046-1.796c-0.403-3.11-3.009-8.88-6.462-9.518c-2.488-0.46-4.594,1.489-4.792,3.908
			c-0.203,2.471,1.589,4.943,3.335,6.503c1.772,1.583,6.404,3.13,7.635,3.522c-0.09,0.734-0.189,1.466-0.276,2.201
			c-0.421,3.524-0.826,7.042-1.329,10.48c-0.176,1.212-0.395,2.399-0.609,3.587c-0.013-0.79-0.03-1.455-0.043-1.556
			c-0.403-3.11-3.009-8.881-6.461-9.519c-2.488-0.46-4.595,1.489-4.793,3.908c-0.202,2.469,1.59,4.943,3.336,6.502
			c1.691,1.511,5.954,2.977,7.415,3.45c-0.256,1.211-0.511,2.423-0.814,3.585c-0.225,0.788-0.387,1.562-0.656,2.342
			c-0.251,0.776-0.499,1.546-0.745,2.308c-0.528,1.45-1.063,2.949-1.613,4.35c-0.375,0.978-0.751,1.902-1.127,2.835
			c0.19-1.204,0.512-3.57,0.517-3.77c0.048-2.082-0.692-5.468-2.164-7.849c0.009-0.307-0.009-0.614-0.057-0.919
			c-0.385-2.396-2.636-4.176-5.081-3.525c-3.393,0.903-5.545,6.859-5.705,9.99c-0.01,0.185,0.111,2.2,0.209,3.471
			c-0.172-0.738-0.328-1.457-0.514-2.214c-0.356-1.501-0.755-2.988-1.178-4.59c-0.231-0.766-0.466-1.54-0.703-2.322
			c-0.218-0.779-0.547-1.576-0.82-2.373c-0.671-1.834-1.44-3.662-2.256-5.484c1.314-0.315,5.961-1.499,7.827-2.932
			c1.858-1.425,3.828-3.758,3.811-6.236c-0.018-2.427-1.973-4.528-4.487-4.255c-3.491,0.379-6.52,5.94-7.154,9.01
			c-0.039,0.192-0.246,2.446-0.336,3.687c-0.499-1.092-0.991-2.184-1.532-3.273c-1.559-3.142-3.236-6.274-4.896-9.406
			c-0.509-0.959-1.004-1.92-1.504-2.881c0.469-0.107,6.023-1.396,8.114-3c1.858-1.425,3.828-3.758,3.811-6.236
			c-0.018-2.426-1.973-4.527-4.487-4.254c-3.491,0.379-6.52,5.939-7.154,9.01c-0.047,0.231-0.34,3.475-0.374,4.304
			c-1.099-2.116-2.175-4.235-3.152-6.368c-1.35-2.94-2.513-5.9-3.427-8.85c0.219-0.05,6.022-1.369,8.163-3.011
			c1.858-1.425,3.828-3.758,3.81-6.236c-0.017-2.427-1.972-4.527-4.488-4.254c-3.49,0.379-6.52,5.94-7.153,9.01
			c-0.05,0.241-0.363,3.732-0.374,4.368c-0.054-0.175-0.13-0.351-0.182-0.527c-0.935-3.163-1.445-6.344-1.776-9.346
			c-0.196-1.743-0.285-3.421-0.336-5.055c1.106-0.135,6.154-0.807,8.244-2.072c2.004-1.213,4.219-3.315,4.473-5.78
			c0.249-2.414-1.464-4.717-3.993-4.721c-3.511-0.007-7.133,5.188-8.1,8.17c-0.053,0.163-0.405,1.87-0.643,3.118
			c-0.011-0.738-0.037-1.499-0.034-2.206c0.005-2.655,0.173-5.086,0.339-7.238c0.104-1.223,0.223-2.327,0.345-3.358
			c1.016-0.699,5.077-3.565,6.326-5.614c1.219-2,2.216-4.885,1.306-7.19c-0.891-2.258-3.473-3.512-5.719-2.351
			c-3.12,1.613-3.94,7.892-3.424,10.984c0.045,0.267,1.223,4.366,1.277,4.331c0,0,0.049-0.034,0.061-0.042
			c-0.138,0.99-0.273,2.054-0.397,3.218c-0.214,2.152-0.435,4.586-0.497,7.252c-0.069,2.663-0.07,5.56,0.205,8.61
			c0.272,3.057,0.713,6.26,1.595,9.501c0.01,0.037,0.025,0.074,0.035,0.11c-0.552-0.868-2.178-3.243-2.324-3.411
			c-2.051-2.371-7.409-5.747-10.641-4.375c-2.328,0.989-3.01,3.777-1.841,5.904C384.61,408.113,387.468,409.187,389.785,409.525z"/>
		<path style="fill:#263238;" d="M449.995,393.029c0.054,0.034,1.121-4.096,1.159-4.364c0.432-3.105-0.558-9.36-3.72-10.887
			c-2.277-1.1-4.824,0.223-5.653,2.504c-0.848,2.329,0.227,5.187,1.499,7.152C444.774,389.742,449.991,393.026,449.995,393.029z"/>
	</g>
</g>
<g id="Character">
	<g>
		<polygon style="fill:#263238;" points="263.677,300.775 271.946,322.827 242.544,369.688 194.305,370.147 159.39,332.475 
			158.011,301.694 		"/>
		<path style="fill:#263238;" d="M153.382,404.562c0,0-13.367,12.89-15.277,17.664c-1.91,4.774-9.548,36.761-7.639,39.625
			c1.91,2.865,9.071,2.387,12.413,1.432c3.342-0.955,22.438-15.277,22.438-15.277l-2.387-52.993L153.382,404.562z"/>
		<g>
			<path style="fill:#F13434;stroke:#263238;stroke-linecap:round;stroke-linejoin:round;stroke-miterlimit:10;" d="
				M306.154,360.163l1.792,73.701c0,0-27.773,5.408-50.965,5.072c-23.192-0.336-27.69-2.865-41.057-9.548
				c-13.368-6.684-31.032-3.342-31.032-3.342l20.051-64.928c0,0,18.619-7.161,42.967-7.161
				C272.257,353.956,306.154,360.163,306.154,360.163z"/>
			<path style="opacity:0.22;" d="M306.154,360.163l1.792,73.701c0,0-27.773,5.408-50.965,5.072
				c-23.192-0.336-27.69-2.865-41.057-9.548c-13.368-6.684-31.032-3.342-31.032-3.342l20.051-64.928c0,0,18.619-7.161,42.967-7.161
				C272.257,353.956,306.154,360.163,306.154,360.163z"/>
			<path style="fill:none;stroke:#263238;stroke-linecap:round;stroke-linejoin:round;stroke-miterlimit:10;" d="M306.154,360.163
				l1.792,73.701c0,0-27.773,5.408-50.965,5.072c-23.192-0.336-27.69-2.865-41.057-9.548c-13.368-6.684-31.032-3.342-31.032-3.342
				l20.051-64.928c0,0,18.619-7.161,42.967-7.161C272.257,353.956,306.154,360.163,306.154,360.163z"/>
		</g>
		<path style="fill:#263238;" d="M255.548,310.034c0,0,28.004-4.684,48.219-2.387c20.214,2.297,25.727,7.81,27.105,11.485
			c1.378,3.675,2.476,21.141,2.017,25.275c-0.459,4.135-48.997,96.029-48.997,96.029l1.838,4.594l11.485,8.27
			c0,0,12.404,3.675,11.945,6.432s-1.378,5.513-1.378,5.513s-32.618,1.378-37.672,1.378c-5.054,0-16.539-3.216-18.377-3.216
			c-1.838,0-6.891,0.919-8.27,0.919c-1.378,0-5.054-8.269-4.594-12.864c0.459-4.594,7.81-12.864,7.81-12.864
			s23.228-67.033,24.146-68.412c0.919-1.378-17.934,7.657-24.825,8.116c-6.891,0.46-26.426,1.95-26.426,1.95
			s-20.214,65.237-20.214,68.453s-3.216,14.701-9.188,15.62c-5.972,0.919-22.511,1.838-26.187,0.919
			c-3.675-0.919-19.296-10.567-17.917-20.674c1.378-10.107,11.945-83.614,11.945-83.614l0.919-44.104"/>
		<g>
			<path style="fill:#F13434;stroke:#263238;stroke-linecap:round;stroke-linejoin:round;stroke-miterlimit:10;" d="
				M300.319,171.043c0,0,14.515,113.158,14.237,115.938c-0.278,2.78-13.621,8.618-19.181,11.119
				c-5.56,2.502-15.289-8.895-18.625-12.787c-3.336-3.892-5.838-20.293-5.838-20.293L300.319,171.043z"/>
			<path style="fill:#263238;stroke:#263238;stroke-linecap:round;stroke-linejoin:round;stroke-miterlimit:10;" d="M295.4,190.309
				l-1.64,21.315l5.739-6.149l-9.428,52.058c0,0,23.237,21.334,20.37,28.539c-2.868,7.204-5.199,19.494-11.732,19.099
				c-6.533-0.395-21.754-16.485-24.624-22.634c-2.869-6.149-6.149-17.216-6.149-17.216L295.4,190.309z"/>
			
				<line style="fill:none;stroke:#808080;stroke-linecap:round;stroke-linejoin:round;stroke-miterlimit:10;" x1="290.452" y1="222.082" x2="293.429" y2="215.54"/>
			
				<line style="fill:none;stroke:#808080;stroke-linecap:round;stroke-linejoin:round;stroke-miterlimit:10;" x1="270.913" y1="265.02" x2="288.71" y2="225.911"/>
			<path style="fill:none;stroke:#263238;stroke-linecap:round;stroke-linejoin:round;stroke-miterlimit:10;" d="M278.696,277.53
				c0,0,3.058-10.563,17.791-16.123"/>
			<path style="fill:none;stroke:#263238;stroke-linecap:round;stroke-linejoin:round;stroke-miterlimit:10;" d="M277.862,270.024
				c0,0,13.343-10.285,23.906-10.563"/>
			<path style="fill:#949494;stroke:#263238;stroke-linecap:round;stroke-linejoin:round;stroke-miterlimit:10;" d="
				M197.303,316.718c0,0,21.006,6.684,40.58,3.819c19.574-2.865,24.348-9.548,24.348-9.548l-3.342-9.548
				c0,0-38.193,4.774-47.264,3.342c-9.071-1.432-16.709-3.342-16.709-3.342L197.303,316.718z"/>
			<polyline style="fill:#263238;" points="206.446,323.347 207.165,309.438 211.242,310.397 210.762,322.867 			"/>
			<polyline style="fill:#263238;" points="246.255,322.867 246.974,308.958 250.572,307.999 250.572,322.387 			"/>
			<path style="fill:#FFFFFF;stroke:#263238;stroke-linecap:round;stroke-linejoin:round;stroke-miterlimit:10;" d="
				M202.869,183.014l-14.637,124.383l21.37,2.678c12.424,1.557,25.007,1.315,37.361-0.717l11.925-1.961l-3.482-62.67l0.459-57.427
				L202.869,183.014z"/>
			<polygon style="fill:#263238;stroke:#263238;stroke-linecap:round;stroke-linejoin:round;stroke-miterlimit:10;" points="
				231.048,207.208 223.618,280.625 231.724,303.035 242.214,280.148 235.27,199.316 			"/>
			<path style="fill:#FFFFFF;stroke:#263238;stroke-linecap:round;stroke-linejoin:round;stroke-miterlimit:10;" d="
				M208.825,164.402c0,0-5.584,12.656-5.956,18.612c-0.372,5.956-0.372,32.385-0.372,32.385l28.3-3.512l25.931,6.892
				c0,0,3.839-32.788,0.116-41.349c-3.722-8.562-15.634-16.751-24.94-18.984C222.598,156.212,211.431,160.679,208.825,164.402z"/>
			<path style="fill:#F13434;stroke:#263238;stroke-linecap:round;stroke-linejoin:round;stroke-miterlimit:10;" d="
				M263.664,152.488l36.656,18.555c0,0-29.972,98.411-29.494,100.321c0.477,1.91,1.91,27.69,1.91,27.69s10.503,0,11.935,1.91
				c1.432,1.91,4.297,6.206,4.297,6.206l-21.006,3.819c0,0-10.026,4.297-12.413,2.387c-2.387-1.91-4.297-26.735-4.297-26.735
				s4.935-91.743,4.616-99.342C255.548,179.701,263.664,152.488,263.664,152.488z"/>
			<g>
				<path style="fill:#F13434;stroke:#263238;stroke-linecap:round;stroke-linejoin:round;stroke-miterlimit:10;" d="
					M210.671,159.65c0,0-8.058,28.275-8.116,42.012c-0.058,13.738-2.865,237.274-2.865,237.274s-15.755,2.865-28.167,2.865
					c-12.413,0-38.193-14.322-38.193-14.322s6.684-80.205,9.071-87.366c2.387-7.161,11.458-42.012,11.935-43.444
					c0.477-1.432,19.096-58.244,19.096-58.244l-15.639-80.512c0,0,37.6-8.764,53.354-8.286L210.671,159.65z"/>
				<path style="fill:#F13434;stroke:#263238;stroke-linecap:round;stroke-linejoin:round;stroke-miterlimit:10;" d="
					M209.545,141.066c0,0-11.898,4.958-15.369,9.42c-3.47,4.462-10.907,23.301-10.907,23.301l15.369,5.453l-11.898,9.915
					c0,0,2.479,11.898,4.462,19.335c1.983,7.437,10.907,43.132,10.907,43.132s2.703-63.989,5.949-75.852
					s12.394-19.335,12.394-19.335S225.41,134.125,209.545,141.066z"/>
				<path style="fill:#263238;" d="M207.338,148.382c0,0-6.484,4.095-9.556,8.191c-3.072,4.095-4.778,9.556-4.778,9.556l5.802,4.095
					l-8.532,0.341l11.945,9.215l-9.215,13.992l7.849,27.644c0,0,2.95-39.909,5.461-48.462c2.511-8.553,4.357-13.305,4.357-13.305
					S211.434,147.358,207.338,148.382z"/>
				<path style="fill:#F13434;stroke:#263238;stroke-linecap:round;stroke-linejoin:round;stroke-miterlimit:10;" d="
					M250.931,141.066c0,0,11.898,4.958,15.369,9.42c3.47,4.462,10.907,23.301,10.907,23.301l-15.369,5.453l11.898,9.915
					c0,0-2.479,11.898-4.462,19.335c-1.983,7.437-16.598,48.089-16.598,48.089s2.988-68.947-0.258-80.81
					c-3.246-11.863-12.394-19.335-12.394-19.335S235.067,134.125,250.931,141.066z"/>
				<path style="fill:#263238;" d="M263.991,155.549l7.167,15.699l-14.313,6.182l11.614,15.087l-13.051,52.21
					c0,0-1.655-55.391-1.655-59.486c0-4.095-1.334-9.471-1.334-9.471L263.991,155.549z"/>
				<g>
					<polyline style="fill:none;stroke:#263238;stroke-miterlimit:10;" points="178.312,317.063 158.481,336.894 146.087,343.835 
						146.087,349.784 165.917,339.868 					"/>
					<line style="fill:none;stroke:#263238;stroke-miterlimit:10;" x1="171.371" y1="336.398" x2="183.765" y2="319.542"/>
				</g>
			</g>
			<path style="fill:#F13434;stroke:#263238;stroke-linecap:round;stroke-linejoin:round;stroke-miterlimit:10;" d="M157.794,157.91
				c0,0-1.808-0.297-3.467,3.436c-1.659,3.733-22.582,55.734-27.145,72.74c-4.563,17.006-7.051,27.584-4.563,33.391
				c2.489,5.807,13.688,12.029,22.191,11.199c8.503-0.83,26.735-25.976,27.357-34.894c0.622-8.918-1.452-22.399-7.259-49.36
				C159.102,167.461,158.357,159.245,157.794,157.91z"/>
			<path style="fill:#263238;stroke:#263238;stroke-linecap:round;stroke-linejoin:round;stroke-miterlimit:10;" d="
				M164.909,194.422l0.96,29.09c0,0-7.378-7.788-10.248-5.739c-2.869,2.049-9.428,15.986-9.428,15.986s-11.477,3.279-8.608,5.329
				c2.869,2.049,35.252,10.248,35.252,10.248l4.099,4.919L164.909,194.422z"/>
			
				<line style="fill:none;stroke:#263238;stroke-linecap:round;stroke-linejoin:round;stroke-miterlimit:10;" x1="161.474" y1="203.737" x2="159.311" y2="192.359"/>
			
				<line style="fill:none;stroke:#263238;stroke-linecap:round;stroke-linejoin:round;stroke-miterlimit:10;" x1="164.686" y1="220.634" x2="162.447" y2="208.86"/>
			<polyline style="fill:none;stroke:#808080;stroke-linecap:round;stroke-linejoin:round;stroke-miterlimit:10;" points="
				148.73,233.796 168.739,241.958 164.686,220.634 			"/>
			
				<line style="fill:none;stroke:#263238;stroke-linecap:round;stroke-linejoin:round;stroke-miterlimit:10;" x1="137.586" y1="229.25" x2="148.73" y2="233.796"/>
			<path style="fill:#FFFFFF;stroke:#263238;stroke-linecap:round;stroke-linejoin:round;stroke-miterlimit:10;" d="
				M213.719,182.611c3.172,9.027,17.078,29.277,17.078,29.277s13.418-12.442,17.322-20.25c3.904-7.807,9.515-22.689,9.515-22.689
				l-45.135-0.976C212.499,167.973,210.547,173.584,213.719,182.611z"/>
			<g>
				<path style="fill:#FFFFFF;stroke:#263238;stroke-linecap:round;stroke-linejoin:round;stroke-miterlimit:10;" d="
					M204.204,134.548c0,0-1.952,5.855-0.732,11.711c1.22,5.855,4.148,7.319,4.148,7.319s1.464,16.102,3.416,19.274
					c1.952,3.172,9.027,16.59,15.126,20.494c6.099,3.904,12.686,2.928,15.614,0.976c2.928-1.952,16.834-18.786,19.762-25.129
					c2.928-6.343,4.391-24.885,4.391-24.885s-15.614,4.391-28.789,2.44S204.204,134.548,204.204,134.548z"/>
				<path style="opacity:0.34;" d="M237.22,145.949c-12.834-1.89-32.086-11.812-32.086-11.812s-1.901,5.67-0.713,11.339
					c0.046,0.219,0.099,0.421,0.149,0.628c0.955,1.941,2.048,3.984,3.275,6.024c0.371,0.309,0.616,0.435,0.616,0.435
					s0.022,0.244,0.065,0.676c2.91,4.64,6.508,9.135,10.75,12.131c11.195,7.906,25.805,10.063,41.487,2.766
					c0.078-0.155,0.157-0.31,0.224-0.454c2.852-6.142,4.278-24.096,4.278-24.096S250.055,147.839,237.22,145.949z"/>
				<path style="fill:#263238;stroke:#263238;stroke-linecap:round;stroke-linejoin:round;stroke-miterlimit:10;" d="
					M234.603,174.162c0,0-12.622,1.367-13.115,4.826c-0.493,3.458,3.712,4.144,4.929,4.059c1.217-0.085,12.639-1.124,15.384-0.337
					c2.745,0.787,7.924,1.405,8.904-2.087C251.684,177.131,244.548,172.981,234.603,174.162z"/>
				<path style="fill:#FFFFFF;stroke:#263238;stroke-linecap:round;stroke-linejoin:round;stroke-miterlimit:10;" d="
					M236.07,169.596c0,0-6.737-0.404-3.565,2.524c3.172,2.928,8.388,5.578,9.852,5.334c1.464-0.244,0.786-8.235,0.786-13.359"/>
				<path style="fill:#263238;stroke:#263238;stroke-linecap:round;stroke-linejoin:round;stroke-miterlimit:10;" d="
					M264.953,148.211c-0.732-2.684-12.199,3.172-17.566,4.147c-5.367,0.976-19.03-0.244-24.885-5.367
					c-3.128-2.737-5.273-3.299-6.563-2.277l-7.099-7.726l-2.684,0.976l8.342,13.392c0.132,1.644,0.606,5.816,2.148,8.322
					c1.952,3.172,8.783,4.879,13.174,4.635c4.391-0.244,6.831-4.635,8.783-6.099c1.952-1.464,4.635,0.244,5.611,1.464
					c0.976,1.22,0.488,4.392,3.903,5.855c3.416,1.464,11.467-0.488,14.394-4.147C265.441,157.726,265.685,150.895,264.953,148.211z"
					/>
				<g>
					<path style="fill:#F13434;stroke:#263238;stroke-linecap:round;stroke-linejoin:round;stroke-miterlimit:10;" d="
						M211.035,105.76c0,0-12.199-5.123-14.882-1.22c-2.684,3.904-2.684,17.078,1.952,25.373
						c4.635,8.295,38.303,31.472,46.111,29.764c7.807-1.708,28.057-14.882,30.984-19.518c2.928-4.635,7.319-11.223,3.659-25.129
						c-3.659-13.906-12.686-8.295-12.686-8.295s-29.277,2.196-38.06,0.732C219.33,106.004,211.035,105.76,211.035,105.76z"/>
					<path style="fill:#263238;stroke:#263238;stroke-linecap:round;stroke-linejoin:round;stroke-miterlimit:10;" d="
						M209.815,127.229c0,0,0.999,9.069,10.577,16.936c9.578,7.867,16.419,14.367,23.26,12.314
						c6.841-2.052,25.313-7.525,30.786-19.498c5.473-11.972,2.052-23.261-0.342-24.629c-2.395-1.368-6.157-2.395-6.157-2.395
						S207.448,98.321,209.815,127.229z"/>
					<path style="fill:#F13434;stroke:#263238;stroke-linecap:round;stroke-linejoin:round;stroke-miterlimit:10;" d="
						M217.866,90.878c0,0-9.271,16.102-11.711,19.274s-0.488,11.223,3.66,17.078c4.148,5.855,17.078,15.858,30.253,16.102
						c9.513,0.176,24.885-8.539,28.301-12.686c3.416-4.148,2.684-9.027,1.464-13.175c-1.22-4.147-3.172-16.102-6.587-23.421
						c-3.416-7.319-15.614-8.783-24.885-9.027C229.089,84.778,220.55,89.414,217.866,90.878z"/>
					<path style="fill:#263238;stroke:#263238;stroke-linecap:round;stroke-linejoin:round;stroke-miterlimit:10;" d="
						M211.841,129.457c0,0,8.894,5.131,10.262,0.342c1.368-4.789,0.342-30.786,4.789-29.418c4.447,1.368,18.814,7.183,18.814,7.183
						s12.314-11.288,15.051-8.894c2.737,2.395,7.526,24.287,6.499,29.076c-1.026,4.789-14.367,12.657-23.602,14.025
						C234.417,143.14,222.103,135.956,211.841,129.457z"/>
					<path style="fill:none;stroke:#263238;stroke-linecap:round;stroke-linejoin:round;stroke-miterlimit:10;" d="M235.676,89.658
						c0,0-9.027-0.488-8.783,2.196s11.711,10.979,15.126,10.735c3.416-0.244,10.247-6.099,10.491-8.051"/>
					<path style="fill:#FFFFFF;stroke:#263238;stroke-linecap:round;stroke-linejoin:round;stroke-miterlimit:10;" d="
						M268.368,130.645c3.415-4.148,2.684-9.027,1.464-13.175c-0.267-0.907-0.571-2.201-0.915-3.724
						c-3.229,7.027-10.093,15.152-24.702,17.631c-22.378,3.796-32.479-17.434-35.404-25.248c-1.123,1.804-2.08,3.275-2.655,4.023
						c-2.44,3.172-0.488,11.223,3.66,17.078c4.148,5.855,17.078,15.858,30.253,16.102
						C249.581,143.508,264.953,134.792,268.368,130.645z"/>
					<path style="opacity:0.34;" d="M244.215,131.377c-9.135,1.55-16.222-1.072-21.612-5.248c-0.128,1.625-0.284,2.913-0.5,3.67
						c-1.368,4.789-10.262-0.342-10.262-0.342c10.262,6.499,22.576,13.683,31.812,12.314c9.236-1.368,22.576-9.236,23.603-14.025
						c0.359-1.676,0.004-5.451-0.724-9.749C262.658,123.77,255.93,129.389,244.215,131.377z"/>
					<path style="fill:none;stroke:#263238;stroke-linecap:round;stroke-linejoin:round;stroke-miterlimit:10;" d="M213.963,110.883
						c0,0,0.488-14.882,3.904-9.759c3.416,5.123,0.976,26.105,0.976,27.813"/>
				</g>
			</g>
			<path style="fill:#FFFFFF;stroke:#263238;stroke-linecap:round;stroke-linejoin:round;stroke-miterlimit:10;" d="
				M189.025,222.637l-7.525,7.043c0,0-2.696,9.125,0.207,18.666c2.904,9.54,6.015,13.066,6.015,13.066l8.296-3.111l-5.392-36.087
				L189.025,222.637z"/>
			<polygon style="fill:#949494;stroke:#263238;stroke-linecap:round;stroke-linejoin:round;stroke-miterlimit:10;" points="
				196.018,258.3 200.996,234.035 190.626,222.213 			"/>
			<g>
				<path style="fill:#F13434;stroke:#263238;stroke-linecap:round;stroke-linejoin:round;stroke-miterlimit:10;" d="
					M262.981,223.043h-39.872c-1.558,0-2.821-1.263-2.821-2.821v-24.884c0-1.558,1.263-2.821,2.821-2.821h39.872
					c1.558,0,2.821,1.263,2.821,2.821v24.884C265.801,221.78,264.538,223.043,262.981,223.043z"/>
				<path style="fill:#F13434;stroke:#263238;stroke-linecap:round;stroke-linejoin:round;stroke-miterlimit:10;" d="
					M268.458,223.043h-39.872c-1.558,0-2.821-1.263-2.821-2.821v-24.884c0-1.558,1.263-2.821,2.821-2.821h39.872
					c1.558,0,2.821,1.263,2.821,2.821v24.884C271.279,221.78,270.016,223.043,268.458,223.043z"/>
				<g>
					
						<line style="fill:none;stroke:#FFFFFF;stroke-linecap:round;stroke-linejoin:round;stroke-miterlimit:10;" x1="274.366" y1="194.022" x2="290.693" y2="185.859"/>
					
						<line style="fill:none;stroke:#FFFFFF;stroke-linecap:round;stroke-linejoin:round;stroke-miterlimit:10;" x1="275.32" y1="206.205" x2="284.57" y2="206.267"/>
					
						<line style="fill:none;stroke:#FFFFFF;stroke-linecap:round;stroke-linejoin:round;stroke-miterlimit:10;" x1="261.713" y1="229.124" x2="272.734" y2="242.594"/>
				</g>
				
					<rect x="229.504" y="196.144" style="fill:#FFFFFF;stroke:#263238;stroke-linecap:round;stroke-linejoin:round;stroke-miterlimit:10;" width="5.766" height="3.171"/>
				<g>
					<path style="fill:#263238;stroke:#263238;stroke-linecap:round;stroke-linejoin:round;stroke-miterlimit:10;" d="
						M259.266,207.919c0-2.655-0.955-5.085-2.538-6.972v-3.889h-8.323c-5.998,0-10.861,4.863-10.861,10.861
						c0,5.998,4.863,10.861,10.861,10.861h8.323v-3.889C258.31,213.004,259.266,210.574,259.266,207.919z"/>
					
						<circle style="fill:#FFFFFF;stroke:#263238;stroke-linecap:round;stroke-linejoin:round;stroke-miterlimit:10;" cx="256.728" cy="207.919" r="10.861"/>
					
						<ellipse transform="matrix(0.1606 -0.987 0.987 0.1606 10.2738 427.9184)" style="fill:#F13434;stroke:#263238;stroke-linecap:round;stroke-linejoin:round;stroke-miterlimit:10;" cx="256.728" cy="207.919" rx="8.697" ry="8.697"/>
					<path style="fill:#263238;stroke:#263238;stroke-linecap:round;stroke-linejoin:round;stroke-miterlimit:10;" d="
						M256.728,199.222c-0.401,0-0.793,0.037-1.181,0.089c4.243,0.577,7.516,4.206,7.516,8.607c0,4.402-3.273,8.03-7.516,8.607
						c0.387,0.053,0.779,0.089,1.181,0.089c4.803,0,8.697-3.893,8.697-8.697C265.425,203.116,261.531,199.222,256.728,199.222z"/>
				</g>
			</g>
			<g>
				<path style="fill:#949494;stroke:#263238;stroke-linecap:round;stroke-linejoin:round;stroke-miterlimit:10;" d="
					M198.363,210.05l-5.481,8.12c0,0-3.248-0.203-3.857,4.466c-0.609,4.669-0.406,17.865,5.075,20.301
					c5.481,2.436,7.511,0.609,8.526-0.203c1.015-0.812,3.451-4.669,3.451-4.669s9.947-1.827,11.571-3.857
					c1.624-2.03,3.451-6.699,3.451-6.699s10.759,0.203,10.962-1.421c0.203-1.624,1.218-3.654-1.218-4.263
					c-2.436-0.609-18.271-0.609-18.271-0.609s2.233-2.03,4.263-2.233c2.03-0.203,13.602-0.812,14.617-1.827
					c1.015-1.015-0.657-5.268-0.657-5.268l-2.794-0.619l-13.195,0.609l4.669-2.03c0,0,11.165-1.624,11.571-2.639
					c0.406-1.015-0.203-4.669-1.827-5.278c-1.624-0.609-15.632,0.406-16.241,0.406c-0.609,0,2.639-8.932,4.669-9.135
					c2.03-0.203,14.617-0.609,15.429-1.624c0.812-1.015,1.218-4.263-1.015-4.669c-2.233-0.406-10.15-1.015-10.15-1.015
					s-10.759-1.015-12.383,1.015c-1.624,2.03-7.714,16.85-8.323,17.865C200.597,205.787,198.363,210.05,198.363,210.05z"/>
				<path style="fill:none;stroke:#263238;stroke-linecap:round;stroke-linejoin:round;stroke-miterlimit:10;" d="M212.98,202.336
					c0,0-5.684,0.812-7.105,3.045c-1.421,2.233-2.842,4.669-2.842,4.669"/>
				<path style="fill:none;stroke:#263238;stroke-linecap:round;stroke-linejoin:round;stroke-miterlimit:10;" d="M214.807,211.877
					c0,0-6.293,0.406-6.902,1.218c-0.609,0.812-2.639,2.233-2.639,2.233"/>
				
					<line style="fill:none;stroke:#263238;stroke-linecap:round;stroke-linejoin:round;stroke-miterlimit:10;" x1="212.574" y1="221.216" x2="208.92" y2="223.855"/>
				
					<line style="fill:none;stroke:#263238;stroke-linecap:round;stroke-linejoin:round;stroke-miterlimit:10;" x1="221.1" y1="227.509" x2="211.153" y2="230.554"/>
				<path style="fill:none;stroke:#263238;stroke-linecap:round;stroke-linejoin:round;stroke-miterlimit:10;" d="M192.273,225.885
					c0,0-0.203,12.587,2.436,14.82c2.639,2.233,8.323-0.203,7.917-1.015c-0.406-0.812-2.639,0.203-4.669-0.812"/>
			</g>
			<path style="fill:#F13434;stroke:#263238;stroke-linecap:round;stroke-linejoin:round;stroke-miterlimit:10;" d="M125.73,251.093
				c-0.83,1.037-4.563,6.429-4.148,14.31c0.415,7.881,9.955,19.703,10.992,20.532c1.037,0.83,18.439-4.199,26.943-7.103
				c8.503-2.904,32.561-12.859,32.561-12.859s-5.392-8.503-7.466-24.473c-2.074-15.969-0.622-14.725-0.622-14.725l-20.325,6.429
				c0,0-21.135,6.481-23.21,7.932c-2.074,1.452-7.322,10.93-8.152,12.589"/>
			<g>
				<path style="fill:#949494;stroke:#263238;stroke-linecap:round;stroke-linejoin:round;stroke-miterlimit:10;" d="
					M341.242,271.692c0,0,6.95-2.502,9.173-2.224c2.224,0.278,3.614,2.224,2.502,4.17c-1.112,1.946-8.895,5.56-8.895,5.56
					l-10.841,7.505c0,0-5.56,6.95-10.007,9.173c-4.448,2.224-15.289-2.502-15.289-2.502s-5.56,1.112-10.841,0
					c-5.282-1.112-8.895-5.004-9.173-9.451c-0.278-4.448,2.502-14.733,5.282-15.567c2.78-0.834,6.394,1.112,6.394,1.112
					s15.845-8.617,18.903-8.061C321.506,261.963,341.242,271.692,341.242,271.692z"/>
				<path style="fill:#949494;stroke:#263238;stroke-linecap:round;stroke-linejoin:round;stroke-miterlimit:10;" d="
					M335.683,264.186c0,0,5.282-0.834,7.228,1.112s-0.278,7.228-0.834,11.119c-0.556,3.892-2.224,8.061-5.004,8.617
					c-2.78,0.556-5.004-3.058-5.004-4.726C332.069,278.642,335.683,264.186,335.683,264.186z"/>
				<path style="fill:#949494;stroke:#263238;stroke-linecap:round;stroke-linejoin:round;stroke-miterlimit:10;" d="
					M323.729,262.241c0,0,2.78-3.892,5.004-3.892s7.505,0.556,7.228,3.058c-0.278,2.502,0,13.899-1.668,16.679
					c-1.668,2.78-9.451,3.336-10.007,0.278S323.729,262.241,323.729,262.241z"/>
				<path style="fill:#949494;stroke:#263238;stroke-linecap:round;stroke-linejoin:round;stroke-miterlimit:10;" d="
					M305.383,268.912c0,0,1.32-3.058,3.197-6.15c1.876-3.092,4.309-6.22,6.533-6.359c4.448-0.278,8.895-1.39,8.895,3.336
					c0,4.726,1.946,16.123,0.278,18.625c-1.668,2.502-6.672,2.502-8.34,1.668c-1.668-0.834-2.78-15.567-2.78-15.567"/>
				<path style="fill:#949494;stroke:#263238;stroke-linecap:round;stroke-linejoin:round;stroke-miterlimit:10;" d="
					M288.426,278.364c0,0,0.278-9.729,1.112-11.675c0.834-1.946,7.784-7.228,9.173-9.729c1.39-2.502,6.672-3.058,7.505,0.278
					c0.834,3.336-2.224,6.672-3.892,8.061s2.502,11.675,2.502,11.675s2.502,3.614,1.39,6.672"/>
				<path style="fill:none;stroke:#263238;stroke-linecap:round;stroke-linejoin:round;stroke-miterlimit:10;" d="M302.325,265.298
					c0,0-5.004,6.116-9.173,3.058"/>
			</g>
		</g>
		<path style="fill:#FFFFFF;stroke:#263238;stroke-linecap:round;stroke-linejoin:round;stroke-miterlimit:10;" d="M221.174,309.799
			v11.693c0,0,8.309,2.569,11.651,1.615c3.342-0.955,6.475-1.919,6.475-1.919l0.48-12.23L221.174,309.799z"/>
		<path style="fill:#949494;stroke:#263238;stroke-linecap:round;stroke-linejoin:round;stroke-miterlimit:10;" d="M223.97,311.704
			v8.179c0,0,5.812,1.797,8.149,1.129c2.337-0.668,4.529-1.342,4.529-1.342l0.335-8.554L223.97,311.704z"/>
		<path style="fill:none;stroke:#263238;stroke-miterlimit:10;" d="M208.058,265.999c0,0,17.848,18.343,34.208,24.788"/>
	</g>
</g>
<g id="Bushes">
	<g>
		<path style="fill:#F13434;stroke:#263238;stroke-miterlimit:10;" d="M36.423,463.33c-0.892,0.892-2.19,2.108-3.479,3.294h424.531
			c-3.018-2.158-6.47-4.506-8.023-5.127c-2.245-0.898-10.758-0.146-15.113,0.316l-1.152-0.675
			c3.527-2.358,12.629-8.46,17.488-11.861c6.11-4.277,11.609-9.776,11.609-9.776l-12.831-4.277c0,0-4.888,0-9.165,1.222
			c-4.277,1.222-11.609,4.277-11.609,4.277l5.499-14.664c0,0-17.719-0.611-22.607,0.611c-4.888,1.222-9.165,0.611-9.165,0.611
			l5.499-8.554l-10.998-3.055l13.442-7.943c0,0-7.943-7.943-9.776-9.165c-1.833-1.222-11.609-4.888-11.609-4.888l10.998-7.332
			l-16.497-3.055l10.387-13.442l1.222,7.332c0,0,7.332-4.888,9.776-7.943c2.444-3.055,7.943-12.831,7.943-12.831
			s3.666-7.332,3.666-10.387c0-3.055,2.444-12.22,2.444-12.22l-17.108,4.888c0,0,3.666-10.998,4.888-13.442
			c1.222-2.444,4.888-17.108,3.055-17.108c-1.833,0-12.22,0-16.497,0.611c-4.277,0.611-14.664,6.11-14.664,6.11l4.888-15.886
			l-26.273,10.998c0,0,4.277-5.499,7.943-9.776c3.666-4.277,2.14-13.338,2.14-13.338s-3.973-0.715-19.859,1.118
			c-15.886,1.833-21.385,9.776-21.385,9.776s3.055-10.387,4.888-17.719c1.833-7.332,0-16.497,0-16.497s-10.998,6.721-15.296,11.569
			s-5.478,12.871-5.478,12.871s-1.833-5.499-3.666-9.165c-1.833-3.666-6.11-11.609-6.11-11.609l-1.222,13.442
			c0,0-3.055-6.721-6.11-12.831c-3.055-6.11-7.943-12.831-7.943-12.831s-1.222,5.499-1.833,16.497
			c-0.611,10.998,0.611,18.941,0.611,18.941l-28.106,10.387c0,0,7.332-4.277,12.22-8.554c4.888-4.277,11.609-14.053,11.609-14.053
			s-22.607,1.833-32.993,5.499c-10.387,3.666-22.607,7.943-20.774,6.721c1.833-1.222,9.165-8.554,12.22-15.275
			c3.055-6.721,2.444-19.552,2.444-19.552s-10.387,5.499-17.719,7.332c-7.332,1.833-20.163,17.719-20.163,17.719
			s1.222-9.776,1.222-17.719c0-7.943-5.499-20.774-5.499-20.774s-8.554,6.11-15.658,15.728c-7.104,9.618-3.894,27.041-3.894,27.041
			s0,0-4.277-4.888c-4.277-4.888-13.442-9.165-13.442-7.332c0,1.833,4.888,26.273,4.888,26.273s-12.012-6.006-18.823-8.505
			c-4.579-2.815-8.845-5.007-11.727-5.548c-9.776-1.833-23.829-2.444-23.829-2.444s5.499,14.664,6.721,16.497
			c1.222,1.833-13.442-3.666-15.275-3.666s-18.33,0.611-18.33,0.611s0.611,6.721,4.277,14.053
			c3.666,7.332,16.497,17.108,16.497,17.108s-12.831-1.833-21.384,0c-8.554,1.833-23.218,8.554-23.218,8.554l25.051,14.053
			c0,0-3.055,0-10.998,4.277c-7.943,4.277-12.831,9.776-12.831,9.776s4.277,9.776,9.776,13.442
			c5.499,3.666,18.941,9.776,18.941,9.776s-16.497,3.055-21.385,4.888c-4.888,1.833-12.22,7.332-12.22,7.332l10.387,3.666
			l-10.387,12.831l-11.609-7.332c0,0-3.055,10.998,0.611,18.33c3.666,7.332,6.721,12.831,6.721,12.831l-12.831,0.611l4.277,7.332
			c0,0-9.776,1.222-11.609,3.666c-1.833,2.444-6.721,8.554-6.721,8.554l26.273-2.444C52.308,457.22,38.867,460.886,36.423,463.33z"
			/>
		<path style="opacity:0.22;" d="M187.253,291.218l15.858-5.115l9.719,11.254l-16.881-3.581c0,0,2.558,3.069,6.138,9.208
			c3.581,6.138,8.696,23.531,8.696,23.531s-17.392-3.581-21.485-2.558c-4.092,1.023-15.346,4.092-15.346,4.092
			s8.696,8.696,13.811,10.742c5.115,2.046,19.95,6.65,19.95,6.65s-11.765,11.254-14.323,20.973
			c-2.558,9.719-4.092,20.973-4.092,20.973l25.065-17.392l0.512,9.719c0,0,7.673-9.719,10.742-14.323
			c3.069-4.604,11.765-33.25,11.765-33.25l14.835,13.3l2.558-18.415c0,0,2.046,3.069,8.185,6.65
			c6.138,3.581,15.346,7.161,15.346,7.161s-2.046-13.811-2.046-15.346c0-1.535,11.254,0.512,11.254,0.512v-11.765l8.185,11.765
			c0,0,2.558-11.254,3.581-15.346c1.023-4.092,5.791-15.196,5.791-15.196s0.348,7.011,2.394,9.569
			c2.046,2.558,4.604,6.65,4.604,6.65s3.46-26.14,9.403-31.23c2.593-2.221,5.224-8.733,7.408-15.624
			c-3.387,2.187-10.112,6.732-13.256,10.279c-4.298,4.848-5.478,12.871-5.478,12.871s-1.833-5.499-3.666-9.165
			c-1.833-3.666-6.11-11.609-6.11-11.609l-1.222,13.442c0,0-3.055-6.721-6.11-12.831c-3.055-6.11-7.943-12.831-7.943-12.831
			s-1.222,5.499-1.833,16.497c-0.611,10.998,0.611,18.941,0.611,18.941l-28.106,10.387c0,0,7.332-4.277,12.22-8.554
			c4.888-4.277,11.609-14.053,11.609-14.053s-22.607,1.833-32.993,5.499c-10.387,3.666-22.607,7.943-20.774,6.721
			c1.833-1.222,9.165-8.554,12.22-15.275c3.055-6.721,2.444-19.552,2.444-19.552s-10.387,5.499-17.719,7.332
			c-7.332,1.833-20.163,17.719-20.163,17.719s1.222-9.776,1.222-17.719c0-7.943-5.499-20.774-5.499-20.774
			s-4.943,31.163-6.478,35.767C190.322,282.522,187.253,291.218,187.253,291.218z"/>
		<path style="opacity:0.22;" d="M192.406,463.487l-6.275-12.102l-8.516,9.861c0,0-3.137-3.586-4.034-5.379
			c-0.896-1.793-0.896-10.309-2.689-8.068c-1.793,2.241-7.62,4.93-7.62,4.93l2.689-7.62l-9.412-1.345l4.482-7.171l-17.032,2.689
			l2.241-5.378l11.654-1.793c0,0-4.93-2.689-9.412-6.275c-4.482-3.586-9.861-14.343-9.861-14.343l19.721,5.827l1.793-10.309
			l-8.516-0.448l4.93-12.55l-6.275,1.793l-7.171,3.138c0,0,0.448-4.482,0-10.757c-0.448-6.275,6.723-13.446,6.723-13.446
			l-12.55,2.241c0,0-0.448-5.827-0.448-11.205s3.586-12.55,3.586-12.55s-5.379-0.448-9.861-0.896
			c-4.482-0.448-13.446-4.034-13.446-4.034s9.861-9.861,11.653-10.757c1.793-0.896,10.309-1.345,10.309-1.345
			s-13.894-7.62-11.653-8.068c2.241-0.448,30.478-3.586,30.478-3.586s-13.895-4.482-17.48-6.275
			c-3.586-1.793-12.998-12.55-12.998-12.55s20.618-5.379,25.996-5.379c5.378,0,12.998,1.793,12.998,1.793
			s-16.135-6.723-23.307-6.275c-7.171,0.448-27.341,5.378-27.341,5.378l4.482,5.827l4.482,10.757l-12.55-8.068
			c0,0,0.896,4.93,3.137,11.205c2.241,6.275,6.723,9.861,6.723,9.861l-12.102-0.448l1.793,6.723l-12.55,4.482
			c0,0,4.034,1.793,6.723,2.689c2.689,0.896,7.171,5.827,7.171,5.827s-7.171,3.137-9.861,4.034
			c-2.689,0.896-14.791,4.482-14.791,4.482s4.93,3.586,8.068,4.93c3.138,1.345,14.343,7.171,14.343,7.171l-17.928,2.689
			c0,0,6.723,3.137,9.861,4.93c3.137,1.793,15.687,8.964,15.687,8.964s-14.343,0-12.55,2.241c1.793,2.241,14.343,12.55,14.343,12.55
			s-16.584-1.793-20.17-1.345c-3.586,0.448-12.55,3.138-12.55,3.138s1.793,8.516,4.034,11.653
			c2.241,3.138,16.135,12.998,16.135,12.998s-5.827-3.138-11.653-3.138c-5.827,0-13.446-0.896-13.446-0.896l6.723,6.723l12.55,8.516
			c0,0-7.62,0.448-11.654,1.345c-4.034,0.896-15.239,3.586-15.239,3.586s3.137,0,6.723,0.448c3.586,0.448,12.998,3.586,12.998,3.586
			s-7.171,4.482-9.861,5.379c-1.895,0.632-13.128,8.156-19.604,12.55h133.449l-1.345-11.205L192.406,463.487z"/>
		<path style="opacity:0.22;" d="M358.243,299.89c-1.793,1.345-17.48,16.135-17.48,16.135l11.653-1.345l-4.93,6.275l13.446-5.827
			c0,0,7.62,4.034,8.516,6.723c0.896,2.689,3.137,8.964,3.137,8.964l-15.239-1.345h-4.482c0,0,13.895,10.757,16.135,13.446
			c2.241,2.689,6.275,15.687,6.275,15.687l-20.169-8.964c0,0,4.93,14.791,4.034,16.584c-0.896,1.793-4.482,12.998-4.482,12.998
			l-11.653-7.171c0,0,4.93,12.55,4.482,15.239c-0.448,2.689-4.034,11.205-4.034,11.205l-10.309-4.034l4.034,15.239l-10.309-3.138
			l0.896,8.516l-16.135-6.723c0,0,4.034,5.827,4.93,7.62c0.896,1.793,4.482,8.068,4.482,8.068l13.446-4.034l-5.379,9.861
			c0,0,13.895-3.586,15.687-3.586c1.793,0,14.343,4.482,14.343,4.482l-22.859,12.998l12.102,1.345l-11.653,8.964l16.135,2.689
			c0,0-13.895,6.723-15.239,7.62c-1.345,0.896-7.171,1.793-7.171,1.793l-16.135-8.516l-1.793,4.034c0,0-7.171-2.689-10.757-4.482
			c-3.586-1.793-11.654-13.895-11.654-13.895l-0.448,13.895l-8.516-12.102c0,0-0.448,10.757-1.793,12.998
			c-1.345,2.241-7.171,6.275-7.171,6.275s-6.723-8.964-8.964-15.239c-2.241-6.275-4.482-13.895-4.482-13.895
			s-4.482,15.239-5.379,17.032c-0.896,1.793-4.034,5.379-4.034,5.379l-4.482-8.964l-2.689,11.653l-9.861-4.034l1.345,4.482
			l-12.55,0.448l4.034,4.034l-1.345,1.345h233.694c-3.018-2.158-6.47-4.506-8.023-5.127c-2.245-0.898-10.758-0.146-15.113,0.316
			l-1.152-0.675c3.527-2.358,12.629-8.46,17.488-11.861c6.11-4.277,11.609-9.776,11.609-9.776l-12.831-4.277
			c0,0-4.888,0-9.165,1.222c-4.277,1.222-11.609,4.277-11.609,4.277l5.499-14.664c0,0-17.719-0.611-22.607,0.611
			c-4.888,1.222-9.165,0.611-9.165,0.611l5.499-8.554l-10.998-3.055l13.442-7.943c0,0-7.943-7.943-9.776-9.165
			c-1.833-1.222-11.609-4.888-11.609-4.888l10.998-7.332l-16.497-3.055l10.387-13.442l1.222,7.332c0,0,7.332-4.888,9.776-7.943
			c2.444-3.055,7.943-12.831,7.943-12.831s3.666-7.332,3.666-10.387c0-3.055,2.444-12.22,2.444-12.22l-17.108,4.888
			c0,0,3.666-10.998,4.888-13.442c1.222-2.444,4.888-17.108,3.055-17.108c-1.833,0-12.22,0-16.497,0.611
			c-4.277,0.611-14.664,6.11-14.664,6.11l4.888-15.886l-26.273,10.998c0,0,4.277-5.499,7.943-9.776
			c3.666-4.277,2.14-13.338,2.14-13.338S360.036,298.546,358.243,299.89z"/>
		<path style="fill:none;stroke:#263238;stroke-miterlimit:10;" d="M36.423,463.33c-0.892,0.892-2.19,2.108-3.479,3.294h424.531
			c-3.018-2.158-6.47-4.506-8.023-5.127c-2.245-0.898-10.758-0.146-15.113,0.316l-1.152-0.675
			c3.527-2.358,12.629-8.46,17.488-11.861c6.11-4.277,11.609-9.776,11.609-9.776l-12.831-4.277c0,0-4.888,0-9.165,1.222
			c-4.277,1.222-11.609,4.277-11.609,4.277l5.499-14.664c0,0-17.719-0.611-22.607,0.611c-4.888,1.222-9.165,0.611-9.165,0.611
			l5.499-8.554l-10.998-3.055l13.442-7.943c0,0-7.943-7.943-9.776-9.165c-1.833-1.222-11.609-4.888-11.609-4.888l10.998-7.332
			l-16.497-3.055l10.387-13.442l1.222,7.332c0,0,7.332-4.888,9.776-7.943c2.444-3.055,7.943-12.831,7.943-12.831
			s3.666-7.332,3.666-10.387c0-3.055,2.444-12.22,2.444-12.22l-17.108,4.888c0,0,3.666-10.998,4.888-13.442
			c1.222-2.444,4.888-17.108,3.055-17.108c-1.833,0-12.22,0-16.497,0.611c-4.277,0.611-14.664,6.11-14.664,6.11l4.888-15.886
			l-26.273,10.998c0,0,4.277-5.499,7.943-9.776c3.666-4.277,2.14-13.338,2.14-13.338s-3.973-0.715-19.859,1.118
			c-15.886,1.833-21.385,9.776-21.385,9.776s3.055-10.387,4.888-17.719c1.833-7.332,0-16.497,0-16.497s-10.998,6.721-15.296,11.569
			s-5.478,12.871-5.478,12.871s-1.833-5.499-3.666-9.165c-1.833-3.666-6.11-11.609-6.11-11.609l-1.222,13.442
			c0,0-3.055-6.721-6.11-12.831c-3.055-6.11-7.943-12.831-7.943-12.831s-1.222,5.499-1.833,16.497
			c-0.611,10.998,0.611,18.941,0.611,18.941l-28.106,10.387c0,0,7.332-4.277,12.22-8.554c4.888-4.277,11.609-14.053,11.609-14.053
			s-22.607,1.833-32.993,5.499c-10.387,3.666-22.607,7.943-20.774,6.721c1.833-1.222,9.165-8.554,12.22-15.275
			c3.055-6.721,2.444-19.552,2.444-19.552s-10.387,5.499-17.719,7.332c-7.332,1.833-20.163,17.719-20.163,17.719
			s1.222-9.776,1.222-17.719c0-7.943-5.499-20.774-5.499-20.774s-8.554,6.11-15.658,15.728c-7.104,9.618-3.894,27.041-3.894,27.041
			s0,0-4.277-4.888c-4.277-4.888-13.442-9.165-13.442-7.332c0,1.833,4.888,26.273,4.888,26.273s-12.012-6.006-18.823-8.505
			c-4.579-2.815-8.845-5.007-11.727-5.548c-9.776-1.833-23.829-2.444-23.829-2.444s5.499,14.664,6.721,16.497
			c1.222,1.833-13.442-3.666-15.275-3.666s-18.33,0.611-18.33,0.611s0.611,6.721,4.277,14.053
			c3.666,7.332,16.497,17.108,16.497,17.108s-12.831-1.833-21.384,0c-8.554,1.833-23.218,8.554-23.218,8.554l25.051,14.053
			c0,0-3.055,0-10.998,4.277c-7.943,4.277-12.831,9.776-12.831,9.776s4.277,9.776,9.776,13.442
			c5.499,3.666,18.941,9.776,18.941,9.776s-16.497,3.055-21.385,4.888c-4.888,1.833-12.22,7.332-12.22,7.332l10.387,3.666
			l-10.387,12.831l-11.609-7.332c0,0-3.055,10.998,0.611,18.33c3.666,7.332,6.721,12.831,6.721,12.831l-12.831,0.611l4.277,7.332
			c0,0-9.776,1.222-11.609,3.666c-1.833,2.444-6.721,8.554-6.721,8.554l26.273-2.444C52.308,457.22,38.867,460.886,36.423,463.33z"
			/>
	</g>
</g>
<g id="Plants_1">
	<g>
		<path style="fill:#263238;" d="M309.379,414.355c1.757,0.767,6.055,0.671,6.059,0.671c0.044-0.001-0.924-2.814-1.005-2.984
			c-0.943-1.973-3.925-5.23-6.352-4.902c-1.748,0.236-2.72,1.986-2.326,3.632C306.158,412.453,307.882,413.701,309.379,414.355z"/>
		<path style="fill:#263238;" d="M310.862,426.804c1.823,0.266,5.658-0.847,5.963-0.937c0.606,2.147,1.401,4.302,2.326,6.437
			c0.527,1.222,1.097,2.435,1.683,3.645c-0.35-0.512-0.667-0.968-0.717-1.027c-1.431-1.654-5.167-4.008-7.421-3.05
			c-1.624,0.689-2.099,2.633-1.284,4.116c0.832,1.515,2.826,2.264,4.442,2.499c1.64,0.239,4.929-0.643,5.796-0.889
			c0.23,0.462,0.454,0.926,0.686,1.386c1.111,2.212,2.229,4.414,3.259,6.607c0.363,0.773,0.693,1.547,1.026,2.321
			c-0.311-0.455-0.577-0.835-0.624-0.89c-1.43-1.653-5.167-4.008-7.421-3.05c-1.624,0.69-2.099,2.634-1.284,4.117
			c0.833,1.515,2.826,2.264,4.442,2.499c1.565,0.228,4.608-0.559,5.64-0.846c0.317,0.803,0.635,1.606,0.906,2.398
			c0.173,0.545,0.377,1.058,0.519,1.615c0.153,0.549,0.304,1.091,0.455,1.629c0.251,1.046,0.517,2.124,0.735,3.151
			c0.158,0.713,0.295,1.395,0.436,2.082c-0.353-0.773-1.076-2.273-1.15-2.392c-1.163-1.851-4.5-4.743-6.873-4.139
			c-1.709,0.436-2.474,2.285-1.892,3.875c0.593,1.623,2.45,2.666,4.011,3.144c1.72,0.525,5.527,0.045,6.002-0.018
			c0.228,1.137,0.439,2.246,0.622,3.295c0.137,0.777,0.262,1.523,0.376,2.24h1.525c-0.144-0.798-0.301-1.633-0.475-2.507
			c-0.227-1.156-0.493-2.387-0.777-3.648c0.286-0.114,1.91-0.77,3.349-1.574c1.253,1.357,4.465,2.945,4.88,3.147
			c-0.437,1.075-0.872,2.116-1.299,3.092c-0.225,0.517-0.443,1.005-0.661,1.49h1.612c0.128-0.307,0.255-0.607,0.385-0.925
			c0.448-1.089,0.906-2.263,1.364-3.471c0.461,0.096,4.229,0.862,5.986,0.465c1.593-0.36,3.522-1.261,4.235-2.836
			c0.698-1.541,0.073-3.443-1.6-4.005c-2.321-0.78-5.864,1.856-7.162,3.616c-0.077,0.104-0.782,1.323-1.214,2.099
			c0.185-0.495,0.369-0.973,0.553-1.485c0.371-1.01,0.711-2.028,1.08-3.123c0.16-0.535,0.322-1.075,0.485-1.621
			c0.173-0.538,0.288-1.128,0.436-1.696c0.316-1.326,0.571-2.684,0.798-4.058c0.885,0.322,4.044,1.421,5.681,1.306
			c1.629-0.115,3.672-0.713,4.616-2.161c0.924-1.418,0.594-3.392-0.974-4.201c-2.176-1.122-6.078,0.947-7.627,2.489
			c-0.097,0.096-1.084,1.328-1.614,2.015c0.13-0.827,0.264-1.652,0.368-2.493c0.301-2.428,0.531-4.895,0.771-7.355
			c0.073-0.754,0.155-1.504,0.234-2.255c0.314,0.118,4.04,1.506,5.873,1.377c1.629-0.114,3.673-0.713,4.616-2.161
			c0.924-1.418,0.594-3.392-0.974-4.201c-2.176-1.122-6.077,0.947-7.627,2.489c-0.117,0.116-1.535,1.891-1.874,2.36
			c0.175-1.654,0.364-3.301,0.617-4.917c0.345-2.229,0.808-4.398,1.411-6.466c0.146,0.056,4.029,1.521,5.906,1.389
			c1.629-0.114,3.673-0.713,4.616-2.161c0.923-1.418,0.594-3.392-0.974-4.201c-2.177-1.122-6.078,0.947-7.628,2.489
			c-0.121,0.121-1.647,2.031-1.899,2.397c0.036-0.123,0.06-0.254,0.098-0.376c0.672-2.199,1.599-4.246,2.562-6.119
			c0.557-1.09,1.15-2.1,1.749-3.07c0.695,0.347,3.89,1.898,5.593,1.967c1.632,0.065,3.729-0.306,4.825-1.642
			c1.074-1.308,0.963-3.307-0.506-4.282c-2.04-1.355-6.145,0.273-7.855,1.636c-0.093,0.074-0.954,0.932-1.573,1.566
			c0.277-0.434,0.555-0.886,0.829-1.296c1.024-1.543,2.057-2.892,2.982-4.08c0.531-0.671,1.025-1.267,1.492-1.821
			c0.86-0.015,4.324-0.12,5.839-0.831c1.478-0.694,3.169-1.989,3.526-3.68c0.35-1.656-0.669-3.379-2.423-3.567
			c-2.434-0.263-5.328,3.074-6.217,5.072c-0.077,0.173-0.969,3.011-0.924,3.01c0,0,0.042,0,0.052-0.001
			c-0.461,0.523-0.949,1.089-1.47,1.719c-0.952,1.17-2.017,2.5-3.079,4.027c-1.065,1.523-2.179,3.207-3.193,5.086
			c-1.018,1.883-1.993,3.916-2.728,6.14c-0.008,0.025-0.014,0.052-0.022,0.078c0.013-0.717-0.019-2.724-0.039-2.878
			c-0.281-2.168-2.098-6.193-4.507-6.638c-1.734-0.32-3.204,1.039-3.342,2.725c-0.141,1.723,1.108,3.447,2.326,4.535
			c1.374,1.227,5.186,2.415,5.49,2.509c-0.68,2.125-1.204,4.36-1.611,6.652c-0.234,1.31-0.428,2.637-0.607,3.969
			c-0.009-0.621-0.022-1.175-0.032-1.253c-0.281-2.169-2.098-6.193-4.507-6.638c-1.735-0.321-3.204,1.038-3.342,2.725
			c-0.141,1.723,1.108,3.447,2.326,4.535c1.236,1.104,4.466,2.182,5.325,2.456c-0.063,0.512-0.132,1.023-0.193,1.535
			c-0.294,2.457-0.576,4.911-0.927,7.309c-0.123,0.845-0.275,1.673-0.425,2.501c-0.009-0.551-0.021-1.015-0.03-1.085
			c-0.281-2.169-2.099-6.193-4.506-6.638c-1.735-0.32-3.204,1.038-3.343,2.726c-0.141,1.722,1.108,3.447,2.326,4.535
			c1.179,1.054,4.152,2.076,5.171,2.406c-0.179,0.844-0.356,1.69-0.567,2.5c-0.157,0.55-0.27,1.09-0.457,1.633
			c-0.175,0.541-0.348,1.078-0.519,1.609c-0.368,1.011-0.741,2.057-1.125,3.034c-0.262,0.682-0.524,1.327-0.786,1.977
			c0.132-0.84,0.357-2.489,0.36-2.629c0.033-1.452-0.482-3.814-1.509-5.474c0.006-0.214-0.006-0.428-0.04-0.641
			c-0.269-1.671-1.839-2.912-3.543-2.458c-2.366,0.63-3.867,4.784-3.979,6.967c-0.007,0.129,0.078,1.534,0.145,2.421
			c-0.12-0.515-0.229-1.016-0.358-1.544c-0.248-1.047-0.527-2.083-0.822-3.201c-0.161-0.534-0.325-1.074-0.49-1.619
			c-0.152-0.543-0.382-1.099-0.572-1.655c-0.468-1.279-1.004-2.554-1.573-3.825c0.916-0.22,4.157-1.046,5.458-2.045
			c1.296-0.994,2.67-2.621,2.658-4.349c-0.012-1.693-1.376-3.158-3.129-2.967c-2.434,0.264-4.547,4.142-4.989,6.284
			c-0.027,0.134-0.172,1.706-0.234,2.571c-0.348-0.761-0.691-1.523-1.069-2.282c-1.088-2.191-2.257-4.375-3.414-6.559
			c-0.355-0.669-0.7-1.339-1.049-2.009c0.327-0.075,4.201-0.974,5.658-2.092c1.296-0.994,2.67-2.621,2.658-4.349
			c-0.012-1.692-1.376-3.157-3.129-2.966c-2.434,0.264-4.547,4.142-4.989,6.283c-0.033,0.161-0.237,2.424-0.261,3.002
			c-0.767-1.476-1.517-2.954-2.198-4.441c-0.942-2.05-1.752-4.114-2.39-6.172c0.152-0.035,4.199-0.955,5.693-2.1
			c1.296-0.994,2.67-2.621,2.657-4.349c-0.012-1.692-1.375-3.157-3.13-2.966c-2.434,0.264-4.547,4.142-4.988,6.284
			c-0.035,0.168-0.253,2.603-0.261,3.046c-0.038-0.122-0.09-0.245-0.127-0.367c-0.652-2.206-1.008-4.424-1.239-6.517
			c-0.137-1.216-0.199-2.386-0.234-3.525c0.771-0.094,4.292-0.563,5.749-1.445c1.397-0.846,2.942-2.312,3.119-4.031
			c0.174-1.684-1.021-3.289-2.785-3.293c-2.449-0.005-4.974,3.618-5.649,5.698c-0.037,0.113-0.282,1.304-0.449,2.174
			c-0.008-0.515-0.026-1.046-0.024-1.539c0.004-1.851,0.12-3.547,0.236-5.048c0.073-0.853,0.156-1.623,0.241-2.342
			c0.709-0.487,3.54-2.486,4.411-3.915c0.85-1.394,1.545-3.407,0.911-5.014c-0.622-1.574-2.422-2.449-3.988-1.639
			c-2.176,1.125-2.747,5.503-2.388,7.66c0.031,0.186,0.853,3.045,0.89,3.02c0,0,0.034-0.024,0.043-0.03
			c-0.096,0.691-0.19,1.432-0.277,2.244c-0.149,1.501-0.303,3.198-0.347,5.057c-0.048,1.857-0.049,3.877,0.143,6.004
			c0.19,2.132,0.497,4.366,1.112,6.626c0.007,0.026,0.018,0.051,0.025,0.077c-0.385-0.605-1.519-2.261-1.621-2.379
			c-1.431-1.654-5.167-4.008-7.421-3.051c-1.624,0.69-2.099,2.634-1.284,4.117C307.254,425.82,309.247,426.569,310.862,426.804z"/>
		<path style="fill:#263238;" d="M352.851,415.301c0.038,0.024,0.782-2.857,0.808-3.044c0.301-2.165-0.389-6.527-2.594-7.593
			c-1.588-0.767-3.364,0.156-3.943,1.746c-0.591,1.624,0.158,3.617,1.046,4.988C349.21,413.009,352.849,415.298,352.851,415.301z"/>
	</g>
</g>
<g id="Floor">
	
		<line style="fill:none;stroke:#263238;stroke-linecap:round;stroke-linejoin:round;stroke-miterlimit:10;" x1="4.069" y1="466.624" x2="495.45" y2="466.624"/>
</g>
</svg>
