<?xml version="1.0" encoding="iso-8859-1"?>
<!-- Generator: Adobe Illustrator 27.3.1, SVG Export Plug-In . SVG Version: 6.00 Build 0)  -->
<svg version="1.1" xmlns="http://www.w3.org/2000/svg" xmlns:xlink="http://www.w3.org/1999/xlink" x="0px" y="0px"
	 viewBox="0 0 500 500" style="enable-background:new 0 0 500 500;" xml:space="preserve">
<g id="Background_Simple">
	<g>
		<path style="fill:#F13434;" d="M453.674,402.277c-1.762,2.794-3.591,5.534-5.495,8.209c-25.368,35.6-66.675,59.349-106.485,69.554
			c-17.44,4.479-35.281,6.595-53.042,6.791c-116.491,1.238-156.72-96.763-193.566-122.721
			c-36.846-25.958-93.274-70.126-83.719-159.573c7.254-68.009,47.349-132.173,118.249-160c7.809-3.075,16-5.707,24.559-7.845
			c15.921-3.979,33.126-6.29,51.606-6.638c53.082-1.004,95.796,13.022,137.059,46.614c9.592,7.809,19.106,16.582,31.784,17.847
			c9.216,0.919,18.057-2.202,8.641-11.463c-11.067-10.885,2.563-31.372,30.982-16.152c47.463,25.421,65.888,78.08,73.827,131.344
			C497.818,263.625,490.165,344.417,453.674,402.277z"/>
		<path style="opacity:0.7;fill:#FFFFFF;" d="M453.674,402.277c-1.762,2.794-3.591,5.534-5.495,8.209
			c-25.368,35.6-66.675,59.349-106.485,69.554c-17.44,4.479-35.281,6.595-53.042,6.791
			c-116.491,1.238-156.72-96.763-193.566-122.721c-36.846-25.958-93.274-70.126-83.719-159.573
			c7.254-68.009,47.349-132.173,118.249-160c7.809-3.075,16-5.707,24.559-7.845c15.921-3.979,33.126-6.29,51.606-6.638
			c53.082-1.004,95.796,13.022,137.059,46.614c9.592,7.809,19.106,16.582,31.784,17.847c9.216,0.919,18.057-2.202,8.641-11.463
			c-11.067-10.885,2.563-31.372,30.982-16.152c47.463,25.421,65.888,78.08,73.827,131.344
			C497.818,263.625,490.165,344.417,453.674,402.277z"/>
	</g>
</g>
<g id="Bushes">
	<g>
		<path style="fill:#F13434;" d="M15.436,413.889c0,0,35.735-24.232,35.735-26.733c0-2.501-29.179-15.84-13.339-30.012
			c15.84-14.173,40.017-6.669,40.017-6.669s-65.027-33.347-37.516-57.524c27.511-24.177,80.033,30.846,80.033,30.846
			s-24.62-52.17,18.425-57.336c16.182-1.941,26.91,11.676,34.056,24.277c5.242,9.245,9.219,29.633,19.026,35.002
			c6.281,3.438,7.371,0.116,9.463-6.315c4.536-13.941,7.462-28.174,20.691-36.545c13.995-8.855,33.536-10.695,49.086-5.499
			c12.361,4.13,23.141,13.129,29.36,24.591c6.718,12.383,2.663,29.606,12.325,40.153c9.172,10.013,19.513-3.949,29.945,1.669
			c14.674,7.907-6.741,36.497,17.254,32.611c9.068-1.469,17.339-5.502,26.176-7.687c11.427-2.826,36.277-10.208,45.854,0.637
			c17.914,20.288-9.442,47.022-17.004,44.534H15.436z"/>
		<path style="opacity:0.39;fill:#FFFFFF;" d="M15.436,413.889c0,0,35.735-24.232,35.735-26.733c0-2.501-29.179-15.84-13.339-30.012
			c15.84-14.173,40.017-6.669,40.017-6.669s-65.027-33.347-37.516-57.524c27.511-24.177,80.033,30.846,80.033,30.846
			s-24.62-52.17,18.425-57.336c16.182-1.941,26.91,11.676,34.056,24.277c5.242,9.245,9.219,29.633,19.026,35.002
			c6.281,3.438,7.371,0.116,9.463-6.315c4.536-13.941,7.462-28.174,20.691-36.545c13.995-8.855,33.536-10.695,49.086-5.499
			c12.361,4.13,23.141,13.129,29.36,24.591c6.718,12.383,2.663,29.606,12.325,40.153c9.172,10.013,19.513-3.949,29.945,1.669
			c14.674,7.907-6.741,36.497,17.254,32.611c9.068-1.469,17.339-5.502,26.176-7.687c11.427-2.826,36.277-10.208,45.854,0.637
			c17.914,20.288-9.442,47.022-17.004,44.534H15.436z"/>
		<polygon style="fill:#8A8A8A;" points="189.887,393.724 201.233,413.888 223.968,413.888 215.487,400.892 244.67,369.66 
			206.783,398.332 202.687,389.116 213.439,374.268 195.519,385.532 153.299,341.501 187.603,387.58 176.575,386.556 
			154.048,369.148 171.967,389.628 128.448,388.092 		"/>
	</g>
</g>
<g id="Floor">
	<line style="fill:none;stroke:#263238;stroke-miterlimit:10;" x1="480.113" y1="414.051" x2="10.915" y2="414.051"/>
</g>
<g id="Clouds">
	<g>
		<path style="fill:none;stroke:#263238;stroke-linecap:round;stroke-linejoin:round;stroke-miterlimit:10;" d="M297.733,91.62
			h153.73c0,0-3.885-15.54-14.569-27.195c-10.684-11.655-24.281,5.827-30.109,1.942c0,0-3.14-5.606-7.91-12.186"/>
		<path style="fill:none;stroke:#263238;stroke-linecap:round;stroke-linejoin:round;stroke-miterlimit:10;" d="M394.409,48.397
			c-4.435-5.369-9.627-10.514-14.819-13.11c-13.598-6.799-28.166-5.827-37.879,9.713C332,60.54,329.086,75.109,323.258,68.31
			c-5.827-6.799-20.396-11.655-30.109-5.827c-9.712,5.827-9.712,15.54-15.54,18.454c-5.827,2.914-15.54-9.712-25.252-3.885
			S237.789,91.62,237.789,91.62h53.234"/>
	</g>
	<g>
		<path style="fill:none;stroke:#263238;stroke-linecap:round;stroke-linejoin:round;stroke-miterlimit:10;" d="M78.288,109.756
			h79.391c0,0-2.006-8.025-7.524-14.044c-5.517-6.019-12.54,3.009-15.549,1.003c0,0-1.621-2.895-4.085-6.293"/>
		<path style="fill:none;stroke:#263238;stroke-linecap:round;stroke-linejoin:round;stroke-miterlimit:10;" d="M128.214,87.435
			c-2.29-2.772-4.972-5.43-7.653-6.77c-7.022-3.511-14.546-3.009-19.562,5.016c-5.016,8.025-6.521,15.549-9.53,12.038
			c-3.01-3.511-10.533-6.019-15.549-3.009c-5.016,3.009-5.016,8.025-8.025,9.53c-3.009,1.505-8.025-5.016-13.041-2.006
			s-7.524,7.524-7.524,7.524h27.492"/>
	</g>
	<g>
		<path style="fill:none;stroke:#263238;stroke-linecap:round;stroke-linejoin:round;stroke-miterlimit:10;" d="M288.063,175.118
			h79.391c0,0-2.006-8.025-7.524-14.044c-5.518-6.019-12.54,3.009-15.549,1.003c0,0-1.621-2.895-4.085-6.293"/>
		<path style="fill:none;stroke:#263238;stroke-linecap:round;stroke-linejoin:round;stroke-miterlimit:10;" d="M337.99,152.797
			c-2.29-2.773-4.971-5.43-7.653-6.77c-7.022-3.511-14.546-3.009-19.562,5.016c-5.016,8.025-6.521,15.549-9.53,12.038
			c-3.009-3.511-10.533-6.019-15.549-3.009c-5.016,3.009-5.016,8.025-8.025,9.53c-3.009,1.505-8.025-5.016-13.041-2.006
			c-5.016,3.009-7.524,7.524-7.524,7.524h27.492"/>
	</g>
</g>
<g id="Lamp">
	<g>
		<polygon style="fill:#263238;" points="355.192,405.53 341.436,405.53 343.5,56.331 353.129,56.331 		"/>
		<polygon style="fill:#263238;" points="359.046,54.64 336.703,54.64 333.91,21.824 361.839,21.824 		"/>
		<polygon style="fill:#FFFFFF;" points="356.549,54.64 339.199,54.64 337.031,21.824 358.718,21.824 		"/>
		<rect x="331.721" y="18.799" style="fill:#263238;" width="32.469" height="5.472"/>
		<rect x="334.275" y="51.081" style="fill:#263238;" width="27.361" height="6.754"/>
		<rect x="336.099" y="15.151" style="fill:#263238;" width="23.348" height="3.648"/>
		<rect x="345.251" y="9.71" style="fill:#263238;" width="4.013" height="5.472"/>
		<rect x="336.484" y="384.66" style="fill:#263238;" width="24.21" height="29.39"/>
	</g>
</g>
<g id="Trees">
	<g>
		<path style="fill:#263238;" d="M288.398,368.707c1.54,0.672,5.304,0.587,5.307,0.587c0.039-0.001-0.809-2.465-0.881-2.614
			c-0.826-1.728-3.438-4.581-5.564-4.294c-1.531,0.207-2.383,1.74-2.037,3.181C285.576,367.04,287.087,368.134,288.398,368.707z"/>
		<path style="fill:#263238;" d="M289.697,379.612c1.597,0.233,4.957-0.741,5.224-0.82c0.531,1.881,1.227,3.768,2.038,5.639
			c0.462,1.07,0.961,2.133,1.474,3.193c-0.306-0.449-0.584-0.848-0.629-0.9c-1.253-1.449-4.526-3.511-6.5-2.672
			c-1.423,0.604-1.839,2.307-1.125,3.606c0.729,1.327,2.476,1.983,3.891,2.189c1.437,0.21,4.318-0.564,5.078-0.779
			c0.201,0.405,0.398,0.811,0.601,1.214c0.973,1.938,1.952,3.866,2.855,5.788c0.318,0.677,0.607,1.355,0.898,2.033
			c-0.273-0.399-0.506-0.732-0.547-0.779c-1.253-1.448-4.526-3.51-6.5-2.672c-1.423,0.604-1.839,2.307-1.125,3.606
			c0.73,1.327,2.475,1.983,3.891,2.189c1.371,0.2,4.037-0.49,4.941-0.741c0.277,0.703,0.557,1.407,0.794,2.1
			c0.151,0.478,0.33,0.927,0.455,1.414c0.134,0.481,0.267,0.956,0.398,1.428c0.22,0.916,0.452,1.86,0.644,2.76
			c0.138,0.625,0.259,1.222,0.382,1.824c-0.309-0.678-0.942-1.991-1.008-2.095c-1.019-1.622-3.942-4.155-6.021-3.626
			c-1.497,0.382-2.167,2.002-1.658,3.394c0.52,1.422,2.146,2.335,3.514,2.754c1.506,0.46,4.841,0.04,5.258-0.016
			c0.2,0.996,0.385,1.967,0.545,2.887c0.12,0.68,0.229,1.334,0.329,1.962h1.336c-0.126-0.699-0.264-1.43-0.416-2.196
			c-0.199-1.013-0.431-2.091-0.681-3.195c0.251-0.1,1.673-0.675,2.933-1.379c1.098,1.189,3.911,2.58,4.275,2.757
			c-0.383,0.941-0.764,1.853-1.138,2.708c-0.197,0.453-0.388,0.88-0.579,1.305h1.412c0.112-0.269,0.223-0.531,0.337-0.811
			c0.393-0.954,0.794-1.982,1.195-3.041c0.403,0.084,3.705,0.755,5.243,0.408c1.395-0.315,3.085-1.105,3.71-2.484
			c0.611-1.35,0.064-3.016-1.401-3.508c-2.033-0.683-5.137,1.626-6.274,3.167c-0.067,0.091-0.685,1.159-1.063,1.839
			c0.162-0.433,0.323-0.853,0.484-1.301c0.325-0.884,0.622-1.777,0.946-2.735c0.14-0.469,0.282-0.942,0.425-1.42
			c0.152-0.471,0.252-0.988,0.382-1.486c0.277-1.161,0.5-2.351,0.699-3.555c0.775,0.282,3.542,1.245,4.976,1.144
			c1.427-0.1,3.217-0.624,4.043-1.893c0.809-1.242,0.52-2.972-0.853-3.68c-1.906-0.983-5.324,0.829-6.682,2.181
			c-0.085,0.084-0.95,1.163-1.413,1.765c0.114-0.724,0.231-1.447,0.322-2.184c0.264-2.127,0.465-4.288,0.675-6.442
			c0.064-0.66,0.136-1.317,0.205-1.975c0.275,0.104,3.539,1.319,5.145,1.206c1.427-0.1,3.217-0.624,4.043-1.893
			c0.809-1.242,0.521-2.972-0.853-3.68c-1.906-0.983-5.324,0.829-6.681,2.18c-0.102,0.102-1.345,1.656-1.642,2.067
			c0.153-1.449,0.319-2.891,0.541-4.307c0.302-1.953,0.708-3.853,1.236-5.664c0.128,0.049,3.529,1.332,5.174,1.217
			c1.427-0.1,3.217-0.625,4.044-1.893c0.809-1.242,0.521-2.971-0.853-3.68c-1.907-0.983-5.324,0.829-6.681,2.18
			c-0.106,0.106-1.442,1.779-1.663,2.1c0.032-0.107,0.053-0.223,0.086-0.33c0.589-1.927,1.401-3.719,2.244-5.36
			c0.488-0.954,1.008-1.84,1.533-2.689c0.609,0.304,3.408,1.663,4.899,1.723c1.43,0.057,3.266-0.268,4.227-1.438
			c0.941-1.146,0.844-2.896-0.443-3.751c-1.787-1.187-5.383,0.24-6.881,1.433c-0.081,0.065-0.836,0.817-1.378,1.372
			c0.243-0.38,0.486-0.777,0.726-1.136c0.897-1.351,1.802-2.533,2.612-3.574c0.465-0.588,0.897-1.11,1.307-1.595
			c0.753-0.013,3.788-0.105,5.115-0.728c1.294-0.608,2.776-1.742,3.089-3.224c0.306-1.451-0.586-2.96-2.122-3.125
			c-2.132-0.23-4.667,2.693-5.446,4.443c-0.067,0.151-0.849,2.637-0.81,2.637c0,0,0.037,0,0.046-0.001
			c-0.404,0.458-0.831,0.954-1.287,1.506c-0.834,1.025-1.767,2.19-2.697,3.527c-0.933,1.334-1.909,2.809-2.797,4.456
			c-0.892,1.65-1.746,3.43-2.389,5.379c-0.007,0.022-0.012,0.046-0.019,0.068c0.011-0.628-0.017-2.386-0.034-2.521
			c-0.246-1.899-1.838-5.425-3.948-5.815c-1.519-0.28-2.806,0.91-2.927,2.388c-0.123,1.509,0.971,3.019,2.038,3.973
			c1.203,1.075,4.543,2.116,4.809,2.198c-0.595,1.861-1.055,3.819-1.411,5.827c-0.205,1.148-0.375,2.31-0.532,3.477
			c-0.008-0.544-0.019-1.03-0.028-1.097c-0.246-1.9-1.838-5.425-3.948-5.815c-1.52-0.281-2.806,0.91-2.927,2.387
			c-0.124,1.509,0.97,3.02,2.037,3.973c1.083,0.967,3.912,1.912,4.664,2.152c-0.055,0.448-0.115,0.896-0.169,1.344
			c-0.257,2.153-0.504,4.302-0.812,6.402c-0.108,0.74-0.241,1.465-0.372,2.191c-0.008-0.482-0.018-0.889-0.026-0.951
			c-0.246-1.9-1.838-5.425-3.947-5.815c-1.52-0.281-2.807,0.91-2.928,2.388c-0.124,1.509,0.971,3.02,2.038,3.972
			c1.033,0.923,3.637,1.818,4.529,2.108c-0.156,0.74-0.312,1.48-0.497,2.19c-0.138,0.482-0.236,0.954-0.401,1.431
			c-0.153,0.474-0.305,0.945-0.455,1.41c-0.323,0.886-0.649,1.802-0.985,2.658c-0.229,0.597-0.459,1.162-0.688,1.732
			c0.116-0.736,0.313-2.181,0.316-2.303c0.029-1.272-0.422-3.341-1.322-4.795c0.005-0.188-0.005-0.375-0.035-0.561
			c-0.235-1.464-1.611-2.551-3.104-2.153c-2.073,0.552-3.387,4.19-3.485,6.103c-0.006,0.113,0.068,1.344,0.127,2.12
			c-0.105-0.451-0.2-0.89-0.314-1.353c-0.217-0.917-0.462-1.825-0.72-2.804c-0.142-0.468-0.285-0.94-0.429-1.418
			c-0.133-0.476-0.334-0.963-0.501-1.449c-0.41-1.121-0.88-2.237-1.378-3.351c0.803-0.192,3.642-0.916,4.781-1.791
			c1.135-0.871,2.339-2.296,2.328-3.81c-0.011-1.483-1.205-2.766-2.741-2.599c-2.132,0.231-3.983,3.629-4.37,5.505
			c-0.024,0.117-0.15,1.494-0.205,2.252c-0.304-0.667-0.605-1.334-0.936-1.999c-0.953-1.92-1.977-3.833-2.991-5.746
			c-0.311-0.586-0.613-1.173-0.919-1.76c0.286-0.066,3.68-0.853,4.957-1.833c1.135-0.871,2.339-2.296,2.328-3.81
			c-0.011-1.482-1.205-2.766-2.741-2.599c-2.133,0.232-3.983,3.628-4.37,5.504c-0.029,0.141-0.208,2.123-0.229,2.629
			c-0.672-1.293-1.329-2.587-1.925-3.89c-0.825-1.796-1.535-3.604-2.094-5.406c0.134-0.03,3.678-0.836,4.987-1.84
			c1.135-0.871,2.339-2.296,2.328-3.81c-0.01-1.483-1.205-2.766-2.741-2.599c-2.132,0.231-3.983,3.629-4.37,5.504
			c-0.03,0.147-0.222,2.28-0.229,2.668c-0.033-0.107-0.079-0.214-0.111-0.322c-0.571-1.932-0.883-3.875-1.085-5.709
			c-0.12-1.065-0.174-2.09-0.205-3.088c0.676-0.082,3.76-0.493,5.036-1.266c1.224-0.741,2.577-2.025,2.732-3.531
			c0.152-1.475-0.894-2.882-2.439-2.884c-2.145-0.004-4.357,3.169-4.948,4.991c-0.032,0.099-0.247,1.142-0.393,1.905
			c-0.007-0.451-0.023-0.916-0.021-1.348c0.003-1.622,0.105-3.107,0.207-4.422c0.064-0.747,0.136-1.421,0.211-2.051
			c0.621-0.427,3.101-2.178,3.864-3.43c0.745-1.222,1.354-2.984,0.798-4.393c-0.544-1.379-2.121-2.145-3.494-1.436
			c-1.906,0.985-2.407,4.821-2.092,6.71c0.028,0.163,0.747,2.667,0.78,2.646c0,0,0.03-0.021,0.037-0.026
			c-0.084,0.605-0.167,1.255-0.243,1.966c-0.131,1.315-0.266,2.802-0.304,4.43c-0.042,1.627-0.043,3.396,0.125,5.26
			c0.166,1.868,0.435,3.824,0.974,5.804c0.006,0.022,0.015,0.045,0.022,0.067c-0.337-0.53-1.331-1.981-1.42-2.084
			c-1.253-1.449-4.526-3.51-6.5-2.672c-1.422,0.604-1.839,2.307-1.125,3.606C286.536,378.75,288.282,379.406,289.697,379.612z"/>
		<path style="fill:#263238;" d="M326.479,369.535c0.033,0.021,0.685-2.502,0.708-2.666c0.264-1.897-0.341-5.718-2.272-6.651
			c-1.391-0.672-2.947,0.136-3.454,1.53c-0.518,1.422,0.138,3.168,0.916,4.369C323.289,367.528,326.477,369.533,326.479,369.535z"/>
	</g>
	<g>
		<path style="fill:#263238;" d="M242.337,387.342c0.913,0.399,3.146,0.348,3.147,0.348c0.023-0.001-0.48-1.462-0.522-1.55
			c-0.49-1.025-2.039-2.717-3.299-2.547c-0.908,0.123-1.413,1.032-1.208,1.887C240.664,386.353,241.56,387.002,242.337,387.342z"/>
		<path style="fill:#263238;" d="M243.108,393.809c0.947,0.138,2.939-0.44,3.098-0.486c0.315,1.115,0.728,2.234,1.208,3.344
			c0.274,0.635,0.57,1.265,0.874,1.894c-0.182-0.266-0.346-0.503-0.373-0.534c-0.743-0.859-2.684-2.082-3.855-1.585
			c-0.844,0.358-1.091,1.368-0.667,2.138c0.432,0.787,1.468,1.176,2.307,1.298c0.852,0.124,2.56-0.334,3.011-0.462
			c0.119,0.24,0.236,0.481,0.356,0.72c0.577,1.149,1.158,2.293,1.693,3.432c0.189,0.401,0.36,0.804,0.533,1.206
			c-0.162-0.236-0.3-0.434-0.324-0.462c-0.743-0.859-2.684-2.082-3.855-1.585c-0.844,0.358-1.091,1.368-0.667,2.139
			c0.433,0.787,1.468,1.176,2.308,1.298c0.813,0.119,2.394-0.29,2.93-0.439c0.165,0.417,0.33,0.834,0.471,1.246
			c0.09,0.283,0.196,0.549,0.27,0.839c0.08,0.285,0.158,0.567,0.236,0.846c0.13,0.543,0.268,1.103,0.382,1.637
			c0.082,0.37,0.153,0.725,0.226,1.082c-0.183-0.402-0.559-1.181-0.598-1.243c-0.604-0.962-2.338-2.464-3.57-2.15
			c-0.888,0.226-1.285,1.187-0.983,2.013c0.308,0.843,1.273,1.385,2.084,1.633c0.893,0.273,2.871,0.024,3.118-0.009
			c0.118,0.591,0.228,1.167,0.323,1.712c0.071,0.404,0.136,0.791,0.195,1.164h0.792c-0.075-0.415-0.156-0.848-0.247-1.302
			c-0.118-0.6-0.256-1.24-0.404-1.895c0.149-0.059,0.992-0.4,1.74-0.818c0.651,0.705,2.319,1.53,2.535,1.635
			c-0.227,0.558-0.453,1.099-0.675,1.606c-0.117,0.269-0.23,0.522-0.343,0.774h0.838c0.067-0.159,0.132-0.315,0.2-0.481
			c0.233-0.566,0.471-1.175,0.709-1.803c0.239,0.05,2.197,0.448,3.109,0.242c0.827-0.187,1.83-0.655,2.2-1.473
			c0.363-0.801,0.038-1.789-0.831-2.08c-1.206-0.405-3.046,0.964-3.72,1.878c-0.04,0.054-0.406,0.687-0.631,1.09
			c0.096-0.257,0.192-0.506,0.287-0.772c0.193-0.524,0.369-1.054,0.561-1.622c0.083-0.278,0.167-0.559,0.252-0.842
			c0.09-0.279,0.15-0.586,0.227-0.881c0.164-0.689,0.297-1.394,0.414-2.108c0.46,0.167,2.101,0.738,2.951,0.678
			c0.846-0.059,1.908-0.37,2.398-1.123c0.48-0.737,0.309-1.762-0.506-2.182c-1.13-0.583-3.157,0.492-3.962,1.293
			c-0.05,0.05-0.563,0.69-0.838,1.047c0.067-0.43,0.137-0.858,0.191-1.295c0.157-1.261,0.276-2.543,0.401-3.82
			c0.038-0.391,0.08-0.781,0.121-1.171c0.163,0.061,2.099,0.782,3.051,0.715c0.846-0.059,1.908-0.37,2.398-1.123
			c0.48-0.737,0.309-1.762-0.506-2.182c-1.13-0.583-3.157,0.492-3.962,1.293c-0.06,0.06-0.797,0.982-0.974,1.226
			c0.091-0.859,0.189-1.715,0.321-2.554c0.179-1.158,0.42-2.285,0.733-3.359c0.076,0.029,2.093,0.79,3.068,0.722
			c0.846-0.059,1.908-0.37,2.398-1.123c0.48-0.737,0.309-1.762-0.506-2.182c-1.131-0.583-3.157,0.492-3.962,1.293
			c-0.063,0.063-0.855,1.055-0.986,1.245c0.019-0.064,0.031-0.132,0.051-0.195c0.349-1.143,0.831-2.206,1.331-3.179
			c0.289-0.566,0.598-1.091,0.909-1.595c0.361,0.18,2.021,0.986,2.905,1.022c0.848,0.034,1.937-0.159,2.507-0.853
			c0.558-0.68,0.5-1.718-0.263-2.225c-1.06-0.704-3.192,0.142-4.08,0.85c-0.048,0.038-0.496,0.484-0.817,0.813
			c0.144-0.225,0.288-0.461,0.43-0.673c0.532-0.801,1.069-1.502,1.549-2.119c0.276-0.349,0.532-0.658,0.775-0.946
			c0.446-0.008,2.246-0.062,3.033-0.432c0.768-0.361,1.646-1.033,1.832-1.912c0.182-0.86-0.348-1.755-1.259-1.853
			c-1.265-0.136-2.768,1.597-3.23,2.634c-0.04,0.09-0.503,1.564-0.48,1.564c0,0,0.022,0,0.027,0
			c-0.24,0.272-0.493,0.566-0.763,0.893c-0.495,0.608-1.048,1.299-1.599,2.092c-0.553,0.791-1.132,1.666-1.659,2.642
			c-0.529,0.978-1.035,2.034-1.417,3.19c-0.004,0.013-0.007,0.027-0.011,0.04c0.007-0.373-0.01-1.415-0.02-1.495
			c-0.146-1.126-1.09-3.217-2.341-3.449c-0.901-0.166-1.664,0.54-1.736,1.416c-0.073,0.895,0.576,1.791,1.208,2.356
			c0.714,0.637,2.694,1.255,2.852,1.303c-0.353,1.104-0.625,2.265-0.837,3.455c-0.121,0.681-0.223,1.37-0.315,2.062
			c-0.005-0.322-0.011-0.611-0.017-0.651c-0.146-1.127-1.09-3.217-2.341-3.448c-0.901-0.167-1.664,0.539-1.736,1.416
			c-0.073,0.895,0.576,1.791,1.208,2.356c0.642,0.573,2.32,1.134,2.766,1.276c-0.033,0.266-0.068,0.531-0.1,0.797
			c-0.153,1.276-0.299,2.551-0.482,3.797c-0.064,0.439-0.143,0.869-0.221,1.299c-0.005-0.286-0.011-0.527-0.015-0.564
			c-0.146-1.127-1.09-3.217-2.341-3.448c-0.901-0.167-1.665,0.539-1.736,1.416c-0.073,0.895,0.576,1.791,1.208,2.356
			c0.613,0.547,2.157,1.078,2.686,1.25c-0.093,0.439-0.185,0.878-0.295,1.299c-0.081,0.286-0.14,0.566-0.238,0.849
			c-0.091,0.281-0.181,0.56-0.27,0.836c-0.191,0.525-0.385,1.068-0.584,1.576c-0.136,0.354-0.272,0.689-0.408,1.027
			c0.069-0.436,0.185-1.293,0.187-1.366c0.017-0.754-0.251-1.981-0.784-2.843c0.003-0.111-0.003-0.222-0.021-0.333
			c-0.139-0.868-0.955-1.513-1.841-1.277c-1.229,0.327-2.009,2.485-2.067,3.619c-0.003,0.067,0.04,0.797,0.076,1.257
			c-0.062-0.267-0.119-0.528-0.186-0.802c-0.129-0.544-0.274-1.082-0.427-1.663c-0.084-0.277-0.169-0.558-0.254-0.841
			c-0.079-0.282-0.198-0.571-0.297-0.86c-0.243-0.665-0.522-1.327-0.817-1.987c0.476-0.114,2.16-0.543,2.836-1.062
			c0.673-0.516,1.387-1.362,1.381-2.259c-0.006-0.879-0.715-1.64-1.626-1.541c-1.265,0.137-2.362,2.152-2.592,3.264
			c-0.014,0.069-0.089,0.886-0.122,1.335c-0.181-0.395-0.359-0.791-0.555-1.186c-0.565-1.138-1.172-2.273-1.774-3.407
			c-0.184-0.348-0.364-0.696-0.545-1.044c0.17-0.039,2.182-0.506,2.939-1.087c0.673-0.516,1.387-1.361,1.38-2.259
			c-0.006-0.879-0.715-1.64-1.626-1.541c-1.265,0.137-2.362,2.152-2.592,3.264c-0.017,0.084-0.123,1.259-0.136,1.559
			c-0.398-0.767-0.788-1.534-1.142-2.307c-0.489-1.065-0.91-2.137-1.242-3.206c0.079-0.018,2.181-0.496,2.957-1.091
			c0.673-0.516,1.387-1.361,1.38-2.259c-0.006-0.879-0.714-1.64-1.626-1.541c-1.264,0.137-2.362,2.152-2.591,3.264
			c-0.018,0.087-0.132,1.352-0.136,1.582c-0.02-0.063-0.047-0.127-0.066-0.191c-0.339-1.146-0.524-2.298-0.643-3.386
			c-0.071-0.632-0.103-1.239-0.122-1.831c0.401-0.049,2.229-0.292,2.987-0.751c0.726-0.44,1.528-1.201,1.62-2.094
			c0.09-0.875-0.53-1.709-1.447-1.71c-1.272-0.003-2.584,1.879-2.934,2.96c-0.019,0.059-0.147,0.677-0.233,1.129
			c-0.004-0.267-0.014-0.543-0.012-0.799c0.002-0.962,0.063-1.843,0.123-2.622c0.038-0.443,0.081-0.843,0.125-1.216
			c0.368-0.253,1.839-1.292,2.292-2.034c0.442-0.724,0.803-1.77,0.473-2.605c-0.323-0.818-1.258-1.272-2.072-0.852
			c-1.13,0.584-1.427,2.859-1.241,3.979c0.016,0.097,0.443,1.582,0.463,1.569c0,0,0.018-0.012,0.022-0.015
			c-0.05,0.359-0.099,0.744-0.144,1.166c-0.078,0.78-0.158,1.661-0.18,2.627c-0.025,0.965-0.025,2.014,0.074,3.119
			c0.098,1.108,0.258,2.268,0.578,3.442c0.004,0.013,0.009,0.027,0.013,0.04c-0.2-0.315-0.789-1.175-0.842-1.236
			c-0.743-0.859-2.684-2.082-3.855-1.585c-0.844,0.358-1.091,1.368-0.667,2.139C241.233,393.297,242.268,393.686,243.108,393.809z"
			/>
		<path style="fill:#263238;" d="M264.92,387.833c0.02,0.012,0.406-1.484,0.42-1.581c0.156-1.125-0.202-3.391-1.348-3.944
			c-0.825-0.399-1.747,0.081-2.048,0.907c-0.307,0.844,0.082,1.879,0.543,2.591C263.029,386.642,264.919,387.832,264.92,387.833z"/>
	</g>
</g>
<g id="Footprints">
	<g>
		<g>
			<path style="fill:#263238;stroke:#263238;stroke-miterlimit:10;" d="M69.685,457.393c0,0-14.469-2.793-24.25-0.931
				c-9.782,1.862-15.08,4.422-12.023,6.982c3.057,2.56,6.725,3.026,19.359,2.327c12.634-0.698,15.284-1.862,16.914-1.629
				c1.63,0.233,1.63,0.233,1.63,0.233L69.685,457.393z"/>
			<path style="fill:#263238;stroke:#263238;stroke-miterlimit:10;" d="M73.964,457.859l2.038,6.284c0,0,9.782,2.095,15.08,1.862
				c5.298-0.233,2.445-3.259-1.426-5.353C85.783,458.557,73.964,457.859,73.964,457.859z"/>
			<path style="fill:#263238;stroke:#263238;stroke-miterlimit:10;" d="M137.544,472.522c0,0-4.279-0.698-11.819-1.164
				c-7.54-0.466-22.416,0.931-25.473,2.56c-3.057,1.629,3.464,6.982,13.857,7.215c10.393,0.233,27.714-0.931,27.714-0.931
				L137.544,472.522z"/>
			<path style="fill:#263238;stroke:#263238;stroke-miterlimit:10;" d="M142.231,471.823l5.502,8.146c0,0,13.042-0.466,14.876-3.026
				c1.834-2.56,2.649-4.655-2.242-5.819C155.477,469.961,144.473,471.591,142.231,471.823z"/>
			<path style="fill:#263238;stroke:#263238;stroke-miterlimit:10;" d="M206.83,458.091l2.853,6.051c0,0-7.744,0.465-13.857,1.164
				c-6.113,0.698-22.824,0.931-25.88-1.862c-3.057-2.793,13.246-7.681,22.62-7.681C201.939,455.764,206.83,458.091,206.83,458.091z"
				/>
			<path style="fill:#263238;stroke:#263238;stroke-miterlimit:10;" d="M211.517,458.324l2.445,6.517c0,0,11.412,1.862,14.265,0.466
				c2.853-1.397,2.242-3.026-4.483-5.353C217.019,457.626,211.517,458.324,211.517,458.324z"/>
		</g>
		<g>
			<path style="fill:#263238;stroke:#263238;stroke-miterlimit:10;" d="M285.1,472.522c0,0-4.279-0.698-11.819-1.164
				c-7.54-0.466-22.416,0.931-25.473,2.56c-3.057,1.629,3.464,6.982,13.857,7.215c10.393,0.233,27.714-0.931,27.714-0.931
				L285.1,472.522z"/>
			<path style="fill:#263238;stroke:#263238;stroke-miterlimit:10;" d="M289.787,471.823l5.502,8.146c0,0,13.042-0.466,14.876-3.026
				c1.834-2.56,2.649-4.655-2.242-5.819C303.033,469.961,292.028,471.591,289.787,471.823z"/>
			<path style="fill:#263238;stroke:#263238;stroke-miterlimit:10;" d="M354.386,458.091l2.853,6.051c0,0-7.744,0.465-13.857,1.164
				c-6.114,0.698-22.824,0.931-25.88-1.862c-3.057-2.793,13.246-7.681,22.62-7.681C349.495,455.764,354.386,458.091,354.386,458.091
				z"/>
			<path style="fill:#263238;stroke:#263238;stroke-miterlimit:10;" d="M359.073,458.324l2.445,6.517c0,0,11.412,1.862,14.265,0.466
				c2.853-1.397,2.242-3.026-4.483-5.353C364.575,457.626,359.073,458.324,359.073,458.324z"/>
		</g>
	</g>
</g>
<g id="Character_2">
	<g>
		<path style="fill:#263238;stroke:#263238;stroke-miterlimit:10;" d="M432.448,181.106c0,0,4.401-0.339,5.586,9.141
			c1.185,9.48-7.718,13.319-4.84,15.689c2.878,2.37,21.469-14.427,34.295-0.115c8.939,9.975-1.185,16.759,1.354,20.821
			c2.539,4.063,14.727,2.878,12.188,18.113c-2.539,15.235-24.207,23.191-30.132,20.483c-5.925-2.709-16.42-28.947-24.376-35.887
			c-7.956-6.941-16.082-10.326-19.467-12.696c-3.386-2.37-17.097-10.834-18.452-14.389c-1.354-3.555,3.216-4.571,6.602-4.571
			c3.386,0,23.191-4.401,29.962-11.68C431.94,178.736,432.448,181.106,432.448,181.106z"/>
		<path style="fill:#F13434;stroke:#263238;stroke-miterlimit:10;" d="M378.405,231.849l-18.366,35.256
			c0,0-11.643,9.839-11.971,16.89c-0.328,7.051,6.395,12.791,14.103,13.939c7.707,1.148,14.595-4.592,16.07-6.395
			c1.476-1.804,4.1-51.163,6.887-56.902C387.916,228.898,380.701,228.734,378.405,231.849z"/>
		<g>
			<path style="fill:#263238;stroke:#263238;stroke-miterlimit:10;" d="M385.197,369.002c0,0,6.465,47.549,7.091,50.886
				c0.626,3.337,1.668,9.593,1.668,9.593s-2.711,0.626-2.711,2.711c0,2.085,0.834,6.882,0.834,6.882s-2.92,3.337-8.342,6.674
				c-5.422,3.337-6.871,5.109-6.036,7.403c0.834,2.294-1.668,2.085,6.882,3.337c14.819,2.169,11.447,1.189,20.009-1.147
				c2.294-0.626,7.925,1.043,9.802-0.834c1.877-1.877,1.668-9.593,1.251-15.224c-0.417-5.631-1.043-11.053-0.834-17.935
				c0.208-6.882-2.92-46.923-2.92-46.923L385.197,369.002z"/>
			<g>
				<path style="fill:#707070;stroke:#263238;stroke-miterlimit:10;" d="M404.592,455.341c2.294-0.626,7.925,1.043,9.802-0.834
					c1.081-1.081,1.468-4.102,1.524-7.544c-4.77-0.081-12.186-2.104-15.38-2.503c-3.927-0.491-8.459-5.386-8.459-5.386
					s-2.92,3.337-8.342,6.674c-5.422,3.337-6.871,5.109-6.036,7.403c0.834,2.294-1.668,2.085,6.882,3.337
					C399.402,458.656,396.029,457.676,404.592,455.341z"/>
				<path style="fill:none;stroke:#263238;stroke-miterlimit:10;" d="M378.813,453.502c0,0,10.177,2.2,16.503,1.65
					c6.326-0.55,9.627-3.026,11.827-3.026c2.2,0,2.2,0,2.2,0"/>
			</g>
			<path style="fill:#263238;stroke:#263238;stroke-miterlimit:10;" d="M404.719,372.042c0,0,3.16,13.319,5.192,23.027
				c2.032,9.707,2.409,40.309,2.409,40.309s-1.924,9.201-1.473,10.555c0.452,1.355,1.718,7.364,1.718,7.364s-1.227,3.44-4.418,4.913
				c-3.98,1.837-8.846,6.248-7.492,8.505c1.354,2.258,6.773,4.064,13.545,3.161c6.772-0.903,17.834-6.177,19.866-7.306
				c2.032-1.129,3.386-2.709,3.161-7.901c-0.226-5.192,0-23.478,0.226-36.572c0.226-13.094-2.258-21.221-2.935-25.736
				c-0.677-4.515,0.903-21.898,0.903-21.898L404.719,372.042z"/>
			<g>
				<path style="fill:#707070;stroke:#263238;stroke-miterlimit:10;" d="M414.201,469.875c6.772-0.903,17.834-6.177,19.866-7.306
					c2.032-1.129,3.386-2.709,3.161-7.901c-0.026-0.592-0.045-1.362-0.06-2.267c-2.249,2.55-5.293,5.072-8.401,4.823
					c-6.137-0.491-16.201-3.927-16.201-3.927s-1.227,3.44-4.418,4.913c-3.98,1.837-8.846,6.248-7.492,8.505
					C402.01,468.972,407.428,470.778,414.201,469.875z"/>
				<path style="fill:none;stroke:#263238;stroke-miterlimit:10;" d="M401.917,465.742c0,0,1.788,3.576,14.715,1.375
					c12.927-2.2,18.703-8.527,18.703-8.527"/>
			</g>
			<path style="fill:none;stroke:#7D7D7D;stroke-miterlimit:10;" d="M406.61,380.545c0,0,4.276,20.096,4.276,25.227
				c0,5.131,1.435,29.606,1.435,29.606l-1.007,7.592"/>
		</g>
		<g>
			<path style="fill:#F13434;stroke:#263238;stroke-miterlimit:10;" d="M370.151,296.845c0,0-10.243,50.573-11.262,55.891
				c-1.877,9.802,0.626,11.053,2.085,12.096c1.46,1.043,9.176,2.503,9.176,2.503l3.128-13.139l0.957,12.288
				c0.194,2.49,1.793,4.641,4.118,5.553c4.626,1.814,13.418,4.326,26.207,4.057c19.812-0.417,48.8-6.465,52.554-11.262
				c1.569-2.005,0.417-28.571-2.085-45.881c-2.503-17.309-12.304-31.491-12.304-31.491l-71.323,2.711L370.151,296.845z"/>
			<path style="fill:none;stroke:#263238;stroke-miterlimit:10;" d="M401.93,321.067c0,0,13.84,14.692,26.828,18.95l2.555-5.536
				c0,0-17.886-10.007-25.338-18.524"/>
		</g>
		<path style="fill:#F13434;stroke:#263238;stroke-miterlimit:10;" d="M423.539,301.015c11.635-2.946,18.986-6.507,22.313-8.35
			c-1.8-3.284-3.126-5.206-3.126-5.206l-71.323,2.711l-1.251,6.673c0,0-0.297,1.159-0.804,3.139l6.643,2.284l-9.593,44.629
			l6.048,1.251l5.214-40.667l0.834,44.838l9.593-0.417l-7.385-48.063C380.701,303.838,407.064,305.186,423.539,301.015z"/>
		<path style="fill:#A6A6A6;stroke:#263238;stroke-miterlimit:10;" d="M344.926,275.691c0,0-1.973,5.701-0.329,7.346
			s6.578,2.083,8.223,1.206s1.425-3.728,0-4.276C351.395,279.419,344.926,275.691,344.926,275.691z"/>
		<path style="fill:#F13434;stroke:#263238;stroke-miterlimit:10;" d="M428.092,220.862c0,0,12.627,13.119,16.726,29.353
			c4.099,16.234,2.952,33.616-0.164,38.7c-3.116,5.083-21.482,8.035-40.012,10.167c-18.53,2.132-31.157-0.164-32.469-1.312
			c-1.312-1.148-2.788-7.051-2.46-21.154c0.328-14.103,6.067-36.568,10.823-45.915s21.81-13.119,30.337-13.283
			C419.401,217.255,428.092,220.862,428.092,220.862z"/>
		<path style="fill:#F13434;stroke:#263238;stroke-miterlimit:10;" d="M387.419,231.89c0,0-6.602,5.586-4.74,6.602
			c1.862,1.016,6.433,3.893,6.433,3.893s-11.003,4.401-9.988,9.48c1.016,5.078,7.279,20.314,7.279,20.314l14.389-27.254
			c0,0-7.787-15.404-9.649-14.897C389.281,230.536,387.419,231.89,387.419,231.89z"/>
		<g>
			<path style="fill:#FFFFFF;stroke:#263238;stroke-miterlimit:10;" d="M362.027,200.065c0,0,2.37,4.909,1.693,10.326
				c-0.677,5.417-3.893,6.771-1.862,9.818c2.031,3.047,7.279,3.047,7.279,3.047s2.031,9.141,8.972,12.019
				c6.94,2.878,13.204-2.37,13.204-2.37s4.262,14.124,4.939,16.494c0.677,2.37,2.34-3.798,3.356-4.813
				c1.016-1.016,18.113-27.762,18.113-27.762l-4.74-2.031c0,0,5.586-3.216,5.756-7.956c0.169-4.74-4.909-9.988-9.48-8.125
				c-4.571,1.862-3.386,5.248-6.602,6.602c-3.216,1.354-6.602-0.508-8.803-2.709c-2.201-2.201-3.724-4.401-3.724-4.401
				S369.475,203.451,362.027,200.065z"/>
			<polygon style="fill:#263238;stroke:#263238;stroke-miterlimit:10;" points="391.313,232.905 398.339,227.053 395.202,244.505 
							"/>
			<path style="fill:none;stroke:#263238;stroke-miterlimit:10;" d="M377.432,223.087c0,0,5.248-0.677,7.448-4.909"/>
			<path style="fill:#263238;" d="M377.114,207.697c0.426,1.628-0.071,3.169-1.111,3.441c-1.04,0.272-2.229-0.826-2.655-2.454
				c-0.426-1.628,0.071-3.168,1.111-3.441C375.499,204.971,376.688,206.069,377.114,207.697z"/>
		</g>
		<path style="fill:#F13434;stroke:#263238;stroke-miterlimit:10;" d="M361.961,175.33c0,0-19.64,13.795-16.835,20.108
			c2.806,6.313,29.46,10.522,53.777,5.144c24.317-5.378,38.813-18.939,42.788-27.356c3.975-8.417-14.804-14.596-31.331-12.392
			C385.81,164.107,361.961,175.33,361.961,175.33z"/>
		<g>
			<path style="fill:#F13434;stroke:#263238;stroke-miterlimit:10;" d="M358.22,156.157c0,0-1.871,27.356-0.935,29.694
				c0.935,2.338,9.586,5.845,30.396,4.676c20.809-1.169,35.306-12.86,36.942-16.601c1.637-3.741,1.169-5.378,0.701-6.313
				c-0.468-0.935-4.209-18.471-15.198-26.655C399.137,132.776,365.935,146.337,358.22,156.157z"/>
			<path style="fill:none;stroke:#263238;stroke-miterlimit:10;" d="M402.644,142.83c0,0-29.928,10.989-31.565,9.119
				c-1.637-1.87,17.302-7.482,19.874-7.95"/>
			<path style="fill:#A6A6A6;stroke:#263238;stroke-miterlimit:10;" d="M387.68,190.527c20.809-1.169,35.306-12.86,36.942-16.601
				c1.637-3.741,1.169-5.378,0.701-6.313c-0.182-0.364-0.863-3.247-2.271-7.109c-5.009,4.264-14.598,10.18-31.866,14.123
				c-17.575,4.013-28.267,3.439-34.07,2.303c-0.144,4.481-0.149,8.13,0.167,8.92C358.22,188.189,366.871,191.696,387.68,190.527z"/>
			<path style="fill:none;stroke:#263238;stroke-miterlimit:10;" d="M404.281,161.067c0,0-19.173,20.342-15.432,21.511
				c3.741,1.169,8.885-5.611,8.885-5.611"/>
		</g>
		<path style="fill:#263238;stroke:#263238;stroke-miterlimit:10;" d="M368.629,200.573c0,0,1.862-1.354,6.771-1.016
			c4.909,0.339,6.771,3.555,6.602,1.185c-0.169-2.37-4.74-4.401-8.972-3.724C368.798,197.695,366.767,199.049,368.629,200.573z"/>
		<path style="fill:#F13434;stroke:#263238;stroke-miterlimit:10;" d="M417.382,215.47c0,0-14.727,23.022-24.376,40.119
			c-9.649,17.097-11.003,23.699-10.495,23.53c0.508-0.169,37.072-32.84,37.072-32.84l-6.602-7.618h8.972l8.295-18.621
			C430.247,220.04,423.645,214.792,417.382,215.47z"/>
		<path style="fill:none;stroke:#263238;stroke-miterlimit:10;" d="M415.629,269.565c0,0,6.067,7.543,12.135,8.691"/>
		<path style="fill:none;stroke:#263238;stroke-miterlimit:10;" d="M416.941,277.764c0,0,4.427,2.296,7.543,1.804"/>
		<path style="fill:#263238;stroke:#263238;stroke-miterlimit:10;" d="M406.774,306.461c0,0,1.338,7.069,3.129,7.552
			c1.791,0.483,2.775-3.124,2.775-6.076C412.678,304.986,409.89,303.018,406.774,306.461z"/>
		<g>
			<path style="fill:#F13434;stroke:#263238;stroke-miterlimit:10;" d="M429.728,235.374c0,0-9.91,10.445-9.173,24.552
				c0.737,14.107,6.005,18.654,6.005,18.654s-2.119,1.249-1.884,2.1s0.235,0.851,0.235,0.851s-16.916,6.693-17.37,7.798
				c-0.453,1.105,3.437,9.128,3.272,15.05c-0.165,5.922-1.67,9.054-0.909,9.634c0.76,0.58,25.029-5.459,34.067-9.566
				c9.038-4.107,13.622-11.186,14.566-15.206s-9.074-41.437-14.757-49.661c-5.683-8.224-9.232-8.949-11.206-7.52"/>
			<path style="fill:none;stroke:#263238;stroke-miterlimit:10;" d="M428.025,281.715c0,0,4.491-0.324,8.601,1.289"/>
			<path style="fill:none;stroke:#263238;stroke-miterlimit:10;" d="M428.442,279.451c0,0,8.44-1.699,13.708,1.364"/>
		</g>
		<ellipse style="fill:#A6A6A6;stroke:#263238;stroke-miterlimit:10;" cx="402.593" cy="298.016" rx="10.741" ry="12.873"/>
		<path style="fill:#A6A6A6;stroke:#263238;stroke-miterlimit:10;" d="M347.229,265.604c0,0-4.057,2.522-4.057,6.907
			c0,4.386,4.166,8.99,8.004,9.539c3.837,0.548,4.605-4.057,3.618-5.592C353.807,274.923,347.119,268.784,347.229,265.604z"/>
		<path style="fill:#A6A6A6;stroke:#263238;stroke-miterlimit:10;" d="M352.601,262.754c0,0-4.057,0.767-5.372,2.851
			c-1.316,2.083,0.877,7.017,2.302,8.661c1.425,1.645,7.346,3.289,8.223,1.864C358.631,274.704,352.93,268.564,352.601,262.754z"/>
		<path style="fill:#A6A6A6;stroke:#263238;stroke-miterlimit:10;" d="M360.166,259.574c0,0-3.947-1.206-6.14,0.877
			c-2.193,2.083-1.425,6.359-0.219,8.332c1.206,1.974,2.76,6.14,4.824,5.921c2.064-0.219,4.057-1.425,3.947-2.741
			C362.469,270.648,360.166,259.574,360.166,259.574z"/>
		<path style="fill:#FFFFFF;stroke:#263238;stroke-miterlimit:10;" d="M359.372,251.816l3.206,22.34l2.851-0.658l-3.056-22.105
			c-0.124-0.898-1.004-1.487-1.881-1.259l0,0C359.744,250.327,359.262,251.052,359.372,251.816z"/>
		<path style="fill:#A6A6A6;stroke:#263238;stroke-miterlimit:10;" d="M372.52,268.335c0.43-1.201,0.087-2.534-0.852-3.398
			c-0.838-0.772-1.898-1.548-2.855-1.655c-1.973-0.219-4.276,5.043-4.605,7.017c-0.329,1.974-0.548,2.851,3.18,3.508
			C370.312,274.323,371.617,270.858,372.52,268.335z"/>
		<g>
			<path style="fill:#FFFFFF;stroke:#263238;stroke-miterlimit:10;" d="M347.249,267.106l1.312-1.476c0,0,4.427,1.804,6.887,3.28
				c2.46,1.476,5.247,5.575,5.247,5.575s2.624-1.968,4.755-2.46c2.132-0.492,16.398-2.788,16.398-2.788l0.984,3.608
				c0,0-21.154,5.411-22.302,5.411c-1.148,0-13.611-10.003-13.611-10.003L347.249,267.106z"/>
			<path style="fill:#263238;stroke:#263238;stroke-miterlimit:10;" d="M345.281,269.565l8.363,22.138
				c0,0,11.643,12.627,12.955,12.955c1.312,0.328,23.122-8.527,23.122-8.527l-5.575-25.745l-22.958,6.231
				c0,0-14.758-10.659-15.25-10.003C345.445,267.27,345.281,269.565,345.281,269.565z"/>
		</g>
		<g>
			<path style="fill:#A6A6A6;stroke:#263238;stroke-miterlimit:10;" d="M402.675,290.063c0,0-3.444-10.167-6.395-11.151
				c-2.952-0.984-16.89,0.656-19.514,3.772c-2.624,3.116-3.444,5.903-2.296,7.707c1.148,1.804,3.28,1.476,5.411,0.328
				c2.132-1.148,5.575-2.46,6.559-2.46c0.984,0,3.936,0.656,3.936,0.656s-7.379,1.312-10.823,4.1
				c-3.444,2.788-0.328,6.067-0.328,6.067s0,2.788,1.476,4.755c1.476,1.968,3.28,2.46,3.28,2.46s2.624,1.968,5.739,2.624
				c3.116,0.656,6.067,0.164,11.479-2.788c5.411-2.952,4.428-10.331,3.116-12.463"/>
			<path style="fill:none;stroke:#263238;stroke-miterlimit:10;" d="M379.225,299.082c0,0,10.823-4.756,15.578-4.264"/>
			<path style="fill:none;stroke:#263238;stroke-miterlimit:10;" d="M383.981,306.297c0,0,9.183-2.132,12.299-3.608"/>
		</g>
	</g>
</g>
<g id="Character_1">
	<g>
		<g>
			<path style="fill:#263238;stroke:#263238;stroke-linecap:round;stroke-linejoin:round;stroke-miterlimit:10;" d="M73.248,346.26
				c0,0,6.405,22.418,6.405,28.824c0,6.405,0.689,32.214,1.674,44.778c0.985,12.564,3.006,17.55,3.006,17.55
				s-0.493,2.464,0.739,5.173c1.232,2.71,9.115,19.216,22.418,17.984c13.303-1.232,17.984-4.188,16.506-11.086
				c-1.478-6.898-5.42-10.347-5.42-10.347s4.681-0.246,9.608-3.942c4.927-3.695,1.725-8.622-0.246-13.796
				c-1.971-5.174-5.42-11.333-5.42-11.333s2.464-9.361,6.652-15.274c4.188-5.913,11.086-15.028,12.564-21.187
				s2.956-24.636,2.956-24.636S103.057,360.302,73.248,346.26z"/>
			<path style="fill:none;stroke:#7D7D7D;stroke-miterlimit:10;" d="M115.128,362.766c0,0-0.985,12.81-2.464,25.621
				c-0.835,7.232-1.276,14.464-1.459,20.056"/>
			<path style="fill:#707070;stroke:#263238;stroke-linecap:round;stroke-linejoin:round;stroke-miterlimit:10;" d="
				M123.997,449.483c-1.478-6.898-5.198-10.361-4.816-10.414c-2.4-2.479-6.499-6.518-8.094-6.916
				c-2.318-0.578-15.095,10.782-18.114,10.567c-3.019-0.216-8.638-5.308-8.638-5.308s-0.493,2.464,0.739,5.173
				c1.232,2.71,9.115,19.216,22.419,17.984C120.795,459.337,125.475,456.381,123.997,449.483z"/>
			<g>
				<path style="fill:#707070;stroke:#263238;stroke-linecap:round;stroke-linejoin:round;stroke-miterlimit:10;" d="
					M119.928,416.195c-3.019,2.588-8.741,1.508-8.741,1.508s0.547,1.943,1.625,3.668c0.912,1.46,2.582,4.637,0.595,12.241
					c1.858,1.5,4.186,3.817,5.774,5.457c1.41-0.197,5.126-0.966,9.005-3.875c4.927-3.695,1.725-8.622-0.246-13.796
					c-1.971-5.174-5.42-11.333-5.42-11.333S122.947,413.608,119.928,416.195z"/>
			</g>
		</g>
		<g>
			<path style="fill:#F13434;stroke:#263238;stroke-miterlimit:10;" d="M145.933,212.841c0,0,16.642,3.328,23.298,14.85
				c6.657,11.521,7.166,37.216,6.255,49.59c-0.911,12.374-14.959,18.513-22.384,12.624c-7.425-5.889-2.011-30.041-2.56-39.172
				S145.933,212.841,145.933,212.841z"/>
			<path style="fill:#F13434;stroke:#263238;stroke-miterlimit:10;" d="M106.016,203.711c0,0-28.736,4.537-33.575,8.772
				C67.6,216.718,34.932,253.62,39.47,263.3c4.537,9.679,27.223,22.989,27.223,22.989l-18.754,41.137
				c0,0,12.099,22.989,41.742,30.248c29.643,7.259,49.002-0.303,61.404-5.445c12.402-5.142,19.964-15.427,19.964-15.427
				l-18.754-53.842c0,0,2.722-23.896,2.117-36.903c-0.605-13.007-4.235-29.341-17.544-35.693
				C123.56,204.014,106.016,203.711,106.016,203.711z"/>
			<path style="fill:none;stroke:#263238;stroke-miterlimit:10;" d="M85.338,298.626c0,0-3.059,5.412-23.531,4.941"/>
			<path style="fill:none;stroke:#263238;stroke-miterlimit:10;" d="M65.101,300.509c0,0,6.118,0.941,13.648-3.294"/>
			<path style="fill:none;stroke:#263238;stroke-miterlimit:10;" d="M139.694,298.391c0,0,9.177,6.353,17.648,6.824"/>
			<path style="fill:none;stroke:#263238;stroke-miterlimit:10;" d="M146.518,297.92c0,0,3.53,3.294,9.412,3.765"/>
		</g>
		<path style="fill:none;stroke:#263238;stroke-miterlimit:10;" d="M66.693,286.289c0,0,1.138-4.476,3.895-5.242"/>
		<path style="fill:#F13434;stroke:#263238;stroke-miterlimit:10;" d="M79.797,233.167c0,0-10.765,31.366-8.537,39.347
			c2.227,7.981,18.189,24.499,37.12,24.313s35.891-8.034,39.904-10.95l4.013-2.916"/>
		<path style="fill:#F13434;stroke:#263238;stroke-miterlimit:10;" d="M72.929,276.783c0,0-2.97,4.454-1.67,6.682
			c1.299,2.227,10.579,11.507,23.385,15.59c12.806,4.083,25.613,3.712,39.718-1.485c14.105-5.197,18.374-8.909,18.931-10.022
			c0.557-1.113,0.186-5.568-2.97-3.526c0,0-13.734,8.909-30.809,11.507C102.44,298.127,83.88,288.104,72.929,276.783z"/>
		<path style="fill:none;stroke:#263238;stroke-miterlimit:10;" d="M48.802,252.284c0,0,12.064,13.363,21.901,12.064"/>
		<path style="fill:none;stroke:#263238;stroke-miterlimit:10;" d="M62.35,257.852c0,0,3.526,4.826,9.094,4.826"/>
		<path style="fill:none;stroke:#263238;stroke-miterlimit:10;" d="M72.373,213.68c0,0-0.371,11.136,5.568,18.374"/>
		<path style="fill:none;stroke:#263238;stroke-miterlimit:10;" d="M69.217,225.187c0,0,2.97,8.352,9.28,10.765"/>
		<path style="fill:#F13434;stroke:#263238;stroke-miterlimit:10;" d="M108.379,296.828c0,0-11.685,56.766-9.643,57.322
			c2.041,0.557,9.28,2.784,10.022,1.67c0.742-1.114,2.776-57.322,2.776-57.322s0,51.225,3.155,51.782
			c3.155,0.557,7.981-0.742,8.538-2.97c0.557-2.227-8.352-50.668-8.352-50.668L108.379,296.828z"/>
		<g>
			<g>
				<path style="fill:#F13434;stroke:#263238;stroke-miterlimit:10;" d="M103.293,197.359l-17.846,21.174l11.192,8.469l-7.26,7.865
					c0,0,3.63,6.957,11.192,19.964c7.562,13.007,17.544,19.359,17.544,19.359l-10.284,19.359c0,0,18.149-13.612,26.618-21.779
					c8.469-8.167,14.217-26.618,14.217-26.618l7.454-24.905C156.12,220.246,129.609,191.007,103.293,197.359z"/>
				<line style="fill:none;stroke:#263238;stroke-miterlimit:10;" x1="119.885" y1="271.95" x2="122.159" y2="268.539"/>
			</g>
			<polygon style="fill:#FFFFFF;stroke:#263238;stroke-miterlimit:10;" points="113.275,237.589 123.257,266.325 131.726,246.361 
							"/>
			<polygon style="fill:#263238;stroke:#263238;stroke-miterlimit:10;" points="123.257,266.325 118.8,253.106 123.772,245.219 
				127.887,254.306 			"/>
		</g>
		<g>
			<path style="fill:#FFFFFF;stroke:#263238;stroke-miterlimit:10;" d="M98.852,201.658c0,0-1.795,5.128,1.026,10.001
				c2.821,4.872,6.154,4.359,6.154,4.359s0.065,17.84,8.527,25.789c8.462,7.949,20.705,11.905,33.783,7.546
				c13.077-4.359,13.847-14.872,12.565-18.719c-1.282-3.846-1.282-3.846-1.282-3.846s6.667-5.128,9.744-11.026
				c3.077-5.898,2.051-4.616,2.051-4.616s-36.925,7.949-52.31-0.513c-15.385-8.462-20.001-14.616-20.001-14.616L98.852,201.658z"/>
			<path style="fill:none;stroke:#263238;stroke-miterlimit:10;" d="M145.803,226.827c0,0-3.024,2.134-2.134,3.735
				s3.38,2.312,1.956,5.336c-1.423,3.024-7.292,4.625-9.249-0.889"/>
			<path style="fill:none;stroke:#263238;stroke-miterlimit:10;" d="M117.167,229.673c0,0-0.534,9.961,7.293,12.807"/>
			<path style="fill:none;stroke:#263238;stroke-miterlimit:10;" d="M132.641,229.495c0,0-1.956-3.913-6.937-3.735"/>
			<path style="fill:#263238;" d="M153.363,230.652c-0.589,1.51-1.846,2.43-2.807,2.055c-0.961-0.375-1.262-1.903-0.673-3.413
				c0.589-1.51,1.846-2.43,2.807-2.055C153.651,227.614,153.952,229.142,153.363,230.652z"/>
		</g>
		<path style="fill:#F13434;stroke:#263238;stroke-miterlimit:10;" d="M120.904,151.143c0,0-13.847-2.821-26.411,13.334
			c-12.565,16.155-0.513,38.463,16.155,49.49c16.667,11.026,35.386,13.334,46.925,10.77c11.539-2.564,23.591-14.103,21.027-33.591
			c-2.564-19.488-19.488-30.001-33.078-36.156C131.93,148.835,120.904,151.143,120.904,151.143z"/>
		<path style="fill:#F13434;stroke:#263238;stroke-miterlimit:10;" d="M119.366,149.348c0,0-16.667,15.642-17.437,25.386
			c-0.769,9.744,3.333,25.386,23.078,33.078c19.745,7.693,29.745,3.334,38.72-0.256c8.975-3.59,8.718-22.052,8.462-26.411
			c-0.256-4.359-4.616-24.617-17.95-31.027C140.905,143.707,127.058,143.963,119.366,149.348z"/>
		<path style="fill:none;stroke:#263238;stroke-miterlimit:10;" d="M155.732,168.603c0,0-15.863-23.632-18.453-18.129
			c-2.59,5.503,14.568,32.049,16.187,27.841c1.619-4.208,1.295-5.827,1.295-5.827"/>
		<path style="fill:#A6A6A6;stroke:#263238;stroke-miterlimit:10;" d="M172.068,189.578c-10.331,7.31-26.857,12.849-45.523,3.618
			c-16.64-8.229-18.674-23.232-18.472-31.166c-3.17,4.287-5.847,8.936-6.145,12.704c-0.769,9.744,3.333,25.386,23.078,33.078
			c19.745,7.693,29.745,3.333,38.72-0.257C169.584,205.213,171.508,196.536,172.068,189.578z"/>
		<path style="fill:#263238;stroke:#263238;stroke-miterlimit:10;" d="M126.416,216.867c0,0,3.202-0.889,7.47,1.067
			c4.269,1.956,4.091,4.802,5.336,3.913s0-5.692-3.202-7.648C132.819,212.242,125.704,212.598,126.416,216.867z"/>
		<path style="fill:#263238;stroke:#263238;stroke-miterlimit:10;" d="M148.649,221.314c0,0,3.913-5.514,8.715-5.514
			c4.803,0,4.269,4.624,3.735,5.336s-1.601-1.956-4.98-0.889C152.74,221.314,149.005,223.448,148.649,221.314z"/>
		<path style="fill:#A6A6A6;stroke:#263238;stroke-miterlimit:10;" d="M159.859,271.295c0,0-5.886-2.382-8.128-0.981
			c-2.242,1.402-4.625,12.193-3.784,14.575c0.841,2.383,5.606,2.803,6.867,1.822c1.261-0.981,2.943-8.128,4.064-10.511
			C159.999,273.818,159.859,271.295,159.859,271.295z"/>
		<g>
			<path style="fill:#263238;stroke:#263238;stroke-miterlimit:10;" d="M162.009,265.493c0,0-4.835,26.592-3.546,28.848
				c1.289,2.256,6.35,1.388,8.122-0.062c1.773-1.45,0.903-27.819,0.903-27.819S164.266,265.977,162.009,265.493z"/>
			<path style="opacity:0.58;fill:#FFFFFF;stroke:#263238;stroke-miterlimit:10;" d="M182.745,253.482
				c-3.292,8.901-12.413,13.73-20.374,10.786c-7.96-2.944-11.746-12.546-8.454-21.447c3.291-8.901,12.413-13.73,20.373-10.786
				C182.252,234.979,186.037,244.581,182.745,253.482z"/>
			<g>
				<path style="fill:#263238;stroke:#263238;stroke-miterlimit:10;" d="M161.626,266.285c-8.957-3.312-13.216-14.116-9.512-24.131
					c3.361-9.088,12.122-14.38,20.409-12.81c-8.863-3.014-18.88,2.388-22.53,12.257c-3.703,10.015,0.555,20.819,9.512,24.131
					c0.829,0.306,1.67,0.514,2.515,0.674C161.889,266.362,161.756,266.333,161.626,266.285z"/>
				<g>
					<path style="fill:#263238;stroke:#263238;stroke-miterlimit:10;" d="M174.291,232.035c-4.367-1.615-9.077-0.879-12.989,1.573
						c3.496-1.814,7.526-2.244,11.287-0.854c7.605,2.812,11.221,11.985,8.077,20.489c-3.144,8.503-11.859,13.117-19.464,10.305
						c-0.689-0.255-1.333-0.578-1.954-0.932c0.955,0.667,1.992,1.233,3.124,1.652c7.96,2.944,17.082-1.886,20.374-10.786
						C186.037,244.581,182.252,234.979,174.291,232.035z"/>
				</g>
				<path style="fill:#FFFFFF;stroke:#263238;stroke-miterlimit:10;" d="M175.037,230.018c-8.957-3.312-19.22,2.122-22.924,12.137
					s0.555,20.819,9.512,24.131s19.22-2.122,22.924-12.137C188.253,244.134,183.994,233.33,175.037,230.018z M182.745,253.482
					c-3.292,8.901-12.413,13.73-20.374,10.786c-7.96-2.944-11.746-12.546-8.454-21.447c3.291-8.901,12.413-13.73,20.373-10.786
					C182.252,234.979,186.037,244.581,182.745,253.482z"/>
			</g>
		</g>
		<g>
			<path style="fill:#A6A6A6;stroke:#263238;stroke-miterlimit:10;" d="M157.056,292.037c0,0-1.822,2.102,0.841,4.064
				c2.663,1.962,8.969,1.682,11.071,0.561c2.102-1.121,3.223-3.924,2.382-4.204C170.51,292.177,162.522,294.84,157.056,292.037z"/>
			<path style="fill:#A6A6A6;stroke:#263238;stroke-miterlimit:10;" d="M174.995,284.609c0,0,0.14,2.523-0.42,5.045
				c-0.561,2.523-1.682,4.765-7.988,4.625c-6.306-0.14-10.09-1.542-10.09-4.064c0-2.523,1.962-3.363,1.962-3.363
				s5.746,0.841,9.109,0.14C170.931,286.291,174.995,284.609,174.995,284.609z"/>
			<path style="fill:#A6A6A6;stroke:#263238;stroke-miterlimit:10;" d="M157.255,279.004c0,0-3.695,4.435-1.478,8.13
				c2.217,3.695,13.55,1.478,17.738-0.739c4.188-2.217,4.188-9.854,1.971-9.115C173.268,278.019,162.429,279.744,157.255,279.004z"
				/>
			<path style="fill:#A6A6A6;stroke:#263238;stroke-miterlimit:10;" d="M173.874,270.455c0,0-10.294,0.068-14.014,0.841
				c-4.788,0.994-4.082,8.448,1.091,9.434c5.174,0.986,12.564-0.985,14.535-3.449C177.456,274.816,176.584,270.455,173.874,270.455z
				"/>
		</g>
	</g>
</g>
</svg>
